SplineFontDB: 3.0
FontName: adobe_garamond_probold
FullName: adobe_garamond_probold
FamilyName: adobe_garamond_probold
Weight: Regular
ItalicAngle: 0
UnderlinePosition: 0
UnderlineWidth: 0
Ascent: 1485
Descent: 563
InvalidEm: 0
LayerCount: 2
Layer: 0 1 "Back" 1
Layer: 1 1 "Fore" 0
XUID: [1021 795 -896763491 1046041]
OS2Version: 0
OS2_WeightWidthSlopeOnly: 0
OS2_UseTypoMetrics: 0
CreationTime: 1496252833
ModificationTime: 1496254716
PfmFamily: 17
TTFWeight: 400
TTFWidth: 5
LineGap: 184
VLineGap: 184
OS2TypoAscent: 0
OS2TypoAOffset: 1
OS2TypoDescent: 0
OS2TypoDOffset: 1
OS2TypoLinegap: 184
OS2WinAscent: 0
OS2WinAOffset: 1
OS2WinDescent: 0
OS2WinDOffset: 1
HheadAscent: 0
HheadAOffset: 1
HheadDescent: 0
HheadDOffset: 1
OS2Vendor: 'PfEd'
DEI: 91125
Encoding: Original
UnicodeInterp: none
NameList: AGL For New Fonts
DisplaySize: -48
AntiAlias: 1
FitToEm: 0
WinInfo: 0 16 4
BeginChars: 235 235

StartChar: uniFB01
Encoding: 1 64257 1
Width: 1159
Flags: W
LayerCount: 2
Fore
SplineSet
33 735.5 m 128,-1,1
 31 756 31 756 39 764 c 2,2,-1
 127 809 l 2,3,4
 147 819 147 819 159.5 830.5 c 128,-1,5
 172 842 172 842 172 862 c 0,6,7
 172 940 172 940 186.5 1030 c 128,-1,8
 201 1120 201 1120 236 1196 c 0,9,10
 263 1251 263 1251 300.5 1300.5 c 128,-1,11
 338 1350 338 1350 390 1386.5 c 128,-1,12
 442 1423 442 1423 511 1443.5 c 128,-1,13
 580 1464 580 1464 666 1464 c 0,14,15
 822 1464 822 1464 914 1402.5 c 128,-1,16
 1006 1341 1006 1341 1006 1253 c 0,17,18
 1006 1190 1006 1190 962 1155 c 128,-1,19
 918 1120 918 1120 860 1120 c 0,20,21
 831 1120 831 1120 805.5 1131.5 c 128,-1,22
 780 1143 780 1143 768 1163 c 128,-1,23
 756 1183 756 1183 741.5 1215 c 128,-1,24
 727 1247 727 1247 713 1270 c 0,25,26
 682 1323 682 1323 652.5 1342.5 c 128,-1,27
 623 1362 623 1362 586 1362 c 0,28,29
 561 1362 561 1362 534.5 1345.5 c 128,-1,30
 508 1329 508 1329 486.5 1287 c 128,-1,31
 465 1245 465 1245 451.5 1172.5 c 128,-1,32
 438 1100 438 1100 438 985 c 2,33,-1
 438 870 l 2,34,35
 438 829 438 829 446.5 824 c 128,-1,36
 455 819 455 819 492 819 c 2,37,-1
 649 819 l 2,38,39
 760 819 760 819 853 822 c 128,-1,40
 946 825 946 825 987 836 c 0,41,42
 999 836 999 836 1009.5 828.5 c 128,-1,43
 1020 821 1020 821 1022 805 c 0,44,45
 1018 756 1018 756 1015 694.5 c 128,-1,46
 1012 633 1012 633 1012 569 c 2,47,-1
 1012 238 l 2,48,49
 1012 183 1012 183 1014 150 c 128,-1,50
 1016 117 1016 117 1024 99.5 c 128,-1,51
 1032 82 1032 82 1047.5 75 c 128,-1,52
 1063 68 1063 68 1087 66 c 2,53,-1
 1120 61 l 1,54,55
 1132 51 1132 51 1132.5 27.5 c 128,-1,56
 1133 4 1133 4 1118 -6 c 1,57,58
 1069 -2 1069 -2 1007.5 -1 c 128,-1,59
 946 0 946 0 879 0 c 0,60,61
 752 0 752 0 653 -6 c 1,62,63
 639 4 639 4 639 27.5 c 128,-1,64
 639 51 639 51 651 61 c 1,65,-1
 684 66 l 2,66,67
 704 68 704 68 716.5 74 c 128,-1,68
 729 80 729 80 735 98.5 c 128,-1,69
 741 117 741 117 743 149.5 c 128,-1,70
 745 182 745 182 745 238 c 2,71,-1
 745 530 l 2,72,73
 745 589 745 589 743 625.5 c 128,-1,74
 741 662 741 662 730 680 c 128,-1,75
 719 698 719 698 697.5 703.5 c 128,-1,76
 676 709 676 709 639 709 c 2,77,-1
 492 709 l 2,78,79
 455 709 455 709 446.5 701.5 c 128,-1,80
 438 694 438 694 438 655 c 2,81,-1
 438 238 l 2,82,83
 438 183 438 183 440 150 c 128,-1,84
 442 117 442 117 450.5 99.5 c 128,-1,85
 459 82 459 82 474 76 c 128,-1,86
 489 70 489 70 514 66 c 2,87,-1
 541 61 l 1,88,89
 553 51 553 51 553 27.5 c 128,-1,90
 553 4 553 4 539 -6 c 1,91,92
 449 0 449 0 301 0 c 0,93,94
 164 0 164 0 66 -6 c 1,95,96
 52 4 52 4 51.5 27.5 c 128,-1,97
 51 51 51 51 63 61 c 1,98,-1
 96 66 l 2,99,100
 121 68 121 68 136.5 75 c 128,-1,101
 152 82 152 82 160 99.5 c 128,-1,102
 168 117 168 117 170 149.5 c 128,-1,103
 172 182 172 182 172 238 c 2,104,-1
 172 651 l 2,105,106
 172 692 172 692 164 700.5 c 128,-1,107
 156 709 156 709 121 709 c 2,108,-1
 45 709 l 1,109,0
 35 715 35 715 33 735.5 c 128,-1,1
EndSplineSet
Validated: 1
EndChar

StartChar: uniFB02
Encoding: 2 64258 2
Width: 1159
Flags: W
LayerCount: 2
Fore
SplineSet
33 735.5 m 128,-1,1
 31 756 31 756 39 764 c 2,2,-1
 127 809 l 2,3,4
 147 819 147 819 159.5 830.5 c 128,-1,5
 172 842 172 842 172 862 c 0,6,7
 172 952 172 952 186.5 1047.5 c 128,-1,8
 201 1143 201 1143 233 1212 c 0,9,10
 284 1321 284 1321 383.5 1392.5 c 128,-1,11
 483 1464 483 1464 629 1464 c 0,12,13
 711 1464 711 1464 762 1445.5 c 128,-1,14
 813 1427 813 1427 848 1403 c 1,15,16
 885 1415 885 1415 917.5 1430.5 c 128,-1,17
 950 1446 950 1446 983 1464 c 1,18,19
 1006 1464 1006 1464 1018 1450 c 1,20,21
 1014 1387 1014 1387 1013 1318 c 128,-1,22
 1012 1249 1012 1249 1012 1151 c 2,23,-1
 1012 238 l 2,24,25
 1012 185 1012 185 1014 153 c 128,-1,26
 1016 121 1016 121 1024 103.5 c 128,-1,27
 1032 86 1032 86 1047.5 79 c 128,-1,28
 1063 72 1063 72 1087 70 c 2,29,-1
 1120 66 l 1,30,31
 1132 56 1132 56 1132.5 30 c 128,-1,32
 1133 4 1133 4 1118 -6 c 1,33,34
 1069 -2 1069 -2 1006.5 -1 c 128,-1,35
 944 0 944 0 879 0 c 0,36,37
 752 0 752 0 653 -6 c 1,38,39
 639 4 639 4 639 27.5 c 128,-1,40
 639 51 639 51 651 61 c 1,41,-1
 684 66 l 2,42,43
 704 68 704 68 716.5 74 c 128,-1,44
 729 80 729 80 735 98.5 c 128,-1,45
 741 117 741 117 743 149.5 c 128,-1,46
 745 182 745 182 745 238 c 2,47,-1
 745 657 l 2,48,49
 745 696 745 696 736 702.5 c 128,-1,50
 727 709 727 709 690 709 c 2,51,-1
 492 709 l 2,52,53
 453 709 453 709 445.5 700.5 c 128,-1,54
 438 692 438 692 438 651 c 2,55,-1
 438 238 l 2,56,57
 438 183 438 183 440 150 c 128,-1,58
 442 117 442 117 450.5 99.5 c 128,-1,59
 459 82 459 82 474 76 c 128,-1,60
 489 70 489 70 514 66 c 2,61,-1
 541 61 l 1,62,63
 553 51 553 51 553 27.5 c 128,-1,64
 553 4 553 4 539 -6 c 1,65,66
 449 0 449 0 301 0 c 0,67,68
 238 0 238 0 176.5 -1 c 128,-1,69
 115 -2 115 -2 66 -6 c 1,70,71
 52 4 52 4 51.5 29.5 c 128,-1,72
 51 55 51 55 63 66 c 1,73,-1
 96 70 l 2,74,75
 121 72 121 72 136.5 79 c 128,-1,76
 152 86 152 86 160 103.5 c 128,-1,77
 168 121 168 121 170 152.5 c 128,-1,78
 172 184 172 184 172 238 c 2,79,-1
 172 651 l 2,80,81
 172 692 172 692 164 700.5 c 128,-1,82
 156 709 156 709 121 709 c 2,83,-1
 45 709 l 1,84,0
 35 715 35 715 33 735.5 c 128,-1,1
438 877 m 2,85,86
 438 836 438 836 445.5 827.5 c 128,-1,87
 453 819 453 819 492 819 c 2,88,-1
 690 819 l 2,89,90
 727 819 727 819 736 825 c 128,-1,91
 745 831 745 831 745 870 c 2,92,-1
 745 1200 l 2,93,94
 745 1225 745 1225 737 1253.5 c 128,-1,95
 729 1282 729 1282 711.5 1306.5 c 128,-1,96
 694 1331 694 1331 668.5 1348.5 c 128,-1,97
 643 1366 643 1366 608 1366 c 0,98,99
 577 1366 577 1366 547.5 1346.5 c 128,-1,100
 518 1327 518 1327 493.5 1278 c 128,-1,101
 469 1229 469 1229 453.5 1143 c 128,-1,102
 438 1057 438 1057 438 924 c 2,103,-1
 438 877 l 2,85,86
EndSplineSet
Validated: 1
EndChar

StartChar: uniFB03
Encoding: 3 64259 3
Width: 1732
Flags: W
LayerCount: 2
Fore
SplineSet
33 735.5 m 128,-1,1
 31 756 31 756 39 764 c 2,2,-1
 127 809 l 2,3,4
 147 819 147 819 159.5 830.5 c 128,-1,5
 172 842 172 842 172 862 c 0,6,7
 172 876 172 876 175 909 c 128,-1,8
 178 942 178 942 184 983 c 128,-1,9
 190 1024 190 1024 201.5 1068 c 128,-1,10
 213 1112 213 1112 229 1149 c 0,11,12
 254 1200 254 1200 290 1248 c 128,-1,13
 326 1296 326 1296 377 1333 c 128,-1,14
 428 1370 428 1370 495.5 1392.5 c 128,-1,15
 563 1415 563 1415 651 1415 c 0,16,17
 684 1415 684 1415 719 1411 c 128,-1,18
 754 1407 754 1407 786.5 1399 c 128,-1,19
 819 1391 819 1391 849 1377.5 c 128,-1,20
 879 1364 879 1364 899 1343 c 1,21,22
 915 1359 915 1359 945 1381 c 128,-1,23
 975 1403 975 1403 1018 1421.5 c 128,-1,24
 1061 1440 1061 1440 1116 1452 c 128,-1,25
 1171 1464 1171 1464 1239 1464 c 0,26,27
 1395 1464 1395 1464 1487 1402.5 c 128,-1,28
 1579 1341 1579 1341 1579 1253 c 0,29,30
 1579 1190 1579 1190 1535 1155 c 128,-1,31
 1491 1120 1491 1120 1434 1120 c 0,32,33
 1405 1120 1405 1120 1379.5 1131.5 c 128,-1,34
 1354 1143 1354 1143 1341 1163 c 0,35,36
 1329 1183 1329 1183 1314.5 1215 c 128,-1,37
 1300 1247 1300 1247 1286 1270 c 0,38,39
 1255 1323 1255 1323 1225.5 1342.5 c 128,-1,40
 1196 1362 1196 1362 1159 1362 c 0,41,42
 1134 1362 1134 1362 1107.5 1345.5 c 128,-1,43
 1081 1329 1081 1329 1059.5 1287 c 128,-1,44
 1038 1245 1038 1245 1025 1172.5 c 128,-1,45
 1012 1100 1012 1100 1012 985 c 2,46,-1
 1012 870 l 2,47,48
 1012 829 1012 829 1020 824 c 128,-1,49
 1028 819 1028 819 1065 819 c 2,50,-1
 1223 819 l 2,51,52
 1334 819 1334 819 1427 822 c 128,-1,53
 1520 825 1520 825 1561 836 c 0,54,55
 1573 836 1573 836 1583 828.5 c 128,-1,56
 1593 821 1593 821 1595 805 c 0,57,58
 1591 756 1591 756 1588 694.5 c 128,-1,59
 1585 633 1585 633 1585 569 c 2,60,-1
 1585 238 l 2,61,62
 1585 183 1585 183 1587 150 c 128,-1,63
 1589 117 1589 117 1597.5 99.5 c 128,-1,64
 1606 82 1606 82 1621 75 c 128,-1,65
 1636 68 1636 68 1661 66 c 2,66,-1
 1694 61 l 1,67,68
 1706 51 1706 51 1706 27.5 c 128,-1,69
 1706 4 1706 4 1692 -6 c 1,70,71
 1645 -2 1645 -2 1582.5 -1 c 128,-1,72
 1520 0 1520 0 1452 0 c 0,73,74
 1325 0 1325 0 1227 -6 c 1,75,76
 1213 4 1213 4 1212.5 27.5 c 128,-1,77
 1212 51 1212 51 1225 61 c 1,78,-1
 1257 66 l 2,79,80
 1277 68 1277 68 1290 74 c 128,-1,81
 1303 80 1303 80 1309 98.5 c 128,-1,82
 1315 117 1315 117 1317 149.5 c 128,-1,83
 1319 182 1319 182 1319 238 c 2,84,-1
 1319 530 l 2,85,86
 1319 589 1319 589 1317 625.5 c 128,-1,87
 1315 662 1315 662 1303.5 680 c 128,-1,88
 1292 698 1292 698 1270.5 703.5 c 128,-1,89
 1249 709 1249 709 1212 709 c 2,90,-1
 1065 709 l 2,91,92
 1028 709 1028 709 1020 700.5 c 128,-1,93
 1012 692 1012 692 1012 651 c 2,94,-1
 1012 238 l 2,95,96
 1012 183 1012 183 1014 150 c 128,-1,97
 1016 117 1016 117 1024 99.5 c 128,-1,98
 1032 82 1032 82 1047.5 76 c 128,-1,99
 1063 70 1063 70 1087 66 c 2,100,-1
 1114 61 l 1,101,102
 1126 51 1126 51 1126 27.5 c 128,-1,103
 1126 4 1126 4 1112 -6 c 1,104,105
 1022 0 1022 0 874 0 c 0,106,107
 751 0 751 0 653 -6 c 1,108,109
 639 4 639 4 639 27.5 c 128,-1,110
 639 51 639 51 651 61 c 1,111,-1
 684 66 l 2,112,113
 704 68 704 68 716.5 74 c 128,-1,114
 729 80 729 80 735 98.5 c 128,-1,115
 741 117 741 117 743 149.5 c 128,-1,116
 745 182 745 182 745 238 c 2,117,-1
 745 651 l 2,118,119
 745 692 745 692 737 700.5 c 128,-1,120
 729 709 729 709 694 709 c 2,121,-1
 492 709 l 2,122,123
 459 709 459 709 445.5 700.5 c 128,-1,124
 432 692 432 692 438 651 c 1,125,-1
 438 238 l 2,126,127
 438 183 438 183 440 150 c 128,-1,128
 442 117 442 117 450.5 99.5 c 128,-1,129
 459 82 459 82 474 76 c 128,-1,130
 489 70 489 70 514 66 c 2,131,-1
 541 61 l 1,132,133
 553 51 553 51 553 27.5 c 128,-1,134
 553 4 553 4 539 -6 c 1,135,136
 449 0 449 0 301 0 c 0,137,138
 238 0 238 0 176.5 -1 c 128,-1,139
 115 -2 115 -2 66 -6 c 1,140,141
 52 4 52 4 51.5 27.5 c 128,-1,142
 51 51 51 51 63 61 c 1,143,-1
 96 66 l 2,144,145
 121 68 121 68 136.5 75 c 128,-1,146
 152 82 152 82 160 99.5 c 128,-1,147
 168 117 168 117 170 149.5 c 128,-1,148
 172 182 172 182 172 238 c 2,149,-1
 172 651 l 2,150,151
 172 692 172 692 164 700.5 c 128,-1,152
 156 709 156 709 121 709 c 2,153,-1
 45 709 l 1,154,0
 35 715 35 715 33 735.5 c 128,-1,1
438 877 m 2,155,156
 438 836 438 836 445.5 827.5 c 128,-1,157
 453 819 453 819 492 819 c 2,158,-1
 700 819 l 2,159,160
 729 819 729 819 737 827.5 c 128,-1,161
 745 836 745 836 745 862 c 0,162,163
 745 917 745 917 754.5 1001 c 128,-1,164
 764 1085 764 1085 786 1165 c 1,165,166
 780 1188 780 1188 769 1215.5 c 128,-1,167
 758 1243 758 1243 739.5 1266.5 c 128,-1,168
 721 1290 721 1290 694.5 1305.5 c 128,-1,169
 668 1321 668 1321 635 1321 c 0,170,171
 604 1321 604 1321 569.5 1304.5 c 128,-1,172
 535 1288 535 1288 505 1241 c 128,-1,173
 475 1194 475 1194 456.5 1111 c 128,-1,174
 438 1028 438 1028 438 895 c 2,175,-1
 438 877 l 2,155,156
EndSplineSet
Validated: 1
EndChar

StartChar: uniFB04
Encoding: 4 64260 4
Width: 1732
Flags: W
LayerCount: 2
Fore
SplineSet
33 735.5 m 128,-1,1
 31 756 31 756 39 764 c 2,2,-1
 127 809 l 2,3,4
 147 819 147 819 159.5 830.5 c 128,-1,5
 172 842 172 842 172 862 c 0,6,7
 172 876 172 876 175 909 c 128,-1,8
 178 942 178 942 184 983 c 128,-1,9
 190 1024 190 1024 201.5 1068 c 128,-1,10
 213 1112 213 1112 229 1149 c 0,11,12
 254 1200 254 1200 290 1248 c 128,-1,13
 326 1296 326 1296 377 1333 c 128,-1,14
 428 1370 428 1370 495.5 1392.5 c 128,-1,15
 563 1415 563 1415 649 1415 c 0,16,17
 708 1415 708 1415 778 1399.5 c 128,-1,18
 848 1384 848 1384 889 1343 c 1,19,20
 903 1359 903 1359 932 1381 c 128,-1,21
 961 1403 961 1403 1000.5 1421.5 c 128,-1,22
 1040 1440 1040 1440 1089.5 1452 c 128,-1,23
 1139 1464 1139 1464 1198 1464 c 0,24,25
 1282 1464 1282 1464 1334 1445.5 c 128,-1,26
 1386 1427 1386 1427 1421 1403 c 1,27,28
 1458 1415 1458 1415 1491 1430.5 c 128,-1,29
 1524 1446 1524 1446 1556 1464 c 1,30,31
 1579 1464 1579 1464 1591 1450 c 1,32,33
 1587 1387 1587 1387 1586 1318 c 128,-1,34
 1585 1249 1585 1249 1585 1151 c 2,35,-1
 1585 238 l 2,36,37
 1585 185 1585 185 1587 153 c 128,-1,38
 1589 121 1589 121 1597.5 103.5 c 128,-1,39
 1606 86 1606 86 1621 79 c 128,-1,40
 1636 72 1636 72 1661 70 c 2,41,-1
 1694 66 l 1,42,43
 1706 56 1706 56 1706 30 c 128,-1,44
 1706 4 1706 4 1692 -6 c 1,45,46
 1643 -2 1643 -2 1580.5 -1 c 128,-1,47
 1518 0 1518 0 1452 0 c 0,48,49
 1325 0 1325 0 1227 -6 c 1,50,51
 1213 4 1213 4 1212.5 27.5 c 128,-1,52
 1212 51 1212 51 1225 61 c 1,53,-1
 1257 66 l 2,54,55
 1277 68 1277 68 1290 74 c 128,-1,56
 1303 80 1303 80 1309 98.5 c 128,-1,57
 1315 117 1315 117 1317 149.5 c 128,-1,58
 1319 182 1319 182 1319 238 c 2,59,-1
 1319 657 l 2,60,61
 1319 696 1319 696 1309.5 702.5 c 128,-1,62
 1300 709 1300 709 1264 709 c 2,63,-1
 1065 709 l 2,64,65
 1026 709 1026 709 1019 700.5 c 128,-1,66
 1012 692 1012 692 1012 651 c 2,67,-1
 1012 238 l 2,68,69
 1012 183 1012 183 1014 150 c 128,-1,70
 1016 117 1016 117 1024 99.5 c 128,-1,71
 1032 82 1032 82 1047.5 76 c 128,-1,72
 1063 70 1063 70 1087 66 c 2,73,-1
 1114 61 l 1,74,75
 1126 51 1126 51 1126 27.5 c 128,-1,76
 1126 4 1126 4 1112 -6 c 1,77,78
 1022 0 1022 0 874 0 c 0,79,80
 811 0 811 0 749.5 -1 c 128,-1,81
 688 -2 688 -2 639 -6 c 1,82,83
 625 4 625 4 625 29.5 c 128,-1,84
 625 55 625 55 637 66 c 1,85,-1
 670 70 l 2,86,87
 695 72 695 72 710 79 c 128,-1,88
 725 86 725 86 733 103.5 c 128,-1,89
 741 121 741 121 743 152.5 c 128,-1,90
 745 184 745 184 745 238 c 2,91,-1
 745 651 l 2,92,93
 745 692 745 692 737 700.5 c 128,-1,94
 729 709 729 709 694 709 c 2,95,-1
 492 709 l 2,96,97
 459 709 459 709 445.5 700.5 c 128,-1,98
 432 692 432 692 438 651 c 1,99,-1
 438 238 l 2,100,101
 438 183 438 183 440 150 c 128,-1,102
 442 117 442 117 450.5 99.5 c 128,-1,103
 459 82 459 82 474 76 c 128,-1,104
 489 70 489 70 514 66 c 2,105,-1
 541 61 l 1,106,107
 553 51 553 51 553 27.5 c 128,-1,108
 553 4 553 4 539 -6 c 1,109,110
 449 0 449 0 301 0 c 0,111,112
 238 0 238 0 176.5 -1 c 128,-1,113
 115 -2 115 -2 66 -6 c 1,114,115
 52 4 52 4 51.5 27.5 c 128,-1,116
 51 51 51 51 63 61 c 1,117,-1
 96 66 l 2,118,119
 121 68 121 68 136.5 75 c 128,-1,120
 152 82 152 82 160 99.5 c 128,-1,121
 168 117 168 117 170 149.5 c 128,-1,122
 172 182 172 182 172 238 c 2,123,-1
 172 651 l 2,124,125
 172 692 172 692 164 700.5 c 128,-1,126
 156 709 156 709 121 709 c 2,127,-1
 45 709 l 1,128,0
 35 715 35 715 33 735.5 c 128,-1,1
438 877 m 2,129,130
 438 836 438 836 445.5 827.5 c 128,-1,131
 453 819 453 819 492 819 c 2,132,-1
 700 819 l 2,133,134
 729 819 729 819 737 827.5 c 128,-1,135
 745 836 745 836 745 862 c 0,136,137
 745 917 745 917 754.5 1001 c 128,-1,138
 764 1085 764 1085 786 1165 c 1,139,140
 780 1188 780 1188 769 1215.5 c 128,-1,141
 758 1243 758 1243 739.5 1266.5 c 128,-1,142
 721 1290 721 1290 694.5 1305.5 c 128,-1,143
 668 1321 668 1321 635 1321 c 0,144,145
 604 1321 604 1321 569.5 1304.5 c 128,-1,146
 535 1288 535 1288 505 1241 c 128,-1,147
 475 1194 475 1194 456.5 1111 c 128,-1,148
 438 1028 438 1028 438 895 c 2,149,-1
 438 877 l 2,129,130
1012 877 m 2,150,151
 1012 836 1012 836 1019 827.5 c 128,-1,152
 1026 819 1026 819 1065 819 c 2,153,-1
 1264 819 l 2,154,155
 1301 819 1301 819 1310 825 c 128,-1,156
 1319 831 1319 831 1319 870 c 2,157,-1
 1319 1200 l 2,158,159
 1319 1225 1319 1225 1311 1253.5 c 128,-1,160
 1303 1282 1303 1282 1285.5 1306.5 c 128,-1,161
 1268 1331 1268 1331 1242.5 1348.5 c 128,-1,162
 1217 1366 1217 1366 1182 1366 c 0,163,164
 1151 1366 1151 1366 1121.5 1346.5 c 128,-1,165
 1092 1327 1092 1327 1067 1278 c 128,-1,166
 1042 1229 1042 1229 1027 1143 c 128,-1,167
 1012 1057 1012 1057 1012 924 c 2,168,-1
 1012 877 l 2,150,151
EndSplineSet
Validated: 1
EndChar

StartChar: exclam
Encoding: 11 33 11
Width: 520
Flags: W
LayerCount: 2
Fore
SplineSet
94 137 m 0,0,1
 94 209 94 209 142 258 c 128,-1,2
 190 307 190 307 260 307 c 0,3,4
 297 307 297 307 327.5 293 c 128,-1,5
 358 279 358 279 379.5 255 c 128,-1,6
 401 231 401 231 413.5 200.5 c 128,-1,7
 426 170 426 170 426 137 c 0,8,9
 426 65 426 65 380 18 c 128,-1,10
 334 -29 334 -29 260 -29 c 0,11,12
 229 -29 229 -29 199.5 -16.5 c 128,-1,13
 170 -4 170 -4 146.5 17.5 c 128,-1,14
 123 39 123 39 108.5 69.5 c 128,-1,15
 94 100 94 100 94 137 c 0,0,1
96 1235 m 0,16,17
 96 1288 96 1288 138 1305.5 c 128,-1,18
 180 1323 180 1323 260 1323 c 128,-1,19
 340 1323 340 1323 382 1305.5 c 128,-1,20
 424 1288 424 1288 424 1235 c 0,21,22
 424 1210 424 1210 416 1157 c 128,-1,23
 408 1104 408 1104 391 995 c 2,24,-1
 305 420 l 1,25,26
 287 408 287 408 260 408 c 128,-1,27
 233 408 233 408 215 420 c 1,28,-1
 129 995 l 2,29,30
 113 1104 113 1104 104.5 1157 c 128,-1,31
 96 1210 96 1210 96 1235 c 0,16,17
EndSplineSet
Validated: 1
EndChar

StartChar: quotedbl
Encoding: 12 34 12
Width: 966
Flags: W
LayerCount: 2
Fore
SplineSet
147 1364 m 0,0,1
 147 1413 147 1413 180 1423.5 c 128,-1,2
 213 1434 213 1434 279 1434 c 128,-1,3
 345 1434 345 1434 377.5 1423.5 c 128,-1,4
 410 1413 410 1413 410 1364 c 0,5,6
 410 1348 410 1348 405.5 1320 c 128,-1,7
 401 1292 401 1292 393 1247 c 2,8,-1
 317 827 l 1,9,10
 301 815 301 815 278.5 815 c 128,-1,11
 256 815 256 815 240 827 c 1,12,-1
 164 1247 l 2,13,14
 156 1292 156 1292 151.5 1320 c 128,-1,15
 147 1348 147 1348 147 1364 c 0,0,1
557 1364 m 0,16,17
 557 1413 557 1413 589.5 1423.5 c 128,-1,18
 622 1434 622 1434 688 1434 c 128,-1,19
 754 1434 754 1434 786.5 1423.5 c 128,-1,20
 819 1413 819 1413 819 1364 c 0,21,22
 819 1348 819 1348 815 1320 c 128,-1,23
 811 1292 811 1292 803 1247 c 2,24,-1
 727 827 l 1,25,26
 711 815 711 815 688.5 815 c 128,-1,27
 666 815 666 815 649 827 c 1,28,-1
 573 1247 l 2,29,30
 565 1292 565 1292 561 1320 c 128,-1,31
 557 1348 557 1348 557 1364 c 0,16,17
EndSplineSet
Validated: 1
EndChar

StartChar: numbersign
Encoding: 13 35 13
Width: 1064
LayerCount: 2
Fore
SplineSet
37 379 m 1,0,-1
 59 510 l 1,1,-1
 272 510 l 1,2,-1
 352 811 l 1,3,-1
 150 811 l 1,4,-1
 174 944 l 1,5,-1
 387 944 l 1,6,-1
 475 1278 l 1,7,-1
 606 1278 l 1,8,-1
 516 944 l 1,9,-1
 711 944 l 1,10,-1
 799 1278 l 1,11,-1
 932 1278 l 1,12,-1
 842 944 l 1,13,-1
 1026 944 l 1,14,-1
 1008 811 l 1,15,-1
 805 811 l 1,16,-1
 723 510 l 1,17,-1
 903 510 l 1,18,-1
 881 379 l 1,19,-1
 688 379 l 1,20,-1
 586 6 l 1,21,-1
 463 6 l 1,22,-1
 561 379 l 1,23,-1
 362 379 l 1,24,-1
 260 6 l 1,25,-1
 139 6 l 1,26,-1
 238 379 l 1,27,-1
 37 379 l 1,0,-1
397 510 m 1,28,-1
 596 510 l 1,29,-1
 676 811 l 1,30,-1
 479 811 l 1,31,-1
 397 510 l 1,28,-1
EndSplineSet
Validated: 1
EndChar

StartChar: dollar
Encoding: 14 36 14
Width: 1064
LayerCount: 2
Fore
SplineSet
74 375 m 1,0,1
 84 391 84 391 106.5 393 c 128,-1,2
 129 395 129 395 143 379 c 1,3,4
 155 338 155 338 182 294 c 128,-1,5
 209 250 209 250 247 211 c 128,-1,6
 285 172 285 172 332 142.5 c 128,-1,7
 379 113 379 113 434 100 c 1,8,-1
 489 561 l 1,9,-1
 424 590 l 2,10,11
 371 613 371 613 320.5 643.5 c 128,-1,12
 270 674 270 674 232.5 716 c 128,-1,13
 195 758 195 758 171 811 c 128,-1,14
 147 864 147 864 147 932 c 0,15,16
 147 1008 147 1008 177 1071.5 c 128,-1,17
 207 1135 207 1135 262 1181 c 128,-1,18
 317 1227 317 1227 397 1253.5 c 128,-1,19
 477 1280 477 1280 575 1284 c 1,20,-1
 594 1440 l 2,21,22
 598 1448 598 1448 612.5 1451 c 128,-1,23
 627 1454 627 1454 643 1454 c 128,-1,24
 659 1454 659 1454 673.5 1451 c 128,-1,25
 688 1448 688 1448 692 1440 c 1,26,-1
 674 1282 l 1,27,28
 746 1278 746 1278 805 1264.5 c 128,-1,29
 864 1251 864 1251 905 1241 c 1,30,31
 917 1206 917 1206 928.5 1132.5 c 128,-1,32
 940 1059 940 1059 940 975 c 1,33,34
 932 961 932 961 907.5 957.5 c 128,-1,35
 883 954 883 954 870 969 c 1,36,37
 862 994 862 994 846.5 1026.5 c 128,-1,38
 831 1059 831 1059 805.5 1089.5 c 128,-1,39
 780 1120 780 1120 744.5 1145.5 c 128,-1,40
 709 1171 709 1171 662 1184 c 1,41,-1
 614 786 l 1,42,-1
 715 743 l 2,43,44
 758 725 758 725 806 694.5 c 128,-1,45
 854 664 854 664 896 617.5 c 128,-1,46
 938 571 938 571 964.5 511 c 128,-1,47
 991 451 991 451 991 373 c 0,48,49
 991 209 991 209 866 107.5 c 128,-1,50
 741 6 741 6 520 0 c 1,51,-1
 498 -190 l 2,52,53
 494 -198 494 -198 479.5 -202.5 c 128,-1,54
 465 -207 465 -207 448.5 -207 c 128,-1,55
 432 -207 432 -207 417.5 -203 c 128,-1,56
 403 -199 403 -199 399 -190 c 1,57,-1
 422 4 l 1,58,59
 311 10 311 10 238.5 36.5 c 128,-1,60
 166 63 166 63 139 82 c 0,61,62
 125 96 125 96 112.5 127 c 128,-1,63
 100 158 100 158 92 197 c 128,-1,64
 84 236 84 236 79 282 c 128,-1,65
 74 328 74 328 74 375 c 1,0,1
383 1012 m 0,66,67
 383 953 383 953 419 909.5 c 128,-1,68
 455 866 455 866 522 831 c 1,69,-1
 565 1190 l 1,70,71
 473 1184 473 1184 428 1133.5 c 128,-1,72
 383 1083 383 1083 383 1012 c 0,66,67
532 94 m 1,73,74
 636 102 636 102 685.5 156.5 c 128,-1,75
 735 211 735 211 735 295 c 0,76,77
 735 361 735 361 699.5 418 c 128,-1,78
 664 475 664 475 582 518 c 1,79,-1
 532 94 l 1,73,74
EndSplineSet
Validated: 1
EndChar

StartChar: percent
Encoding: 15 37 15
Width: 1773
Flags: W
LayerCount: 2
Fore
SplineSet
88 913 m 128,-1,1
 88 974 88 974 105.5 1044 c 128,-1,2
 123 1114 123 1114 162 1173.5 c 128,-1,3
 201 1233 201 1233 264.5 1272 c 128,-1,4
 328 1311 328 1311 418 1311 c 128,-1,5
 508 1311 508 1311 571.5 1272 c 128,-1,6
 635 1233 635 1233 674 1173.5 c 128,-1,7
 713 1114 713 1114 730.5 1044.5 c 128,-1,8
 748 975 748 975 748 913 c 0,9,10
 748 852 748 852 730.5 782.5 c 128,-1,11
 713 713 713 713 674 653.5 c 128,-1,12
 635 594 635 594 571.5 555 c 128,-1,13
 508 516 508 516 418 516 c 128,-1,14
 328 516 328 516 264.5 555 c 128,-1,15
 201 594 201 594 162 653.5 c 128,-1,16
 123 713 123 713 105.5 782.5 c 128,-1,0
 88 852 88 852 88 913 c 128,-1,1
291 915 m 0,17,18
 291 874 291 874 295 819 c 128,-1,19
 299 764 299 764 313.5 715 c 128,-1,20
 328 666 328 666 353.5 632 c 128,-1,21
 379 598 379 598 422 598 c 128,-1,22
 465 598 465 598 489.5 633 c 128,-1,23
 514 668 514 668 526.5 717 c 128,-1,24
 539 766 539 766 542 820 c 128,-1,25
 545 874 545 874 545 915 c 0,26,27
 545 954 545 954 542 1008.5 c 128,-1,28
 539 1063 539 1063 526.5 1112 c 128,-1,29
 514 1161 514 1161 489.5 1195 c 128,-1,30
 465 1229 465 1229 422 1229 c 128,-1,31
 379 1229 379 1229 353.5 1196 c 128,-1,32
 328 1163 328 1163 313.5 1115 c 128,-1,33
 299 1067 299 1067 295 1012.5 c 128,-1,34
 291 958 291 958 291 915 c 0,17,18
457 -33 m 1,35,36
 650 311 650 311 839 653 c 128,-1,37
 1028 995 1028 995 1214 1339 c 1,38,39
 1237 1343 1237 1343 1267.5 1330 c 128,-1,40
 1298 1317 1298 1317 1307 1290 c 1,41,42
 1114 946 1114 946 924.5 604 c 128,-1,43
 735 262 735 262 549 -82 c 1,44,45
 520 -88 520 -88 493.5 -73.5 c 128,-1,46
 467 -59 467 -59 457 -33 c 1,35,36
1028 373 m 0,47,48
 1028 434 1028 434 1045.5 503.5 c 128,-1,49
 1063 573 1063 573 1102 632.5 c 128,-1,50
 1141 692 1141 692 1204.5 731 c 128,-1,51
 1268 770 1268 770 1358 770 c 128,-1,52
 1448 770 1448 770 1511.5 731 c 128,-1,53
 1575 692 1575 692 1614 632.5 c 128,-1,54
 1653 573 1653 573 1670.5 503.5 c 128,-1,55
 1688 434 1688 434 1688 373 c 128,-1,56
 1688 312 1688 312 1670.5 242 c 128,-1,57
 1653 172 1653 172 1614 112.5 c 128,-1,58
 1575 53 1575 53 1511.5 14 c 128,-1,59
 1448 -25 1448 -25 1358 -25 c 128,-1,60
 1268 -25 1268 -25 1204.5 14 c 128,-1,61
 1141 53 1141 53 1102 112.5 c 128,-1,62
 1063 172 1063 172 1045.5 241.5 c 128,-1,63
 1028 311 1028 311 1028 373 c 0,47,48
1231 375 m 0,64,65
 1231 334 1231 334 1235 278.5 c 128,-1,66
 1239 223 1239 223 1253.5 174 c 128,-1,67
 1268 125 1268 125 1293.5 91 c 128,-1,68
 1319 57 1319 57 1362 57 c 128,-1,69
 1405 57 1405 57 1429.5 92 c 128,-1,70
 1454 127 1454 127 1466.5 176 c 128,-1,71
 1479 225 1479 225 1482 279.5 c 128,-1,72
 1485 334 1485 334 1485 375 c 0,73,74
 1485 414 1485 414 1482 468 c 128,-1,75
 1479 522 1479 522 1466.5 571.5 c 128,-1,76
 1454 621 1454 621 1429.5 654.5 c 128,-1,77
 1405 688 1405 688 1362 688 c 128,-1,78
 1319 688 1319 688 1293.5 655.5 c 128,-1,79
 1268 623 1268 623 1253.5 574.5 c 128,-1,80
 1239 526 1239 526 1235 472 c 128,-1,81
 1231 418 1231 418 1231 375 c 0,64,65
EndSplineSet
Validated: 1
EndChar

StartChar: ampersand
Encoding: 16 38 16
Width: 1214
Flags: WO
LayerCount: 2
Fore
SplineSet
483 809 m 1,0,1
 536 789 536 789 576 789 c 0,2,3
 590 789 590 789 603 789 c 0,4,5
 619 789 619 789 630 790 c 0,6,7
 642 790 642 790 652 790 c 0,8,9
 660 790 660 790 668 790 c 0,10,11
 675 790 675 790 675 790 c 2,12,-1
 733 790 l 1,13,-1
 733 855 l 1,14,-1
 712 1073 l 1,15,-1
 752 1056 l 1,16,-1
 797 863 l 1,17,-1
 817 793 l 1,18,-1
 936 791 l 2,19,20
 979 792 979 792 1014 785 c 0,21,22
 1044 779 1044 779 1070 770 c 1,23,24
 1083 758 1083 758 1083 750 c 0,25,26
 1083 745 1083 745 1080 741 c 0,27,28
 1076 736 1076 736 1073 733 c 2,29,-1
 1070 730 l 1,30,31
 1042 720 1042 720 1014 715 c 0,32,33
 971 708 971 708 936 709 c 2,34,-1
 817 709 l 1,35,-1
 797 632 l 1,36,-1
 751 443 l 1,37,-1
 712 426 l 1,38,-1
 732 644 l 1,39,-1
 732 708 l 1,40,-1
 677 708 l 1,41,-1
 675 708 l 2,42,43
 675 708 675 708 657 709 c 0,44,45
 643 710 643 710 615 711 c 0,46,47
 592 712 592 712 578 712 c 0,48,49
 535 712 535 712 481 692 c 1,50,51
 480 670 480 670 480 648 c 0,52,53
 479 627 479 627 479 617 c 0,54,55
 479 606 479 606 479 606 c 0,56,57
 486 508 486 508 482 362 c 0,58,59
 481 332 481 332 486 272 c 0,60,61
 490 218 490 218 491 202 c 0,62,63
 492 176 492 176 519 160 c 0,64,65
 535 150 535 150 578 148 c 0,66,67
 607 146 607 146 685 151 c 0,68,69
 794 157 794 157 891 188 c 0,70,71
 911 194 911 194 929 206 c 0,72,73
 944 216 944 216 962 235 c 0,74,75
 964 237 964 237 987 264 c 0,76,77
 1013 294 1013 294 1013 299 c 0,78,79
 1013 300 1013 300 1015 302 c 0,80,81
 1016 303 1016 303 1017 305 c 0,82,83
 1019 307 1019 307 1019 307 c 0,84,85
 1040 338 1040 338 1047 346 c 0,86,87
 1061 363 1061 363 1071 375 c 0,88,89
 1086 392 1086 392 1093 397 c 0,90,91
 1103 404 1103 404 1109 404 c 0,92,93
 1113 404 1113 404 1118 400 c 0,94,95
 1122 397 1122 397 1124 390 c 128,-1,96
 1126 383 1126 383 1127 376 c 0,97,98
 1129 369 1129 369 1129 360 c 0,99,100
 1129 350 1129 350 1129 344 c 0,101,102
 1129 337 1129 337 1129 330 c 0,103,104
 1129 321 1129 321 1129 321 c 0,105,106
 1128 309 1128 309 1126 297 c 0,107,108
 1121 268 1121 268 1116 250 c 0,109,110
 1114 243 1114 243 1097 192 c 0,111,112
 1088 166 1088 166 1069 134 c 0,113,114
 1051 104 1051 104 1030 87 c 1,115,116
 1024 73 1024 73 993 57 c 0,117,118
 961 40 961 40 952 39 c 0,119,120
 938 37 938 37 782 36 c 0,121,122
 766 36 766 36 471 38 c 0,123,124
 333 39 333 39 298 39 c 0,125,126
 268 40 268 40 181 38 c 0,127,128
 111 37 111 37 102 37 c 0,129,130
 79 38 79 38 76 39 c 0,131,132
 65 42 65 42 55 52 c 0,133,134
 47 60 47 60 45 70 c 0,135,136
 43 81 43 81 48 90 c 0,137,138
 54 100 54 100 71 110 c 128,-1,139
 88 120 88 120 116 126 c 1,140,141
 146 137 146 137 159 151 c 0,142,143
 174 167 174 167 183 196 c 0,144,145
 192 226 192 226 192 274 c 2,146,-1
 192 735 l 2,147,148
 192 866 192 866 192 866 c 0,149,150
 192 936 192 936 192 974 c 0,151,152
 192 1013 192 1013 192 1053 c 0,153,154
 192 1117 192 1117 192 1117 c 0,155,156
 191 1147 191 1147 190 1159 c 0,157,158
 188 1193 188 1193 184 1207 c 0,159,160
 179 1226 179 1226 168 1244 c 0,161,162
 157 1263 157 1263 136 1274 c 0,163,164
 116 1285 116 1285 82 1290 c 128,-1,165
 48 1295 48 1295 29 1306 c 0,166,167
 12 1316 12 1316 13 1332 c 0,168,169
 14 1345 14 1345 35 1354 c 0,170,171
 57 1363 57 1363 80 1363 c 0,172,173
 134 1363 134 1363 284 1360 c 128,-1,174
 434 1357 434 1357 488 1357 c 2,175,-1
 800 1357 l 2,176,177
 824 1357 824 1357 849 1357 c 0,178,179
 883 1357 883 1357 900 1357 c 128,-1,180
 917 1357 917 1357 940 1356 c 0,181,182
 963 1356 963 1356 979 1354 c 1,183,184
 990 1357 990 1357 1007 1353 c 0,185,186
 1025 1349 1025 1349 1029 1339 c 0,187,188
 1035 1324 1035 1324 1036 1279 c 0,189,190
 1037 1253 1037 1253 1035 1176 c 0,191,192
 1034 1126 1034 1126 1034 1112 c 0,193,194
 1034 1096 1034 1096 1034 1096 c 0,195,196
 1035 1085 1035 1085 1035 1077 c 0,197,198
 1036 1069 1036 1069 1034 1059 c 128,-1,199
 1032 1049 1032 1049 1028 1043 c 0,200,201
 1023 1036 1023 1036 1015 1033 c 0,202,203
 1010 1031 1010 1031 994 1031 c 0,204,205
 988 1031 988 1031 982 1033 c 0,206,207
 979 1034 979 1034 976 1037 c 0,208,209
 975 1038 975 1038 972 1048 c 0,210,211
 970 1055 970 1055 969 1064 c 0,212,213
 968 1069 968 1069 964 1091 c 0,214,215
 961 1108 961 1108 956 1127 c 0,216,217
 945 1168 945 1168 934 1189 c 0,218,219
 918 1219 918 1219 906 1230 c 0,220,221
 892 1243 892 1243 872 1253 c 0,222,223
 858 1260 858 1260 838 1265 c 0,224,225
 824 1269 824 1269 807 1269 c 0,226,227
 586 1275 586 1275 514 1267 c 0,228,229
 505 1266 505 1266 505 1266 c 0,230,231
 504 1267 504 1267 495 1263 c 0,232,233
 488 1260 488 1260 486 1254 c 0,234,235
 483 1247 483 1247 484 1236 c 0,236,237
 490 1181 490 1181 483 809 c 1,0,1
EndSplineSet
Validated: 33
EndChar

StartChar: quotesingle
Encoding: 17 39 17
Width: 518
Flags: W
LayerCount: 2
Fore
SplineSet
129 1364 m 0,0,1
 129 1413 129 1413 161.5 1423.5 c 128,-1,2
 194 1434 194 1434 260 1434 c 128,-1,3
 326 1434 326 1434 358.5 1423.5 c 128,-1,4
 391 1413 391 1413 391 1364 c 0,5,6
 391 1348 391 1348 387 1320 c 128,-1,7
 383 1292 383 1292 375 1247 c 2,8,-1
 299 827 l 1,9,10
 283 815 283 815 260.5 815 c 128,-1,11
 238 815 238 815 221 827 c 1,12,-1
 145 1247 l 2,13,14
 137 1292 137 1292 133 1320 c 128,-1,15
 129 1348 129 1348 129 1364 c 0,0,1
EndSplineSet
Validated: 1
EndChar

StartChar: parenleft
Encoding: 18 40 18
Width: 696
Flags: W
LayerCount: 2
Fore
SplineSet
172 553 m 128,-1,1
 172 684 172 684 200.5 814 c 128,-1,2
 229 944 229 944 286.5 1062 c 128,-1,3
 344 1180 344 1180 432 1277 c 128,-1,4
 520 1374 520 1374 641 1440 c 1,5,6
 659 1438 659 1438 667.5 1426.5 c 128,-1,7
 676 1415 676 1415 676 1401 c 1,8,9
 592 1327 592 1327 534.5 1226.5 c 128,-1,10
 477 1126 477 1126 440 1013.5 c 128,-1,11
 403 901 403 901 387 782.5 c 128,-1,12
 371 664 371 664 371 553 c 128,-1,13
 371 442 371 442 387 323.5 c 128,-1,14
 403 205 403 205 440 92.5 c 128,-1,15
 477 -20 477 -20 534.5 -120.5 c 128,-1,16
 592 -221 592 -221 676 -295 c 1,17,18
 676 -309 676 -309 667.5 -320.5 c 128,-1,19
 659 -332 659 -332 641 -334 c 1,20,21
 520 -268 520 -268 432 -171 c 128,-1,22
 344 -74 344 -74 286.5 44 c 128,-1,23
 229 162 229 162 200.5 292 c 128,-1,0
 172 422 172 422 172 553 c 128,-1,1
EndSplineSet
Validated: 1
EndChar

StartChar: parenright
Encoding: 19 41 19
Width: 696
Flags: W
LayerCount: 2
Fore
SplineSet
20 -295 m 1,0,1
 102 -221 102 -221 160.5 -120.5 c 128,-1,2
 219 -20 219 -20 256 92.5 c 128,-1,3
 293 205 293 205 309.5 323.5 c 128,-1,4
 326 442 326 442 326 553 c 128,-1,5
 326 664 326 664 309.5 782.5 c 128,-1,6
 293 901 293 901 256 1013.5 c 128,-1,7
 219 1126 219 1126 160.5 1226.5 c 128,-1,8
 102 1327 102 1327 20 1401 c 1,9,10
 20 1415 20 1415 28.5 1426.5 c 128,-1,11
 37 1438 37 1438 55 1440 c 1,12,13
 174 1374 174 1374 263 1277 c 128,-1,14
 352 1180 352 1180 409.5 1062 c 128,-1,15
 467 944 467 944 495.5 814 c 128,-1,16
 524 684 524 684 524 553 c 128,-1,17
 524 422 524 422 495.5 292 c 128,-1,18
 467 162 467 162 409.5 44 c 128,-1,19
 352 -74 352 -74 263 -171 c 128,-1,20
 174 -268 174 -268 55 -334 c 1,21,22
 37 -332 37 -332 28.5 -320.5 c 128,-1,23
 20 -309 20 -309 20 -295 c 1,0,1
EndSplineSet
Validated: 1
EndChar

StartChar: asterisk
Encoding: 20 42 20
Width: 829
Flags: W
LayerCount: 2
Fore
SplineSet
70 846 m 1,0,-1
 305 1012 l 1,1,-1
 70 1178 l 1,2,3
 66 1194 66 1194 73 1211.5 c 128,-1,4
 80 1229 80 1229 96 1237 c 1,5,-1
 356 1104 l 1,6,-1
 383 1376 l 1,7,8
 395 1384 395 1384 415.5 1384 c 128,-1,9
 436 1384 436 1384 446 1376 c 1,10,-1
 473 1104 l 1,11,-1
 727 1239 l 1,12,13
 743 1235 743 1235 753.5 1216.5 c 128,-1,14
 764 1198 764 1198 760 1176 c 1,15,-1
 526 1012 l 1,16,-1
 758 852 l 1,17,18
 762 834 762 834 753.5 815.5 c 128,-1,19
 745 797 745 797 729 788 c 1,20,-1
 473 920 l 1,21,-1
 446 649 l 1,22,23
 436 641 436 641 414.5 641 c 128,-1,24
 393 641 393 641 383 649 c 1,25,-1
 356 920 l 1,26,-1
 96 788 l 1,27,28
 80 794 80 794 73 811.5 c 128,-1,29
 66 829 66 829 70 846 c 1,0,-1
EndSplineSet
Validated: 1
EndChar

StartChar: plus
Encoding: 21 43 21
Width: 1064
LayerCount: 2
Fore
SplineSet
123 362 m 1,0,-1
 123 510 l 1,1,-1
 444 510 l 1,2,-1
 444 836 l 1,3,-1
 625 836 l 1,4,-1
 625 510 l 1,5,-1
 944 510 l 1,6,-1
 944 362 l 1,7,-1
 625 362 l 1,8,-1
 625 0 l 1,9,-1
 444 0 l 1,10,-1
 444 362 l 1,11,-1
 123 362 l 1,0,-1
EndSplineSet
Validated: 1
EndChar

StartChar: comma
Encoding: 22 44 22
Width: 532
Flags: W
LayerCount: 2
Fore
SplineSet
79 -229.5 m 128,-1,1
 82 -219 82 -219 90 -213 c 0,2,3
 119 -203 119 -203 151.5 -184.5 c 128,-1,4
 184 -166 184 -166 211 -140.5 c 128,-1,5
 238 -115 238 -115 255 -83 c 128,-1,6
 272 -51 272 -51 272 -14 c 0,7,8
 272 19 272 19 261 42.5 c 128,-1,9
 250 66 250 66 232.5 81 c 128,-1,10
 215 96 215 96 193.5 104.5 c 128,-1,11
 172 113 172 113 154 119 c 0,12,13
 127 127 127 127 108.5 151.5 c 128,-1,14
 90 176 90 176 90 211 c 0,15,16
 90 266 90 266 133.5 305 c 128,-1,17
 177 344 177 344 238 344 c 0,18,19
 271 344 271 344 307.5 329.5 c 128,-1,20
 344 315 344 315 376 283.5 c 128,-1,21
 408 252 408 252 428.5 202 c 128,-1,22
 449 152 449 152 449 80 c 0,23,24
 449 4 449 4 421 -55.5 c 128,-1,25
 393 -115 393 -115 347 -160 c 128,-1,26
 301 -205 301 -205 239.5 -234.5 c 128,-1,27
 178 -264 178 -264 113 -279 c 1,28,29
 99 -277 99 -277 90.5 -268.5 c 128,-1,30
 82 -260 82 -260 79 -250 c 128,-1,0
 76 -240 76 -240 79 -229.5 c 128,-1,1
EndSplineSet
Validated: 1
EndChar

StartChar: hyphen
Encoding: 23 45 23
Width: 671
Flags: W
LayerCount: 2
Fore
SplineSet
61 401 m 0,0,1
 61 430 61 430 70.5 449.5 c 128,-1,2
 80 469 80 469 92 485 c 1,3,-1
 582 530 l 1,4,5
 611 497 611 497 610 444 c 0,6,7
 610 424 610 424 603 402.5 c 128,-1,8
 596 381 596 381 584 365 c 1,9,-1
 92 319 l 1,10,11
 80 331 80 331 70.5 352 c 128,-1,12
 61 373 61 373 61 401 c 0,0,1
EndSplineSet
Validated: 33
EndChar

StartChar: period
Encoding: 24 46 24
Width: 532
Flags: W
LayerCount: 2
Fore
SplineSet
100 137 m 0,0,1
 100 209 100 209 148.5 258 c 128,-1,2
 197 307 197 307 266 307 c 0,3,4
 303 307 303 307 334 293 c 128,-1,5
 365 279 365 279 386.5 255 c 128,-1,6
 408 231 408 231 420 200.5 c 128,-1,7
 432 170 432 170 432 137 c 0,8,9
 432 65 432 65 386 18 c 128,-1,10
 340 -29 340 -29 266 -29 c 0,11,12
 235 -29 235 -29 205.5 -16.5 c 128,-1,13
 176 -4 176 -4 152.5 17.5 c 128,-1,14
 129 39 129 39 114.5 69.5 c 128,-1,15
 100 100 100 100 100 137 c 0,0,1
EndSplineSet
Validated: 1
EndChar

StartChar: slash
Encoding: 25 47 25
Width: 694
Flags: W
LayerCount: 2
Fore
SplineSet
41 -33 m 1,0,-1
 469 1384 l 1,1,-1
 653 1384 l 1,2,-1
 225 -33 l 1,3,-1
 41 -33 l 1,0,-1
EndSplineSet
Validated: 1
EndChar

StartChar: zero
Encoding: 26 48 26
Width: 1064
LayerCount: 2
Fore
SplineSet
59 641 m 0,0,1
 59 760 59 760 87 879.5 c 128,-1,2
 115 999 115 999 172 1094.5 c 128,-1,3
 229 1190 229 1190 318 1250.5 c 128,-1,4
 407 1311 407 1311 532 1311 c 128,-1,5
 657 1311 657 1311 746.5 1250.5 c 128,-1,6
 836 1190 836 1190 893 1094.5 c 128,-1,7
 950 999 950 999 978 879.5 c 128,-1,8
 1006 760 1006 760 1006 641 c 0,9,10
 1006 518 1006 518 978 397 c 128,-1,11
 950 276 950 276 893 182 c 128,-1,12
 836 88 836 88 746.5 29.5 c 128,-1,13
 657 -29 657 -29 532 -29 c 128,-1,14
 407 -29 407 -29 318 29.5 c 128,-1,15
 229 88 229 88 172 182 c 128,-1,16
 115 276 115 276 87 397 c 128,-1,17
 59 518 59 518 59 641 c 0,0,1
358 641 m 128,-1,19
 358 596 358 596 360 535.5 c 128,-1,20
 362 475 362 475 368.5 410.5 c 128,-1,21
 375 346 375 346 387 284.5 c 128,-1,22
 399 223 399 223 418.5 174 c 128,-1,23
 438 125 438 125 466 95.5 c 128,-1,24
 494 66 494 66 532 66 c 0,25,26
 571 66 571 66 599 95.5 c 128,-1,27
 627 125 627 125 646.5 174 c 128,-1,28
 666 223 666 223 678 284.5 c 128,-1,29
 690 346 690 346 696 410.5 c 128,-1,30
 702 475 702 475 704.5 535.5 c 128,-1,31
 707 596 707 596 707 641 c 128,-1,32
 707 686 707 686 704.5 746.5 c 128,-1,33
 702 807 702 807 696 871.5 c 128,-1,34
 690 936 690 936 678 997.5 c 128,-1,35
 666 1059 666 1059 646.5 1108 c 128,-1,36
 627 1157 627 1157 599 1187 c 128,-1,37
 571 1217 571 1217 532 1217 c 128,-1,38
 493 1217 493 1217 465.5 1187 c 128,-1,39
 438 1157 438 1157 418.5 1108 c 128,-1,40
 399 1059 399 1059 387 997.5 c 128,-1,41
 375 936 375 936 368.5 871.5 c 128,-1,42
 362 807 362 807 360 746.5 c 128,-1,18
 358 686 358 686 358 641 c 128,-1,19
EndSplineSet
Validated: 1
EndChar

StartChar: one
Encoding: 27 49 27
Width: 1064
LayerCount: 2
Fore
SplineSet
197 27.5 m 128,-1,1
 197 39 197 39 200 50 c 128,-1,2
 203 61 203 61 209 66 c 1,3,-1
 293 72 l 2,4,5
 330 74 330 74 352.5 82 c 128,-1,6
 375 90 375 90 387 109.5 c 128,-1,7
 399 129 399 129 402.5 166 c 128,-1,8
 406 203 406 203 406 264 c 2,9,-1
 406 934 l 2,10,11
 406 985 406 985 402.5 1017 c 128,-1,12
 399 1049 399 1049 390 1069.5 c 128,-1,13
 381 1090 381 1090 360.5 1099 c 128,-1,14
 340 1108 340 1108 307 1112 c 2,15,-1
 213 1124 l 1,16,17
 199 1132 199 1132 198 1159 c 128,-1,18
 197 1186 197 1186 209 1196 c 1,19,20
 272 1206 272 1206 341 1221.5 c 128,-1,21
 410 1237 410 1237 471 1253 c 0,22,23
 539 1273 539 1273 591 1296 c 128,-1,24
 643 1319 643 1319 653 1319 c 0,25,26
 661 1319 661 1319 669.5 1314 c 128,-1,27
 678 1309 678 1309 682 1296 c 1,28,29
 678 1261 678 1261 677 1195.5 c 128,-1,30
 676 1130 676 1130 676 1053 c 2,31,-1
 676 264 l 2,32,33
 676 203 676 203 679 166 c 128,-1,34
 682 129 682 129 694.5 109.5 c 128,-1,35
 707 90 707 90 729.5 82 c 128,-1,36
 752 74 752 74 788 72 c 2,37,-1
 872 66 l 2,38,39
 878 62 878 62 881.5 50.5 c 128,-1,40
 885 39 885 39 885 27.5 c 128,-1,41
 885 16 885 16 881 6 c 128,-1,42
 877 -4 877 -4 868 -6 c 0,43,44
 813 -2 813 -2 727 -1 c 128,-1,45
 641 0 641 0 545 0 c 0,46,47
 443 0 443 0 355.5 -1 c 128,-1,48
 268 -2 268 -2 213 -6 c 0,49,50
 205 -4 205 -4 201 6 c 128,-1,0
 197 16 197 16 197 27.5 c 128,-1,1
EndSplineSet
Validated: 1
EndChar

StartChar: two
Encoding: 28 50 28
Width: 1064
LayerCount: 2
Fore
SplineSet
41 39 m 1,0,1
 100 92 100 92 183 172 c 128,-1,2
 266 252 266 252 358 354 c 0,3,4
 411 411 411 411 459.5 474 c 128,-1,5
 508 537 508 537 545 604.5 c 128,-1,6
 582 672 582 672 604.5 745.5 c 128,-1,7
 627 819 627 819 627 901 c 0,8,9
 627 1007 627 1007 567.5 1079 c 128,-1,10
 508 1151 508 1151 403 1151 c 0,11,12
 315 1151 315 1151 251.5 1100 c 128,-1,13
 188 1049 188 1049 139 963 c 1,14,15
 121 951 121 951 98.5 959 c 128,-1,16
 76 967 76 967 72 991 c 1,17,18
 135 1147 135 1147 264 1229 c 128,-1,19
 393 1311 393 1311 543 1311 c 0,20,21
 633 1311 633 1311 704.5 1283 c 128,-1,22
 776 1255 776 1255 826.5 1208 c 128,-1,23
 877 1161 877 1161 903.5 1097.5 c 128,-1,24
 930 1034 930 1034 930 963 c 0,25,26
 930 904 930 904 916.5 849.5 c 128,-1,27
 903 795 903 795 867 736.5 c 128,-1,28
 831 678 831 678 772 610.5 c 128,-1,29
 713 543 713 543 621 457 c 2,30,-1
 522 365 l 2,31,32
 454 302 454 302 434 275 c 128,-1,33
 414 248 414 248 414 236 c 0,34,35
 414 226 414 226 422 218.5 c 128,-1,36
 430 211 430 211 453 211 c 2,37,-1
 700 211 l 2,38,39
 755 211 755 211 791 213 c 128,-1,40
 827 215 827 215 850.5 226.5 c 128,-1,41
 874 238 874 238 892.5 260.5 c 128,-1,42
 911 283 911 283 934 324 c 0,43,44
 944 334 944 334 970.5 333 c 128,-1,45
 997 332 997 332 1004 311 c 1,46,47
 998 264 998 264 985.5 215 c 128,-1,48
 973 166 973 166 959.5 123 c 128,-1,49
 946 80 946 80 930.5 46 c 128,-1,50
 915 12 915 12 903 -6 c 1,51,52
 842 -2 842 -2 778.5 -1 c 128,-1,53
 715 0 715 0 616 0 c 2,54,-1
 291 0 l 2,55,56
 211 0 211 0 149.5 -1 c 128,-1,57
 88 -2 88 -2 61 -6 c 1,58,59
 47 -2 47 -2 42 11.5 c 128,-1,60
 37 25 37 25 41 39 c 1,0,1
EndSplineSet
Validated: 1
EndChar

StartChar: three
Encoding: 29 51 29
Width: 1064
LayerCount: 2
Fore
SplineSet
55 31 m 0,0,1
 55 72 55 72 86 107.5 c 128,-1,2
 117 143 117 143 178 143 c 0,3,4
 205 143 205 143 227.5 130 c 128,-1,5
 250 117 250 117 267.5 99.5 c 128,-1,6
 285 82 285 82 297 63.5 c 128,-1,7
 309 45 309 45 315 35 c 0,8,9
 333 6 333 6 357 -3 c 128,-1,10
 381 -12 381 -12 403 -12 c 0,11,12
 436 -12 436 -12 483 10.5 c 128,-1,13
 530 33 530 33 573 78 c 128,-1,14
 616 123 616 123 647 192.5 c 128,-1,15
 678 262 678 262 678 356 c 0,16,17
 678 493 678 493 613.5 581.5 c 128,-1,18
 549 670 549 670 438 670 c 0,19,20
 375 670 375 670 324.5 644 c 128,-1,21
 274 618 274 618 236 584 c 1,22,23
 205 590 205 590 189.5 618.5 c 128,-1,24
 174 647 174 647 188 682 c 1,25,26
 219 694 219 694 263 711.5 c 128,-1,27
 307 729 307 729 353 750.5 c 128,-1,28
 399 772 399 772 443 797.5 c 128,-1,29
 487 823 487 823 518 848 c 0,30,31
 547 871 547 871 575.5 917 c 128,-1,32
 604 963 604 963 604 1032 c 0,33,34
 604 1089 604 1089 558 1135.5 c 128,-1,35
 512 1182 512 1182 436 1182 c 0,36,37
 362 1182 362 1182 296.5 1131.5 c 128,-1,38
 231 1081 231 1081 184 1012 c 1,39,40
 161 1006 161 1006 144 1019 c 128,-1,41
 127 1032 127 1032 127 1051 c 1,42,43
 188 1176 188 1176 302 1243.5 c 128,-1,44
 416 1311 416 1311 555 1311 c 0,45,46
 707 1311 707 1311 794 1245.5 c 128,-1,47
 881 1180 881 1180 881 1075 c 0,48,49
 881 1044 881 1044 871.5 1012.5 c 128,-1,50
 862 981 862 981 834.5 948 c 128,-1,51
 807 915 807 915 757 881.5 c 128,-1,52
 707 848 707 848 623 811 c 0,53,54
 607 803 607 803 614 793.5 c 128,-1,55
 621 784 621 784 641 784 c 0,56,57
 711 786 711 786 773.5 764.5 c 128,-1,58
 836 743 836 743 883 701 c 128,-1,59
 930 659 930 659 957.5 600 c 128,-1,60
 985 541 985 541 985 467 c 0,61,62
 985 356 985 356 928.5 248.5 c 128,-1,63
 872 141 872 141 750 49 c 0,64,65
 684 2 684 2 617.5 -29.5 c 128,-1,66
 551 -61 551 -61 488.5 -79.5 c 128,-1,67
 426 -98 426 -98 371.5 -106.5 c 128,-1,68
 317 -115 317 -115 276 -115 c 128,-1,69
 235 -115 235 -115 195.5 -106.5 c 128,-1,70
 156 -98 156 -98 125 -80.5 c 128,-1,71
 94 -63 94 -63 74.5 -35.5 c 128,-1,72
 55 -8 55 -8 55 31 c 0,0,1
EndSplineSet
Validated: 33
EndChar

StartChar: four
Encoding: 30 52 30
Width: 1064
LayerCount: 2
Fore
SplineSet
23.5 407.5 m 128,-1,1
 18 426 18 426 25 446 c 1,2,-1
 690 1397 l 2,3,4
 706 1422 706 1422 720.5 1434 c 128,-1,5
 735 1446 735 1446 758 1446 c 2,6,-1
 817 1446 l 2,7,8
 844 1446 844 1446 852 1433.5 c 128,-1,9
 860 1421 860 1421 838 1391 c 2,10,-1
 223 539 l 2,11,12
 209 519 209 519 214 507.5 c 128,-1,13
 219 496 219 496 268 496 c 2,14,-1
 520 496 l 2,15,16
 553 496 553 496 560 505 c 128,-1,17
 567 514 567 514 567 555 c 2,18,-1
 567 842 l 2,19,20
 567 877 567 877 577.5 891 c 128,-1,21
 588 905 588 905 612 915 c 0,22,23
 632 923 632 923 661 934.5 c 128,-1,24
 690 946 690 946 719 955.5 c 128,-1,25
 748 965 748 965 773.5 972 c 128,-1,26
 799 979 799 979 811 979 c 0,27,28
 838 979 838 979 838 944 c 2,29,-1
 838 555 l 2,30,31
 838 514 838 514 845 505 c 128,-1,32
 852 496 852 496 885 496 c 2,33,-1
 1020 496 l 1,34,35
 1032 490 1032 490 1037 473.5 c 128,-1,36
 1042 457 1042 457 1042 438.5 c 128,-1,37
 1042 420 1042 420 1037 403.5 c 128,-1,38
 1032 387 1032 387 1020 381 c 1,39,-1
 885 381 l 2,40,41
 852 381 852 381 845 371.5 c 128,-1,42
 838 362 838 362 838 322 c 2,43,-1
 838 264 l 2,44,45
 838 201 838 201 841 164 c 128,-1,46
 844 127 844 127 855 106.5 c 128,-1,47
 866 86 866 86 885.5 79 c 128,-1,48
 905 72 905 72 940 70 c 2,49,-1
 983 66 l 2,50,51
 989 62 989 62 992 50.5 c 128,-1,52
 995 39 995 39 995 27.5 c 128,-1,53
 995 16 995 16 991 6 c 128,-1,54
 987 -4 987 -4 979 -6 c 0,55,56
 924 -2 924 -2 849 -1 c 128,-1,57
 774 0 774 0 702 0 c 0,58,59
 600 0 600 0 514 -1 c 128,-1,60
 428 -2 428 -2 375 -6 c 0,61,62
 367 -4 367 -4 362.5 6 c 128,-1,63
 358 16 358 16 358 27.5 c 128,-1,64
 358 39 358 39 361.5 50 c 128,-1,65
 365 61 365 61 371 66 c 1,66,-1
 455 72 l 2,67,68
 492 74 492 74 514.5 81 c 128,-1,69
 537 88 537 88 549 107.5 c 128,-1,70
 561 127 561 127 564 164 c 128,-1,71
 567 201 567 201 567 264 c 2,72,-1
 567 322 l 2,73,74
 567 363 567 363 560 372 c 128,-1,75
 553 381 553 381 520 381 c 2,76,-1
 47 381 l 1,77,0
 29 389 29 389 23.5 407.5 c 128,-1,1
EndSplineSet
Validated: 1
EndChar

StartChar: five
Encoding: 31 53 31
Width: 1064
LayerCount: 2
Fore
SplineSet
81 -87 m 128,-1,1
 80 -72 80 -72 83 -57.5 c 128,-1,2
 86 -43 86 -43 96 -37 c 1,3,4
 151 -35 151 -35 208.5 -27.5 c 128,-1,5
 266 -20 266 -20 320.5 -9 c 128,-1,6
 375 2 375 2 422 17.5 c 128,-1,7
 469 33 469 33 506 55 c 0,8,9
 598 108 598 108 647 178 c 128,-1,10
 696 248 696 248 696 332 c 0,11,12
 696 443 696 443 645 507 c 128,-1,13
 594 571 594 571 517 606 c 128,-1,14
 440 641 440 641 350 653.5 c 128,-1,15
 260 666 260 666 184 672 c 0,16,17
 135 676 135 676 124 691.5 c 128,-1,18
 113 707 113 707 123 741 c 2,19,-1
 246 1212 l 2,20,21
 256 1251 256 1251 272.5 1259.5 c 128,-1,22
 289 1268 289 1268 338 1274 c 2,23,-1
 881 1339 l 2,24,25
 904 1339 904 1339 903 1315 c 1,26,27
 889 1256 889 1256 859 1198.5 c 128,-1,28
 829 1141 829 1141 791 1104 c 1,29,-1
 328 1053 l 2,30,31
 305 1049 305 1049 296 1034.5 c 128,-1,32
 287 1020 287 1020 281 993 c 2,33,-1
 268 946 l 2,34,35
 258 911 258 911 275.5 901 c 128,-1,36
 293 891 293 891 324 887 c 0,37,38
 365 883 365 883 418 874.5 c 128,-1,39
 471 866 471 866 528.5 854 c 128,-1,40
 586 842 586 842 641 825.5 c 128,-1,41
 696 809 696 809 741 786 c 0,42,43
 827 743 827 743 892.5 657 c 128,-1,44
 958 571 958 571 958 444 c 0,45,46
 958 364 958 364 935.5 297.5 c 128,-1,47
 913 231 913 231 874.5 177 c 128,-1,48
 836 123 836 123 781.5 80 c 128,-1,49
 727 37 727 37 664 2 c 128,-1,50
 601 -33 601 -33 530 -57.5 c 128,-1,51
 459 -82 459 -82 387 -98.5 c 128,-1,52
 315 -115 315 -115 243.5 -123 c 128,-1,53
 172 -131 172 -131 109 -133 c 1,54,55
 97 -127 97 -127 89.5 -114.5 c 128,-1,0
 82 -102 82 -102 81 -87 c 128,-1,1
EndSplineSet
Validated: 1
EndChar

StartChar: six
Encoding: 32 54 32
Width: 1064
LayerCount: 2
Fore
SplineSet
59 520 m 0,0,1
 59 694 59 694 132 857 c 128,-1,2
 205 1020 205 1020 328 1139 c 0,3,4
 387 1196 387 1196 462 1245 c 128,-1,5
 537 1294 537 1294 621 1331 c 128,-1,6
 705 1368 705 1368 796 1391.5 c 128,-1,7
 887 1415 887 1415 979 1419 c 1,8,9
 995 1409 995 1409 998 1387.5 c 128,-1,10
 1001 1366 1001 1366 985 1348 c 1,11,12
 891 1325 891 1325 821.5 1297.5 c 128,-1,13
 752 1270 752 1270 697.5 1235 c 128,-1,14
 643 1200 643 1200 599 1157 c 128,-1,15
 555 1114 555 1114 512 1061 c 0,16,17
 430 959 430 959 394 820.5 c 128,-1,18
 358 682 358 682 358 539 c 0,19,20
 358 457 358 457 371.5 373 c 128,-1,21
 385 289 385 289 412.5 220.5 c 128,-1,22
 440 152 440 152 483 109 c 128,-1,23
 526 66 526 66 584 66 c 0,24,25
 629 66 629 66 659.5 88.5 c 128,-1,26
 690 111 690 111 707.5 145.5 c 128,-1,27
 725 180 725 180 732 220 c 128,-1,28
 739 260 739 260 739 297 c 0,29,30
 739 348 739 348 728 415.5 c 128,-1,31
 717 483 717 483 689.5 543.5 c 128,-1,32
 662 604 662 604 616.5 645 c 128,-1,33
 571 686 571 686 506 686 c 0,34,35
 496 688 496 688 484.5 687 c 128,-1,36
 473 686 473 686 459 684 c 1,37,38
 441 696 441 696 444 721 c 1,39,40
 458 737 458 737 482 753.5 c 128,-1,41
 506 770 506 770 533.5 782.5 c 128,-1,42
 561 795 561 795 592 803 c 128,-1,43
 623 811 623 811 649 811 c 0,44,45
 743 811 743 811 813 778 c 128,-1,46
 883 745 883 745 929 691 c 128,-1,47
 975 637 975 637 996.5 567.5 c 128,-1,48
 1018 498 1018 498 1018 424 c 0,49,50
 1018 324 1018 324 985 241 c 128,-1,51
 952 158 952 158 890.5 97.5 c 128,-1,52
 829 37 829 37 742 4 c 128,-1,53
 655 -29 655 -29 549 -29 c 0,54,55
 432 -29 432 -29 341 12 c 128,-1,56
 250 53 250 53 187.5 126 c 128,-1,57
 125 199 125 199 92 299 c 128,-1,58
 59 399 59 399 59 520 c 0,0,1
EndSplineSet
Validated: 1
EndChar

StartChar: seven
Encoding: 33 55 33
Width: 1064
LayerCount: 2
Fore
SplineSet
20 981 m 1,0,1
 47 1057 47 1057 66.5 1143 c 128,-1,2
 86 1229 86 1229 100 1288 c 1,3,4
 125 1286 125 1286 148.5 1285 c 128,-1,5
 172 1284 172 1284 199.5 1283 c 128,-1,6
 227 1282 227 1282 262 1282 c 2,7,-1
 346 1282 l 1,8,-1
 739 1282 l 1,9,-1
 836.5 1282 l 1,10,-1
 926 1283 l 1,11,-1
 996.5 1285 l 1,12,-1
 1036 1288 l 1,13,14
 1046 1284 1046 1284 1051.5 1275 c 128,-1,15
 1057 1266 1057 1266 1055 1255 c 1,16,17
 1016 1198 1016 1198 967 1115 c 128,-1,18
 918 1032 918 1032 852 918 c 2,19,-1
 262 -127 l 1,20,21
 235 -131 235 -131 201.5 -114.5 c 128,-1,22
 168 -98 168 -98 164 -63 c 1,23,-1
 702 872 l 2,24,25
 737 931 737 931 753.5 969.5 c 128,-1,26
 770 1008 770 1008 770 1034 c 0,27,28
 770 1054 770 1054 751.5 1060.5 c 128,-1,29
 733 1067 733 1067 711 1067 c 2,30,-1
 276 1067 l 2,31,32
 231 1067 231 1067 203.5 1063 c 128,-1,33
 176 1059 176 1059 156.5 1048.5 c 128,-1,34
 137 1038 137 1038 123 1018.5 c 128,-1,35
 109 999 109 999 90 967 c 0,36,37
 78 953 78 953 52.5 959 c 128,-1,38
 27 965 27 965 20 981 c 1,0,1
EndSplineSet
Validated: 524289
EndChar

StartChar: eight
Encoding: 34 56 34
Width: 1064
LayerCount: 2
Fore
SplineSet
74 303 m 0,0,1
 74 418 74 418 148.5 500 c 128,-1,2
 223 582 223 582 344 643 c 1,3,4
 248 696 248 696 187.5 772 c 128,-1,5
 127 848 127 848 127 958 c 0,6,7
 127 1034 127 1034 156.5 1098.5 c 128,-1,8
 186 1163 186 1163 241.5 1210 c 128,-1,9
 297 1257 297 1257 374 1284 c 128,-1,10
 451 1311 451 1311 547 1311 c 0,11,12
 633 1311 633 1311 705.5 1288.5 c 128,-1,13
 778 1266 778 1266 830.5 1224 c 128,-1,14
 883 1182 883 1182 912.5 1123.5 c 128,-1,15
 942 1065 942 1065 942 991 c 0,16,17
 942 936 942 936 922.5 894 c 128,-1,18
 903 852 903 852 871.5 818 c 128,-1,19
 840 784 840 784 800 757.5 c 128,-1,20
 760 731 760 731 719 709 c 1,21,22
 776 680 776 680 826.5 644 c 128,-1,23
 877 608 877 608 913.5 562 c 128,-1,24
 950 516 950 516 971.5 457.5 c 128,-1,25
 993 399 993 399 993 326 c 0,26,27
 993 254 993 254 964.5 189.5 c 128,-1,28
 936 125 936 125 877.5 77 c 128,-1,29
 819 29 819 29 731 0 c 128,-1,30
 643 -29 643 -29 522 -29 c 0,31,32
 432 -29 432 -29 351 -8.5 c 128,-1,33
 270 12 270 12 208.5 53 c 128,-1,34
 147 94 147 94 110.5 156.5 c 128,-1,35
 74 219 74 219 74 303 c 0,0,1
338 326 m 0,36,37
 338 273 338 273 353.5 224.5 c 128,-1,38
 369 176 369 176 396.5 141 c 128,-1,39
 424 106 424 106 465 86 c 128,-1,40
 506 66 506 66 555 66 c 0,41,42
 623 66 623 66 674 116 c 128,-1,43
 725 166 725 166 725 258 c 0,44,45
 725 379 725 379 647 452.5 c 128,-1,46
 569 526 569 526 442 586 c 1,47,48
 387 531 387 531 362.5 465 c 128,-1,49
 338 399 338 399 338 326 c 0,36,37
377 1026 m 0,50,51
 377 954 377 954 432 889.5 c 128,-1,52
 487 825 487 825 614 772 c 1,53,54
 661 801 661 801 687 861.5 c 128,-1,55
 713 922 713 922 713 995 c 0,56,57
 713 1048 713 1048 697.5 1089 c 128,-1,58
 682 1130 682 1130 658.5 1159 c 128,-1,59
 635 1188 635 1188 604.5 1202.5 c 128,-1,60
 574 1217 574 1217 543 1217 c 0,61,62
 471 1217 471 1217 424 1163.5 c 128,-1,63
 377 1110 377 1110 377 1026 c 0,50,51
EndSplineSet
Validated: 1
EndChar

StartChar: nine
Encoding: 35 57 35
Width: 1064
LayerCount: 2
Fore
SplineSet
57 862 m 0,0,1
 57 960 57 960 92 1042 c 128,-1,2
 127 1124 127 1124 188.5 1184.5 c 128,-1,3
 250 1245 250 1245 333 1278 c 128,-1,4
 416 1311 416 1311 512 1311 c 0,5,6
 629 1311 629 1311 720 1269 c 128,-1,7
 811 1227 811 1227 873.5 1154 c 128,-1,8
 936 1081 936 1081 967.5 986 c 128,-1,9
 999 891 999 891 999 784 c 0,10,11
 999 598 999 598 923.5 440.5 c 128,-1,12
 848 283 848 283 717 162 c 0,13,14
 654 103 654 103 574 51.5 c 128,-1,15
 494 0 494 0 411 -38 c 128,-1,16
 328 -76 328 -76 247 -98.5 c 128,-1,17
 166 -121 166 -121 102 -123 c 1,18,19
 84 -115 84 -115 82 -90.5 c 128,-1,20
 80 -66 80 -66 94 -55 c 1,21,22
 244 -18 244 -18 357.5 61.5 c 128,-1,23
 471 141 471 141 547 249.5 c 128,-1,24
 623 358 623 358 661.5 490.5 c 128,-1,25
 700 623 700 623 700 764 c 0,26,27
 700 821 700 821 690 900 c 128,-1,28
 680 979 680 979 655.5 1048.5 c 128,-1,29
 631 1118 631 1118 589 1167.5 c 128,-1,30
 547 1217 547 1217 483 1217 c 0,31,32
 446 1217 446 1217 418.5 1196.5 c 128,-1,33
 391 1176 391 1176 371.5 1143 c 128,-1,34
 352 1110 352 1110 342 1066 c 128,-1,35
 332 1022 332 1022 332 977 c 0,36,37
 332 914 332 914 344 852.5 c 128,-1,38
 356 791 356 791 383 739.5 c 128,-1,39
 410 688 410 688 447.5 652 c 128,-1,40
 485 616 485 616 539 608 c 0,41,42
 559 604 559 604 570.5 604 c 2,43,-1
 596 604 l 1,44,45
 604 600 604 600 607 586.5 c 128,-1,46
 610 573 610 573 608 561 c 1,47,48
 581 532 581 532 525 515 c 128,-1,49
 469 498 469 498 406 498 c 0,50,51
 334 498 334 498 270.5 525.5 c 128,-1,52
 207 553 207 553 160 602 c 128,-1,53
 113 651 113 651 85 717.5 c 128,-1,54
 57 784 57 784 57 862 c 0,0,1
EndSplineSet
Validated: 524289
EndChar

StartChar: colon
Encoding: 36 58 36
Width: 532
Flags: W
LayerCount: 2
Fore
SplineSet
100 137 m 0,0,1
 100 209 100 209 148.5 258 c 128,-1,2
 197 307 197 307 266 307 c 0,3,4
 303 307 303 307 334 293 c 128,-1,5
 365 279 365 279 386.5 255 c 128,-1,6
 408 231 408 231 420 200.5 c 128,-1,7
 432 170 432 170 432 137 c 0,8,9
 432 65 432 65 386 18 c 128,-1,10
 340 -29 340 -29 266 -29 c 0,11,12
 235 -29 235 -29 205.5 -16.5 c 128,-1,13
 176 -4 176 -4 152.5 17.5 c 128,-1,14
 129 39 129 39 114.5 69.5 c 128,-1,15
 100 100 100 100 100 137 c 0,0,1
100 631 m 0,16,17
 100 707 100 707 148.5 757 c 128,-1,18
 197 807 197 807 266 807 c 0,19,20
 340 807 340 807 386 754.5 c 128,-1,21
 432 702 432 702 432 631 c 0,22,23
 432 561 432 561 386 516 c 128,-1,24
 340 471 340 471 266 471 c 0,25,26
 205 471 205 471 152.5 514 c 128,-1,27
 100 557 100 557 100 631 c 0,16,17
EndSplineSet
Validated: 1
EndChar

StartChar: semicolon
Encoding: 37 59 37
Width: 532
Flags: W
LayerCount: 2
Fore
SplineSet
79 -229.5 m 128,-1,1
 82 -219 82 -219 90 -213 c 0,2,3
 119 -203 119 -203 151.5 -184.5 c 128,-1,4
 184 -166 184 -166 211 -140.5 c 128,-1,5
 238 -115 238 -115 255 -83 c 128,-1,6
 272 -51 272 -51 272 -14 c 0,7,8
 272 19 272 19 261 42.5 c 128,-1,9
 250 66 250 66 232.5 81 c 128,-1,10
 215 96 215 96 193.5 104.5 c 128,-1,11
 172 113 172 113 154 119 c 0,12,13
 127 127 127 127 108.5 151.5 c 128,-1,14
 90 176 90 176 90 211 c 0,15,16
 90 266 90 266 133.5 305 c 128,-1,17
 177 344 177 344 238 344 c 0,18,19
 271 344 271 344 307.5 329.5 c 128,-1,20
 344 315 344 315 376 283.5 c 128,-1,21
 408 252 408 252 428.5 202 c 128,-1,22
 449 152 449 152 449 80 c 0,23,24
 449 4 449 4 421 -55.5 c 128,-1,25
 393 -115 393 -115 347 -160 c 128,-1,26
 301 -205 301 -205 239.5 -234.5 c 128,-1,27
 178 -264 178 -264 113 -279 c 1,28,29
 99 -277 99 -277 90.5 -268.5 c 128,-1,30
 82 -260 82 -260 79 -250 c 128,-1,0
 76 -240 76 -240 79 -229.5 c 128,-1,1
100 631 m 0,31,32
 100 707 100 707 148.5 757 c 128,-1,33
 197 807 197 807 266 807 c 0,34,35
 340 807 340 807 386 754.5 c 128,-1,36
 432 702 432 702 432 631 c 0,37,38
 432 561 432 561 386 516 c 128,-1,39
 340 471 340 471 266 471 c 0,40,41
 205 471 205 471 152.5 514 c 128,-1,42
 100 557 100 557 100 631 c 0,31,32
EndSplineSet
Validated: 1
EndChar

StartChar: less
Encoding: 38 60 38
Width: 1064
LayerCount: 2
Fore
SplineSet
135 362 m 1,0,-1
 135 483 l 1,1,-1
 932 848 l 1,2,-1
 932 678 l 1,3,-1
 346 426 l 1,4,-1
 346 422 l 1,5,-1
 932 168 l 1,6,-1
 932 0 l 1,7,-1
 135 362 l 1,0,-1
EndSplineSet
Validated: 1
EndChar

StartChar: equal
Encoding: 39 61 39
Width: 1064
LayerCount: 2
Fore
SplineSet
123 217 m 1,0,-1
 123 365 l 1,1,-1
 944 365 l 1,2,-1
 944 217 l 1,3,-1
 123 217 l 1,0,-1
123 512 m 1,4,-1
 123 659 l 1,5,-1
 944 659 l 1,6,-1
 944 512 l 1,7,-1
 123 512 l 1,4,-1
EndSplineSet
Validated: 1
EndChar

StartChar: greater
Encoding: 40 62 40
Width: 1064
LayerCount: 2
Fore
SplineSet
135 0 m 1,0,-1
 135 168 l 1,1,-1
 721 422 l 1,2,-1
 721 426 l 1,3,-1
 135 678 l 1,4,-1
 135 848 l 1,5,-1
 932 483 l 1,6,-1
 932 362 l 1,7,-1
 135 0 l 1,0,-1
EndSplineSet
Validated: 1
EndChar

StartChar: question
Encoding: 41 63 41
Width: 679
Flags: W
LayerCount: 2
Fore
SplineSet
82 1196 m 0,0,1
 82 1247 82 1247 121 1285 c 128,-1,2
 160 1323 160 1323 225 1323 c 0,3,4
 295 1323 295 1323 362.5 1289 c 128,-1,5
 430 1255 430 1255 482.5 1198 c 128,-1,6
 535 1141 535 1141 566.5 1065 c 128,-1,7
 598 989 598 989 598 905 c 0,8,9
 598 815 598 815 562 764 c 128,-1,10
 526 713 526 713 469 686 c 2,11,-1
 334 625 l 2,12,13
 250 588 250 588 250 537 c 128,-1,14
 250 486 250 486 270 426 c 1,15,16
 262 412 262 412 238.5 407.5 c 128,-1,17
 215 403 215 403 203 416 c 0,18,19
 191 434 191 434 174.5 461.5 c 128,-1,20
 158 489 158 489 144.5 522 c 128,-1,21
 131 555 131 555 122 590.5 c 128,-1,22
 113 626 113 626 113 657 c 0,23,24
 113 700 113 700 125 730 c 128,-1,25
 137 760 137 760 160.5 782.5 c 128,-1,26
 184 805 184 805 218 823.5 c 128,-1,27
 252 842 252 842 297 860 c 2,28,-1
 393 901 l 2,29,30
 440 921 440 921 466 936.5 c 128,-1,31
 492 952 492 952 492 975 c 0,32,33
 492 1022 492 1022 425 1043.5 c 128,-1,34
 358 1065 358 1065 195 1065 c 0,35,36
 181 1065 181 1065 161 1072 c 128,-1,37
 141 1079 141 1079 123.5 1095.5 c 128,-1,38
 106 1112 106 1112 94 1136.5 c 128,-1,39
 82 1161 82 1161 82 1196 c 0,0,1
102 137 m 0,40,41
 102 209 102 209 150.5 258 c 128,-1,42
 199 307 199 307 268 307 c 0,43,44
 305 307 305 307 336 293 c 128,-1,45
 367 279 367 279 388.5 255 c 128,-1,46
 410 231 410 231 422 200.5 c 128,-1,47
 434 170 434 170 434 137 c 0,48,49
 434 65 434 65 388 18 c 128,-1,50
 342 -29 342 -29 268 -29 c 0,51,52
 237 -29 237 -29 207.5 -16.5 c 128,-1,53
 178 -4 178 -4 154.5 17.5 c 128,-1,54
 131 39 131 39 116.5 69.5 c 128,-1,55
 102 100 102 100 102 137 c 0,40,41
EndSplineSet
Validated: 1
EndChar

StartChar: at
Encoding: 42 64 42
Width: 1574
Flags: W
LayerCount: 2
Fore
SplineSet
82 332 m 0,0,1
 82 510 82 510 149.5 654.5 c 128,-1,2
 217 799 217 799 329.5 899 c 128,-1,3
 442 999 442 999 590.5 1053.5 c 128,-1,4
 739 1108 739 1108 903 1108 c 0,5,6
 1048 1108 1048 1108 1161 1063 c 128,-1,7
 1274 1018 1274 1018 1349.5 941 c 128,-1,8
 1425 864 1425 864 1464 764 c 128,-1,9
 1503 664 1503 664 1503 555 c 0,10,11
 1503 455 1503 455 1467.5 369 c 128,-1,12
 1432 283 1432 283 1362 219.5 c 128,-1,13
 1292 156 1292 156 1191 120 c 128,-1,14
 1090 84 1090 84 961 84 c 0,15,16
 916 84 916 84 889 90 c 128,-1,17
 862 96 862 96 848 105.5 c 128,-1,18
 834 115 834 115 828.5 125 c 128,-1,19
 823 135 823 135 823 141 c 0,20,21
 823 155 823 155 828.5 169.5 c 128,-1,22
 834 184 834 184 842 207 c 2,23,-1
 885 319 l 1,24,-1
 881 322 l 1,25,26
 842 275 842 275 790.5 231.5 c 128,-1,27
 739 188 739 188 688 155.5 c 128,-1,28
 637 123 637 123 590 103.5 c 128,-1,29
 543 84 543 84 510 84 c 0,30,31
 463 84 463 84 441.5 111.5 c 128,-1,32
 420 139 420 139 420 174 c 0,33,34
 420 188 420 188 428 219 c 128,-1,35
 436 250 436 250 454.5 292 c 128,-1,36
 473 334 473 334 502.5 386 c 128,-1,37
 532 438 532 438 575 494 c 0,38,39
 610 537 610 537 656 582 c 128,-1,40
 702 627 702 627 754.5 663.5 c 128,-1,41
 807 700 807 700 864.5 724 c 128,-1,42
 922 748 922 748 979 748 c 0,43,44
 1032 748 1032 748 1049 715 c 1,45,-1
 1098 807 l 1,46,47
 1106 809 1106 809 1113 810 c 128,-1,48
 1120 811 1120 811 1130 811 c 0,49,50
 1200 811 1200 811 1239 782 c 1,51,52
 1233 766 1233 766 1215.5 725 c 128,-1,53
 1198 684 1198 684 1174.5 628.5 c 128,-1,54
 1151 573 1151 573 1124.5 511 c 128,-1,55
 1098 449 1098 449 1074.5 393.5 c 128,-1,56
 1051 338 1051 338 1032.5 295 c 128,-1,57
 1014 252 1014 252 1008 236 c 0,58,59
 994 197 994 197 999 181.5 c 128,-1,60
 1004 166 1004 166 1036 166 c 0,61,62
 1097 166 1097 166 1162 191.5 c 128,-1,63
 1227 217 1227 217 1278 266 c 128,-1,64
 1329 315 1329 315 1362 387 c 128,-1,65
 1395 459 1395 459 1395 551 c 0,66,67
 1395 657 1395 657 1356 743 c 128,-1,68
 1317 829 1317 829 1250.5 889.5 c 128,-1,69
 1184 950 1184 950 1095 983 c 128,-1,70
 1006 1016 1006 1016 903 1016 c 0,71,72
 762 1016 762 1016 646 958.5 c 128,-1,73
 530 901 530 901 448.5 806 c 128,-1,74
 367 711 367 711 321.5 587 c 128,-1,75
 276 463 276 463 276 330 c 0,76,77
 276 246 276 246 303 150.5 c 128,-1,78
 330 55 330 55 395.5 -27 c 128,-1,79
 461 -109 461 -109 570.5 -162 c 128,-1,80
 680 -215 680 -215 848 -215 c 0,81,82
 965 -215 965 -215 1039.5 -191.5 c 128,-1,83
 1114 -168 1114 -168 1163 -147 c 1,84,85
 1179 -153 1179 -153 1185.5 -176 c 128,-1,86
 1192 -199 1192 -199 1182 -213 c 1,87,88
 1090 -264 1090 -264 981 -285.5 c 128,-1,89
 872 -307 872 -307 782 -307 c 0,90,91
 647 -307 647 -307 521 -268 c 128,-1,92
 395 -229 395 -229 297 -150.5 c 128,-1,93
 199 -72 199 -72 140.5 48 c 128,-1,94
 82 168 82 168 82 332 c 0,0,1
633 236 m 0,95,96
 633 207 633 207 653 207 c 0,97,98
 665 207 665 207 693 220.5 c 128,-1,99
 721 234 721 234 776 285 c 0,100,101
 807 314 807 314 843 360 c 128,-1,102
 879 406 879 406 911.5 457 c 128,-1,103
 944 508 944 508 968.5 554 c 128,-1,104
 993 600 993 600 1001 629 c 1,105,106
 993 649 993 649 979 664.5 c 128,-1,107
 965 680 965 680 940 680 c 0,108,109
 928 680 928 680 903.5 665.5 c 128,-1,110
 879 651 879 651 840 616 c 0,111,112
 799 579 799 579 762 526 c 128,-1,113
 725 473 725 473 696.5 417.5 c 128,-1,114
 668 362 668 362 650.5 313 c 128,-1,115
 633 264 633 264 633 236 c 0,95,96
EndSplineSet
Validated: 1
EndChar

StartChar: A
Encoding: 43 65 43
Width: 1277
Flags: W
LayerCount: 2
Fore
SplineSet
-59 28.5 m 128,-1,1
 -59 53 -59 53 -49 66 c 1,2,-1
 6 72 l 2,3,4
 43 76 43 76 73.5 95.5 c 128,-1,5
 104 115 104 115 131 174 c 0,6,7
 158 235 158 235 187.5 313 c 128,-1,8
 217 391 217 391 258 502 c 2,9,-1
 442 1001 l 2,10,11
 478 1097 478 1097 502 1157 c 0,12,13
 523 1209 523 1209 523 1249 c 0,14,15
 523 1256 523 1256 522 1262 c 1,16,17
 559 1270 559 1270 591 1290.5 c 128,-1,18
 623 1311 623 1311 646.5 1331.5 c 128,-1,19
 670 1352 670 1352 684 1368 c 128,-1,20
 698 1384 698 1384 700 1384 c 0,21,22
 737 1384 737 1384 748 1343 c 0,23,24
 760 1298 760 1298 780.5 1236 c 128,-1,25
 801 1174 801 1174 840 1063 c 2,26,-1
 1118 260 l 2,27,28
 1134 213 1134 213 1146.5 181.5 c 128,-1,29
 1159 150 1159 150 1174.5 128 c 128,-1,30
 1190 106 1190 106 1208.5 94 c 128,-1,31
 1227 82 1227 82 1255 78 c 2,32,-1
 1333 66 l 1,33,34
 1345 57 1345 57 1345 26 c 0,35,36
 1345 3 1345 3 1331 -6 c 1,37,38
 1257 -2 1257 -2 1176.5 -1 c 128,-1,39
 1096 0 1096 0 1016 0 c 0,40,41
 938 0 938 0 874.5 -1 c 128,-1,42
 811 -2 811 -2 739 -6 c 1,43,44
 723 4 723 4 721 28.5 c 128,-1,45
 719 53 719 53 735 66 c 1,46,-1
 801 76 l 2,47,48
 836 82 836 82 846 91 c 128,-1,49
 856 100 856 100 856 111 c 0,50,51
 856 121 856 121 846 157 c 128,-1,52
 836 193 836 193 817 250 c 2,53,-1
 762 426 l 2,54,55
 754 451 754 451 735.5 457 c 128,-1,56
 717 463 717 463 664 463 c 2,57,-1
 434 463 l 2,58,59
 397 463 397 463 387 457 c 128,-1,60
 377 451 377 451 367 422 c 2,61,-1
 291 184 l 2,62,63
 281 153 281 153 278.5 138 c 128,-1,64
 276 123 276 123 276 111 c 0,65,66
 276 101 276 101 291.5 92.5 c 128,-1,67
 307 84 307 84 350 76 c 2,68,-1
 412 66 l 1,69,70
 422 56 422 56 423 29 c 128,-1,71
 424 2 424 2 408 -6 c 1,72,73
 355 -2 355 -2 294 -2 c 128,-1,74
 233 -2 233 -2 168 0 c 0,75,76
 115 0 115 0 72 -3 c 128,-1,77
 29 -6 29 -6 -43 -6 c 1,78,0
 -59 4 -59 4 -59 28.5 c 128,-1,1
427 582 m 0,79,80
 436 572 436 572 475 571 c 2,81,-1
 653 571 l 2,82,83
 688 570 688 570 698 580 c 0,84,85
 702 584 702 584 702 594 c 0,86,87
 702 607 702 607 694 631 c 2,88,-1
 641 797 l 2,89,90
 618 863 618 863 600 921 c 128,-1,91
 582 979 582 979 567 1012 c 1,92,93
 551 977 551 977 528.5 917.5 c 128,-1,94
 506 858 506 858 483 786 c 2,95,-1
 432 633 l 2,96,97
 423 608 423 608 423 594 c 0,98,99
 423 586 423 586 427 582 c 0,79,80
EndSplineSet
Validated: 1
EndChar

StartChar: B
Encoding: 44 66 44
Width: 1300
Flags: W
LayerCount: 2
Fore
SplineSet
57 31.5 m 128,-1,1
 57 43 57 43 60 53 c 128,-1,2
 63 63 63 63 70 66 c 2,3,-1
 129 78 l 2,4,5
 164 84 164 84 184.5 93 c 128,-1,6
 205 102 205 102 216 123.5 c 128,-1,7
 227 145 227 145 230 185 c 128,-1,8
 233 225 233 225 233 295 c 2,9,-1
 233 1018 l 2,10,11
 233 1096 233 1096 231 1141 c 128,-1,12
 229 1186 229 1186 220 1210.5 c 128,-1,13
 211 1235 211 1235 193.5 1244 c 128,-1,14
 176 1253 176 1253 143 1257 c 2,15,-1
 88 1266 l 2,16,17
 82 1270 82 1270 78 1281 c 128,-1,18
 74 1292 74 1292 74 1305.5 c 128,-1,19
 74 1319 74 1319 79 1329 c 128,-1,20
 84 1339 84 1339 96 1339 c 0,21,22
 213 1347 213 1347 333 1352.5 c 128,-1,23
 453 1358 453 1358 606 1358 c 0,24,25
 753 1358 753 1358 854.5 1340.5 c 128,-1,26
 956 1323 956 1323 1024 1282 c 0,27,28
 1090 1241 1090 1241 1127.5 1177.5 c 128,-1,29
 1165 1114 1165 1114 1165 1022 c 0,30,31
 1165 956 1165 956 1141.5 911 c 128,-1,32
 1118 866 1118 866 1084.5 835.5 c 128,-1,33
 1051 805 1051 805 1016 788.5 c 128,-1,34
 981 772 981 772 956 766 c 0,35,36
 940 762 940 762 927.5 757 c 128,-1,37
 915 752 915 752 915 743 c 0,38,39
 915 733 915 733 944 727 c 0,40,41
 1005 715 1005 715 1059.5 687 c 128,-1,42
 1114 659 1114 659 1155 618.5 c 128,-1,43
 1196 578 1196 578 1220.5 519.5 c 128,-1,44
 1245 461 1245 461 1245 387 c 0,45,46
 1245 315 1245 315 1226.5 260 c 128,-1,47
 1208 205 1208 205 1174.5 162 c 128,-1,48
 1141 119 1141 119 1098 89 c 128,-1,49
 1055 59 1055 59 1006 43 c 0,50,51
 908 8 908 8 800 0 c 128,-1,52
 692 -8 692 -8 598 -8 c 0,53,54
 543 -8 543 -8 487.5 -4 c 128,-1,55
 432 0 432 0 387 0 c 0,56,57
 311 0 311 0 234.5 -1 c 128,-1,58
 158 -2 158 -2 70 -6 c 1,59,60
 64 -2 64 -2 60.5 9 c 128,-1,0
 57 20 57 20 57 31.5 c 128,-1,1
516 346 m 2,61,62
 516 287 516 287 522 238.5 c 128,-1,63
 528 190 528 190 546.5 156.5 c 128,-1,64
 565 123 565 123 601 104.5 c 128,-1,65
 637 86 637 86 696 86 c 0,66,67
 811 86 811 86 869.5 165 c 128,-1,68
 928 244 928 244 928 369 c 0,69,70
 928 504 928 504 852 588 c 128,-1,71
 776 672 776 672 629 672 c 0,72,73
 586 672 586 672 563.5 670 c 128,-1,74
 541 668 541 668 530.5 660.5 c 128,-1,75
 520 653 520 653 518 635.5 c 128,-1,76
 516 618 516 618 516 588 c 2,77,-1
 516 346 l 2,61,62
516 819 m 2,78,79
 516 799 516 799 518 787.5 c 128,-1,80
 520 776 520 776 530.5 770 c 128,-1,81
 541 764 541 764 562.5 763 c 128,-1,82
 584 762 584 762 625 762 c 0,83,84
 691 762 691 762 736.5 781.5 c 128,-1,85
 782 801 782 801 811 833.5 c 128,-1,86
 840 866 840 866 853 908 c 128,-1,87
 866 950 866 950 866 997 c 0,88,89
 866 1132 866 1132 793.5 1198 c 128,-1,90
 721 1264 721 1264 614 1264 c 0,91,92
 577 1264 577 1264 558 1259.5 c 128,-1,93
 539 1255 539 1255 529.5 1244 c 128,-1,94
 520 1233 520 1233 518 1211.5 c 128,-1,95
 516 1190 516 1190 516 1157 c 2,96,-1
 516 819 l 2,78,79
EndSplineSet
Validated: 1
EndChar

StartChar: C
Encoding: 45 67 45
Width: 1411
Flags: W
LayerCount: 2
Fore
SplineSet
82 659 m 0,0,1
 82 847 82 847 152.5 980.5 c 128,-1,2
 223 1114 223 1114 330 1202 c 0,3,4
 441 1294 441 1294 589 1339 c 128,-1,5
 737 1384 737 1384 897 1384 c 0,6,7
 975 1384 975 1384 1042.5 1376 c 128,-1,8
 1110 1368 1110 1368 1163.5 1359 c 128,-1,9
 1217 1350 1217 1350 1256.5 1341.5 c 128,-1,10
 1296 1333 1296 1333 1319 1331 c 1,11,12
 1319 1317 1319 1317 1320 1282 c 128,-1,13
 1321 1247 1321 1247 1324 1202 c 128,-1,14
 1327 1157 1327 1157 1332 1107 c 128,-1,15
 1337 1057 1337 1057 1343 1012 c 1,16,17
 1339 1002 1339 1002 1329 996.5 c 128,-1,18
 1319 991 1319 991 1306.5 989 c 128,-1,19
 1294 987 1294 987 1283 989 c 128,-1,20
 1272 991 1272 991 1266 997 c 1,21,22
 1225 1140 1225 1140 1127.5 1215 c 128,-1,23
 1030 1290 1030 1290 881 1290 c 0,24,25
 795 1290 795 1290 711 1253.5 c 128,-1,26
 627 1217 627 1217 560.5 1142 c 128,-1,27
 494 1067 494 1067 452 954.5 c 128,-1,28
 410 842 410 842 410 688 c 128,-1,29
 410 534 410 534 451 417.5 c 128,-1,30
 492 301 492 301 558.5 222 c 128,-1,31
 625 143 625 143 712 102 c 128,-1,32
 799 61 799 61 891 61 c 128,-1,33
 983 61 983 61 1052.5 91 c 128,-1,34
 1122 121 1122 121 1172.5 168 c 128,-1,35
 1223 215 1223 215 1255.5 270.5 c 128,-1,36
 1288 326 1288 326 1309 379 c 1,37,38
 1321 391 1321 391 1348.5 387 c 128,-1,39
 1376 383 1376 383 1386 365 c 1,40,41
 1376 250 1376 250 1353.5 164 c 128,-1,42
 1331 78 1331 78 1309 43 c 1,43,44
 1225 20 1225 20 1119.5 -6.5 c 128,-1,45
 1014 -33 1014 -33 893 -33 c 0,46,47
 741 -33 741 -33 597 4 c 128,-1,48
 453 41 453 41 342 123 c 0,49,50
 231 207 231 207 156.5 338 c 128,-1,51
 82 469 82 469 82 659 c 0,0,1
EndSplineSet
Validated: 1
EndChar

StartChar: D
Encoding: 46 68 46
Width: 1624
Flags: W
LayerCount: 2
Fore
SplineSet
53 32 m 0,0,1
 53 57 53 57 66 66 c 1,2,-1
 129 76 l 2,3,4
 164 82 164 82 184.5 90 c 128,-1,5
 205 98 205 98 216 119.5 c 128,-1,6
 227 141 227 141 230 182 c 128,-1,7
 233 223 233 223 233 295 c 2,8,-1
 233 1020 l 2,9,10
 233 1094 233 1094 231 1139 c 128,-1,11
 229 1184 229 1184 220 1210.5 c 128,-1,12
 211 1237 211 1237 190.5 1248.5 c 128,-1,13
 170 1260 170 1260 135 1264 c 2,14,-1
 96 1268 l 2,15,16
 88 1272 88 1272 85 1283 c 128,-1,17
 82 1294 82 1294 82 1306.5 c 128,-1,18
 82 1319 82 1319 86 1329 c 128,-1,19
 90 1339 90 1339 100 1339 c 0,20,21
 163 1343 163 1343 227 1346.5 c 128,-1,22
 291 1350 291 1350 357.5 1353 c 128,-1,23
 424 1356 424 1356 495.5 1357 c 128,-1,24
 567 1358 567 1358 649 1358 c 0,25,26
 776 1358 776 1358 898 1343.5 c 128,-1,27
 1020 1329 1020 1329 1126 1290 c 0,28,29
 1226 1253 1226 1253 1304 1191.5 c 128,-1,30
 1382 1130 1382 1130 1434.5 1052.5 c 128,-1,31
 1487 975 1487 975 1514.5 884 c 128,-1,32
 1542 793 1542 793 1542 696 c 0,33,34
 1542 489 1542 489 1448 330.5 c 128,-1,35
 1354 172 1354 172 1176 84 c 0,36,37
 1072 31 1072 31 944.5 9.5 c 128,-1,38
 817 -12 817 -12 657 -12 c 0,39,40
 585 -12 585 -12 512.5 -6 c 128,-1,41
 440 0 440 0 385 0 c 0,42,43
 240 0 240 0 66 -6 c 1,44,45
 53 4 53 4 53 32 c 0,0,1
526 371 m 2,46,47
 526 285 526 285 532.5 229.5 c 128,-1,48
 539 174 539 174 567 141 c 0,49,50
 596 110 596 110 639 96 c 128,-1,51
 682 82 682 82 737 82 c 0,52,53
 870 82 870 82 961.5 135 c 128,-1,54
 1053 188 1053 188 1108 274 c 128,-1,55
 1163 360 1163 360 1187.5 465.5 c 128,-1,56
 1212 571 1212 571 1212 676 c 0,57,58
 1212 952 1212 952 1069 1108 c 128,-1,59
 926 1264 926 1264 647 1264 c 0,60,61
 561 1264 561 1264 541 1237 c 0,62,63
 531 1225 531 1225 528.5 1195 c 128,-1,64
 526 1165 526 1165 526 1118 c 2,65,-1
 526 371 l 2,46,47
EndSplineSet
Validated: 1
EndChar

StartChar: E
Encoding: 47 69 47
Width: 1214
Flags: W
LayerCount: 2
Fore
SplineSet
20 32 m 0,0,1
 20 57 20 57 33 66 c 1,2,-1
 129 80 l 2,3,4
 164 86 164 86 184.5 93 c 128,-1,5
 205 100 205 100 216 121.5 c 128,-1,6
 227 143 227 143 230 183 c 128,-1,7
 233 223 233 223 233 295 c 2,8,-1
 233 1059 l 2,9,10
 233 1129 233 1129 230 1168.5 c 128,-1,11
 227 1208 227 1208 216 1229.5 c 128,-1,12
 205 1251 205 1251 184.5 1260.5 c 128,-1,13
 164 1270 164 1270 129 1276 c 2,14,-1
 78 1286 l 1,15,16
 64 1296 64 1296 65 1322 c 128,-1,17
 66 1348 66 1348 82 1358 c 1,18,19
 225 1352 225 1352 377 1352 c 2,20,-1
 811 1352 l 2,21,22
 909 1352 909 1352 987 1353 c 128,-1,23
 1065 1354 1065 1354 1085 1358 c 1,24,25
 1085 1346 1085 1346 1088.5 1314 c 128,-1,26
 1092 1282 1092 1282 1096 1238 c 128,-1,27
 1100 1194 1100 1194 1104 1143 c 128,-1,28
 1108 1092 1108 1092 1112 1040 c 1,29,30
 1106 1024 1106 1024 1079.5 1021 c 128,-1,31
 1053 1018 1053 1018 1036 1032 c 1,32,33
 1020 1085 1020 1085 999.5 1128 c 128,-1,34
 979 1171 979 1171 958 1194 c 0,35,36
 929 1223 929 1223 881.5 1240 c 128,-1,37
 834 1257 834 1257 758 1257 c 2,38,-1
 594 1257 l 2,39,40
 569 1257 569 1257 555 1255 c 128,-1,41
 541 1253 541 1253 534.5 1246 c 128,-1,42
 528 1239 528 1239 527 1222.5 c 128,-1,43
 526 1206 526 1206 526 1178 c 2,44,-1
 526 819 l 2,45,46
 526 776 526 776 534.5 767 c 128,-1,47
 543 758 543 758 584 758 c 2,48,-1
 725 758 l 2,49,50
 764 758 764 758 790.5 762 c 128,-1,51
 817 766 817 766 833.5 777 c 128,-1,52
 850 788 850 788 859 811 c 128,-1,53
 868 834 868 834 877 870 c 2,54,-1
 887 922 l 1,55,56
 893 928 893 928 903 931 c 128,-1,57
 913 934 913 934 925.5 934 c 128,-1,58
 938 934 938 934 948 930 c 128,-1,59
 958 926 958 926 963 920 c 1,60,61
 957 822 957 822 956 702 c 0,62,63
 956 583 956 583 963 485 c 1,64,65
 959 479 959 479 948.5 475 c 128,-1,66
 938 471 938 471 925.5 471 c 128,-1,67
 913 471 913 471 903 474 c 128,-1,68
 893 477 893 477 887 483 c 1,69,-1
 877 535 l 2,70,71
 869 572 869 572 859.5 594 c 128,-1,72
 850 616 850 616 833.5 628.5 c 128,-1,73
 817 641 817 641 790.5 645 c 128,-1,74
 764 649 764 649 725 649 c 2,75,-1
 584 649 l 2,76,77
 543 649 543 649 534.5 640 c 128,-1,78
 526 631 526 631 526 586 c 2,79,-1
 526 342 l 2,80,81
 526 270 526 270 533.5 222 c 128,-1,82
 541 174 541 174 559 147 c 0,83,84
 569 133 569 133 582.5 123 c 128,-1,85
 596 113 596 113 620.5 106.5 c 128,-1,86
 645 100 645 100 682 97 c 128,-1,87
 719 94 719 94 774 94 c 0,88,89
 842 94 842 94 890 98 c 128,-1,90
 938 102 938 102 979 126 c 128,-1,91
 1020 150 1020 150 1056 198 c 128,-1,92
 1092 246 1092 246 1135 332 c 0,93,94
 1147 348 1147 348 1175.5 344 c 128,-1,95
 1204 340 1204 340 1210 322 c 1,96,97
 1206 281 1206 281 1197 232.5 c 128,-1,98
 1188 184 1188 184 1175.5 138 c 128,-1,99
 1163 92 1163 92 1149 53 c 128,-1,100
 1135 14 1135 14 1124 -6 c 1,101,102
 1083 -4 1083 -4 1028 -3 c 128,-1,103
 973 -2 973 -2 910.5 -1 c 128,-1,104
 848 0 848 0 781.5 0 c 2,105,-1
 651 0 l 1,106,-1
 385 0 l 2,107,108
 311 0 311 0 230.5 -1 c 128,-1,109
 150 -2 150 -2 33 -6 c 1,110,111
 20 4 20 4 20 32 c 0,0,1
EndSplineSet
Validated: 524289
EndChar

StartChar: F
Encoding: 48 70 48
Width: 1122
Flags: W
LayerCount: 2
Fore
SplineSet
49 29.5 m 128,-1,1
 49 55 49 55 61 66 c 1,2,-1
 129 76 l 2,3,4
 164 82 164 82 184.5 90 c 128,-1,5
 205 98 205 98 216 119.5 c 128,-1,6
 227 141 227 141 230 182 c 128,-1,7
 233 223 233 223 233 295 c 2,8,-1
 233 1057 l 2,9,10
 233 1129 233 1129 230 1170.5 c 128,-1,11
 227 1212 227 1212 216 1234.5 c 128,-1,12
 205 1257 205 1257 184.5 1265.5 c 128,-1,13
 164 1274 164 1274 129 1280 c 2,14,-1
 88 1286 l 1,15,16
 74 1296 74 1296 75 1324 c 128,-1,17
 76 1352 76 1352 92 1358 c 1,18,19
 158 1354 158 1354 232.5 1353 c 128,-1,20
 307 1352 307 1352 381 1352 c 2,21,-1
 811 1352 l 2,22,23
 909 1352 909 1352 987 1353 c 128,-1,24
 1065 1354 1065 1354 1087 1358 c 1,25,-1
 1087 1313 l 1,26,-1
 1087 1236 l 1,27,-1
 1088.5 1141 l 1,28,-1
 1092 1038 l 1,29,30
 1086 1022 1086 1022 1059 1020 c 128,-1,31
 1032 1018 1032 1018 1014 1030 c 1,32,33
 998 1093 998 1093 984.5 1131 c 128,-1,34
 971 1169 971 1169 954 1190 c 0,35,36
 927 1223 927 1223 879 1240 c 128,-1,37
 831 1257 831 1257 754 1257 c 2,38,-1
 594 1257 l 2,39,40
 569 1257 569 1257 555 1255 c 128,-1,41
 541 1253 541 1253 534.5 1245 c 128,-1,42
 528 1237 528 1237 527 1220.5 c 128,-1,43
 526 1204 526 1204 526 1174 c 2,44,-1
 526 803 l 2,45,46
 526 762 526 762 534.5 751.5 c 128,-1,47
 543 741 543 741 584 741 c 2,48,-1
 741 741 l 2,49,50
 782 741 782 741 808 745.5 c 128,-1,51
 834 750 834 750 850 762 c 128,-1,52
 866 774 866 774 875.5 796.5 c 128,-1,53
 885 819 885 819 893 856 c 2,54,-1
 903 905 l 1,55,56
 909 911 909 911 919.5 914.5 c 128,-1,57
 930 918 930 918 942 918 c 128,-1,58
 954 918 954 918 965.5 913.5 c 128,-1,59
 977 909 977 909 981 903 c 1,60,61
 975 805 975 805 975 684 c 0,62,63
 975 627 975 627 976 572.5 c 128,-1,64
 977 518 977 518 981 471 c 1,65,66
 977 465 977 465 965.5 461 c 128,-1,67
 954 457 954 457 942 457 c 128,-1,68
 930 457 930 457 919.5 460 c 128,-1,69
 909 463 909 463 903 469 c 1,70,-1
 893 518 l 2,71,72
 885 555 885 555 875.5 577.5 c 128,-1,73
 866 600 866 600 850 612.5 c 128,-1,74
 834 625 834 625 808 629 c 128,-1,75
 782 633 782 633 741 633 c 2,76,-1
 584 633 l 2,77,78
 543 633 543 633 534.5 622.5 c 128,-1,79
 526 612 526 612 526 571 c 2,80,-1
 526 295 l 2,81,82
 526 223 526 223 529 182 c 128,-1,83
 532 141 532 141 543.5 118.5 c 128,-1,84
 555 96 555 96 575.5 88 c 128,-1,85
 596 80 596 80 631 76 c 2,86,-1
 707 66 l 1,87,88
 717 56 717 56 717 30 c 128,-1,89
 717 4 717 4 707 -6 c 1,90,91
 611 -2 611 -2 533 -1 c 128,-1,92
 455 0 455 0 381 0 c 0,93,94
 309 0 309 0 231.5 -1 c 128,-1,95
 154 -2 154 -2 61 -6 c 1,96,0
 49 4 49 4 49 29.5 c 128,-1,1
EndSplineSet
Validated: 524289
EndChar

StartChar: G
Encoding: 49 71 49
Width: 1503
Flags: W
LayerCount: 2
Fore
SplineSet
82 657 m 0,0,1
 82 850 82 850 169 1010.5 c 128,-1,2
 256 1171 256 1171 442 1276 c 0,3,4
 546 1333 546 1333 668.5 1358.5 c 128,-1,5
 791 1384 791 1384 922 1384 c 0,6,7
 1008 1384 1008 1384 1072.5 1376 c 128,-1,8
 1137 1368 1137 1368 1185 1359 c 128,-1,9
 1233 1350 1233 1350 1268 1342.5 c 128,-1,10
 1303 1335 1303 1335 1327 1335 c 1,11,12
 1329 1312 1329 1312 1331 1275.5 c 128,-1,13
 1333 1239 1333 1239 1336 1194 c 128,-1,14
 1339 1149 1339 1149 1343.5 1101 c 128,-1,15
 1348 1053 1348 1053 1356 1006 c 1,16,17
 1352 998 1352 998 1341.5 992.5 c 128,-1,18
 1331 987 1331 987 1319 987 c 128,-1,19
 1307 987 1307 987 1295.5 990 c 128,-1,20
 1284 993 1284 993 1278 1001 c 0,21,22
 1180 1290 1180 1290 893 1290 c 0,23,24
 770 1290 770 1290 680 1243 c 128,-1,25
 590 1196 590 1196 529.5 1115 c 128,-1,26
 469 1034 469 1034 439.5 925.5 c 128,-1,27
 410 817 410 817 410 696 c 0,28,29
 410 477 410 477 476.5 342 c 128,-1,30
 543 207 543 207 643 139 c 0,31,32
 717 90 717 90 791.5 75.5 c 128,-1,33
 866 61 866 61 924 61 c 0,34,35
 967 61 967 61 994.5 66.5 c 128,-1,36
 1022 72 1022 72 1037.5 89 c 128,-1,37
 1053 106 1053 106 1059 137 c 128,-1,38
 1065 168 1065 168 1065 217 c 2,39,-1
 1065 346 l 2,40,41
 1065 387 1065 387 1062 411.5 c 128,-1,42
 1059 436 1059 436 1046.5 450.5 c 128,-1,43
 1034 465 1034 465 1012.5 471 c 128,-1,44
 991 477 991 477 954 483 c 2,45,-1
 864 496 l 1,46,47
 848 506 848 506 848 531.5 c 128,-1,48
 848 557 848 557 864 567 c 1,49,50
 975 563 975 563 1055 562 c 128,-1,51
 1135 561 1135 561 1210 561 c 0,52,53
 1284 561 1284 561 1354.5 562 c 128,-1,54
 1425 563 1425 563 1479 567 c 1,55,56
 1491 557 1491 557 1491 531.5 c 128,-1,57
 1491 506 1491 506 1479 496 c 1,58,-1
 1432 487 l 2,59,60
 1409 483 1409 483 1394.5 476 c 128,-1,61
 1380 469 1380 469 1372 453.5 c 128,-1,62
 1364 438 1364 438 1361 412.5 c 128,-1,63
 1358 387 1358 387 1358 346 c 2,64,-1
 1358 231 l 2,65,66
 1358 165 1358 165 1365 133.5 c 128,-1,67
 1372 102 1372 102 1401 96 c 1,68,69
 1407 90 1407 90 1406 70.5 c 128,-1,70
 1405 51 1405 51 1395 47 c 0,71,72
 1368 43 1368 43 1330 37 c 128,-1,73
 1292 31 1292 31 1251 16 c 0,74,75
 1224 8 1224 8 1180.5 -1 c 128,-1,76
 1137 -10 1137 -10 1086.5 -17.5 c 128,-1,77
 1036 -25 1036 -25 984 -29 c 128,-1,78
 932 -33 932 -33 889 -33 c 0,79,80
 785 -33 785 -33 690.5 -18.5 c 128,-1,81
 596 -4 596 -4 485 39 c 0,82,83
 395 76 395 76 321.5 135.5 c 128,-1,84
 248 195 248 195 194.5 273.5 c 128,-1,85
 141 352 141 352 111.5 449.5 c 128,-1,86
 82 547 82 547 82 657 c 0,0,1
EndSplineSet
Validated: 1
EndChar

StartChar: H
Encoding: 50 72 50
Width: 1650
Flags: W
LayerCount: 2
Fore
SplineSet
68 29.5 m 128,-1,1
 68 55 68 55 80 66 c 1,2,-1
 129 72 l 2,3,4
 164 76 164 76 184.5 85 c 128,-1,5
 205 94 205 94 216 116.5 c 128,-1,6
 227 139 227 139 230 181 c 128,-1,7
 233 223 233 223 233 295 c 2,8,-1
 233 1057 l 2,9,10
 233 1129 233 1129 230 1170.5 c 128,-1,11
 227 1212 227 1212 216 1234.5 c 128,-1,12
 205 1257 205 1257 184.5 1266.5 c 128,-1,13
 164 1276 164 1276 129 1280 c 2,14,-1
 80 1286 l 1,15,16
 68 1296 68 1296 68 1322 c 128,-1,17
 68 1348 68 1348 80 1358 c 1,18,19
 156 1354 156 1354 233.5 1353 c 128,-1,20
 311 1352 311 1352 385 1352 c 0,21,22
 455 1352 455 1352 528.5 1353 c 128,-1,23
 602 1354 602 1354 670 1358 c 1,24,25
 682 1348 682 1348 682 1322 c 128,-1,26
 682 1296 682 1296 670 1286 c 1,27,-1
 627 1280 l 2,28,29
 594 1276 594 1276 574.5 1266.5 c 128,-1,30
 555 1257 555 1257 543.5 1234.5 c 128,-1,31
 532 1212 532 1212 529 1170 c 128,-1,32
 526 1128 526 1128 526 1057 c 2,33,-1
 526 819 l 2,34,35
 526 796 526 796 528 784 c 128,-1,36
 530 772 530 772 538.5 766 c 128,-1,37
 547 760 547 760 564.5 759 c 128,-1,38
 582 758 582 758 612 758 c 2,39,-1
 1038 758 l 2,40,41
 1071 758 1071 758 1088.5 759 c 128,-1,42
 1106 760 1106 760 1114 766 c 128,-1,43
 1122 772 1122 772 1123 784.5 c 128,-1,44
 1124 797 1124 797 1124 819 c 2,45,-1
 1124 1057 l 2,46,47
 1124 1129 1124 1129 1121 1169.5 c 128,-1,48
 1118 1210 1118 1210 1107 1232.5 c 128,-1,49
 1096 1255 1096 1255 1075.5 1263.5 c 128,-1,50
 1055 1272 1055 1272 1020 1278 c 2,51,-1
 965 1286 l 1,52,53
 953 1296 953 1296 952.5 1322 c 128,-1,54
 952 1348 952 1348 965 1358 c 1,55,56
 1133 1352 1133 1352 1276 1352 c 0,57,58
 1423 1352 1423 1352 1565 1358 c 1,59,60
 1577 1348 1577 1348 1577 1322 c 128,-1,61
 1577 1296 1577 1296 1565 1286 c 1,62,-1
 1524 1280 l 2,63,64
 1489 1274 1489 1274 1467.5 1265.5 c 128,-1,65
 1446 1257 1446 1257 1434.5 1234.5 c 128,-1,66
 1423 1212 1423 1212 1420 1170 c 128,-1,67
 1417 1128 1417 1128 1417 1057 c 2,68,-1
 1417 295 l 2,69,70
 1417 223 1417 223 1420 182 c 128,-1,71
 1423 141 1423 141 1434.5 118.5 c 128,-1,72
 1446 96 1446 96 1467.5 88 c 128,-1,73
 1489 80 1489 80 1524 74 c 2,74,-1
 1573 66 l 1,75,76
 1585 56 1585 56 1585 30 c 128,-1,77
 1585 4 1585 4 1573 -6 c 1,78,79
 1419 0 1419 0 1276 0 c 0,80,81
 1122 0 1122 0 975 -6 c 1,82,83
 963 4 963 4 963 29.5 c 128,-1,84
 963 55 963 55 975 66 c 1,85,-1
 1020 72 l 2,86,87
 1055 76 1055 76 1075.5 85 c 128,-1,88
 1096 94 1096 94 1107 116.5 c 128,-1,89
 1118 139 1118 139 1121 181 c 128,-1,90
 1124 223 1124 223 1124 295 c 2,91,-1
 1124 590 l 2,92,93
 1124 610 1124 610 1123 622.5 c 128,-1,94
 1122 635 1122 635 1114 641 c 128,-1,95
 1106 647 1106 647 1088.5 648 c 128,-1,96
 1071 649 1071 649 1038 649 c 2,97,-1
 612 649 l 2,98,99
 581 649 581 649 564 648 c 128,-1,100
 547 647 547 647 538.5 641 c 128,-1,101
 530 635 530 635 528 622.5 c 128,-1,102
 526 610 526 610 526 590 c 2,103,-1
 526 295 l 2,104,105
 526 223 526 223 529 181 c 128,-1,106
 532 139 532 139 543.5 116.5 c 128,-1,107
 555 94 555 94 575.5 86 c 128,-1,108
 596 78 596 78 631 74 c 2,109,-1
 696 66 l 1,110,111
 708 56 708 56 708.5 30 c 128,-1,112
 709 4 709 4 696 -6 c 1,113,114
 520 0 520 0 385 0 c 0,115,116
 235 0 235 0 80 -6 c 1,117,0
 68 4 68 4 68 29.5 c 128,-1,1
EndSplineSet
Validated: 1
EndChar

StartChar: I
Encoding: 51 73 51
Width: 759
Flags: W
LayerCount: 2
Fore
SplineSet
57 31 m 0,0,1
 57 55 57 55 70 66 c 1,2,-1
 127 76 l 2,3,4
 162 82 162 82 183.5 90 c 128,-1,5
 205 98 205 98 216 120.5 c 128,-1,6
 227 143 227 143 230 185 c 128,-1,7
 233 227 233 227 233 299 c 2,8,-1
 233 1053 l 2,9,10
 233 1125 233 1125 230 1166.5 c 128,-1,11
 227 1208 227 1208 216 1230.5 c 128,-1,12
 205 1253 205 1253 183.5 1261.5 c 128,-1,13
 162 1270 162 1270 127 1276 c 2,14,-1
 70 1286 l 1,15,16
 58 1296 58 1296 58 1322 c 0,17,18
 58 1323 58 1323 57 1324 c 0,19,20
 57 1348 57 1348 70 1358 c 1,21,22
 236 1352 236 1352 381 1352 c 0,23,24
 524 1352 524 1352 690 1358 c 1,25,26
 702 1348 702 1348 702 1322 c 128,-1,27
 702 1296 702 1296 690 1286 c 1,28,-1
 633 1276 l 2,29,30
 598 1270 598 1270 576.5 1261.5 c 128,-1,31
 555 1253 555 1253 543.5 1230.5 c 128,-1,32
 532 1208 532 1208 529 1166 c 128,-1,33
 526 1124 526 1124 526 1053 c 2,34,-1
 526 299 l 2,35,36
 526 227 526 227 529 185 c 128,-1,37
 532 143 532 143 543.5 120.5 c 128,-1,38
 555 98 555 98 576.5 90 c 128,-1,39
 598 82 598 82 633 76 c 2,40,-1
 690 66 l 1,41,42
 702 56 702 56 701 30 c 128,-1,43
 700 4 700 4 688 -6 c 1,44,45
 522 0 522 0 381 0 c 0,46,47
 236 0 236 0 70 -6 c 1,48,49
 57 4 57 4 57 31 c 0,0,1
EndSplineSet
Validated: 1
EndChar

StartChar: J
Encoding: 52 74 52
Width: 784
Flags: W
LayerCount: 2
Fore
SplineSet
-115 -330 m 0,0,1
 -115 -301 -115 -301 -99.5 -267 c 128,-1,2
 -84 -233 -84 -233 -61 -211 c 0,3,4
 -34 -184 -34 -184 -4 -184 c 0,5,6
 21 -184 21 -184 47.5 -199.5 c 128,-1,7
 74 -215 74 -215 100 -236 c 0,8,9
 127 -256 127 -256 150.5 -271.5 c 128,-1,10
 174 -287 174 -287 190 -287 c 0,11,12
 208 -287 208 -287 219.5 -270.5 c 128,-1,13
 231 -254 231 -254 238.5 -229.5 c 128,-1,14
 246 -205 246 -205 249 -175 c 128,-1,15
 252 -145 252 -145 256 -119 c 0,16,17
 260 -92 260 -92 267 13.5 c 128,-1,18
 274 119 274 119 274 283 c 2,19,-1
 274 1053 l 2,20,21
 274 1125 274 1125 271 1166.5 c 128,-1,22
 268 1208 268 1208 257 1229.5 c 128,-1,23
 246 1251 246 1251 224.5 1259.5 c 128,-1,24
 203 1268 203 1268 168 1274 c 2,25,-1
 90 1286 l 1,26,27
 78 1296 78 1296 78 1322 c 128,-1,28
 78 1348 78 1348 90 1358 c 1,29,30
 188 1354 188 1354 268 1353 c 128,-1,31
 348 1352 348 1352 420 1352 c 0,32,33
 567 1352 567 1352 727 1358 c 1,34,35
 739 1348 739 1348 739 1322 c 128,-1,36
 739 1296 739 1296 727 1286 c 1,37,-1
 674 1276 l 2,38,39
 639 1270 639 1270 617.5 1260.5 c 128,-1,40
 596 1251 596 1251 584.5 1229.5 c 128,-1,41
 573 1208 573 1208 570 1166 c 128,-1,42
 567 1124 567 1124 567 1053 c 2,43,-1
 567 311 l 2,44,45
 567 188 567 188 557 87 c 128,-1,46
 547 -14 547 -14 520 -84 c 0,47,48
 493 -152 493 -152 452.5 -210 c 128,-1,49
 412 -268 412 -268 352.5 -311 c 128,-1,50
 293 -354 293 -354 216 -381 c 128,-1,51
 139 -408 139 -408 41 -412 c 0,52,53
 18 -412 18 -412 -8.5 -410 c 128,-1,54
 -35 -408 -35 -408 -58.5 -398.5 c 128,-1,55
 -82 -389 -82 -389 -98.5 -372.5 c 128,-1,56
 -115 -356 -115 -356 -115 -330 c 0,0,1
EndSplineSet
Validated: 1
EndChar

StartChar: K
Encoding: 53 75 53
Width: 1464
Flags: W
LayerCount: 2
Fore
SplineSet
55 1323 m 0,0,1
 55 1348 55 1348 72 1358 c 1,2,3
 226 1352 226 1352 379 1352 c 0,4,5
 524 1352 524 1352 688 1358 c 1,6,7
 702 1348 702 1348 702 1322 c 128,-1,8
 702 1296 702 1296 688 1286 c 1,9,-1
 631 1278 l 2,10,11
 596 1274 596 1274 575.5 1265.5 c 128,-1,12
 555 1257 555 1257 543.5 1234.5 c 128,-1,13
 532 1212 532 1212 529 1170 c 128,-1,14
 526 1128 526 1128 526 1057 c 2,15,-1
 526 807 l 2,16,17
 526 756 526 756 535.5 743.5 c 128,-1,18
 545 731 545 731 563 731 c 0,19,20
 579 731 579 731 601 743.5 c 128,-1,21
 623 756 623 756 645.5 774.5 c 128,-1,22
 668 793 668 793 688.5 813.5 c 128,-1,23
 709 834 709 834 721 850 c 0,24,25
 803 948 803 948 874.5 1037 c 128,-1,26
 946 1126 946 1126 995 1198 c 0,27,28
 1022 1237 1022 1237 1022 1251 c 0,29,30
 1022 1257 1022 1257 1015 1265.5 c 128,-1,31
 1008 1274 1008 1274 987 1278 c 2,32,-1
 940 1286 l 1,33,34
 924 1296 924 1296 926 1324 c 128,-1,35
 928 1352 928 1352 948 1358 c 1,36,37
 1026 1354 1026 1354 1086.5 1353 c 128,-1,38
 1147 1352 1147 1352 1202 1352 c 0,39,40
 1259 1352 1259 1352 1324 1353 c 128,-1,41
 1389 1354 1389 1354 1450 1358 c 1,42,43
 1468 1352 1468 1352 1470.5 1325 c 128,-1,44
 1473 1298 1473 1298 1460 1286 c 1,45,46
 1407 1280 1407 1280 1362 1272 c 128,-1,47
 1317 1264 1317 1264 1284 1249 c 0,48,49
 1223 1224 1223 1224 1152 1163 c 128,-1,50
 1081 1102 1081 1102 981 987 c 2,51,-1
 887 881 l 2,52,53
 871 865 871 865 865.5 852.5 c 128,-1,54
 860 840 860 840 860 834 c 0,55,56
 860 826 860 826 873.5 801 c 128,-1,57
 887 776 887 776 934 707 c 0,58,59
 1012 590 1012 590 1102 450.5 c 128,-1,60
 1192 311 1192 311 1296 172 c 0,61,62
 1337 117 1337 117 1371 99.5 c 128,-1,63
 1405 82 1405 82 1448 76 c 2,64,-1
 1513 66 l 1,65,66
 1523 53 1523 53 1523 29 c 0,67,68
 1522 28 1522 28 1522 27 c 0,69,70
 1522 2 1522 2 1507 -6 c 1,71,72
 1353 0 1353 0 1212 0 c 0,73,74
 1134 0 1134 0 1055.5 -1 c 128,-1,75
 977 -2 977 -2 891 -6 c 1,76,77
 871 0 871 0 870.5 27.5 c 128,-1,78
 870 55 870 55 887 66 c 1,79,-1
 938 78 l 2,80,81
 973 88 973 88 973 98 c 0,82,83
 973 114 973 114 956 139 c 0,84,85
 952 145 952 145 936 171 c 128,-1,86
 920 197 920 197 900.5 226.5 c 128,-1,87
 881 256 881 256 863.5 282.5 c 128,-1,88
 846 309 846 309 838 322 c 2,89,-1
 729 487 l 2,90,91
 674 573 674 573 642 611 c 128,-1,92
 610 649 610 649 575 649 c 128,-1,93
 540 649 540 649 533 621.5 c 128,-1,94
 526 594 526 594 526 510 c 2,95,-1
 526 295 l 2,96,97
 526 223 526 223 529 181 c 128,-1,98
 532 139 532 139 543.5 116.5 c 128,-1,99
 555 94 555 94 575.5 86 c 128,-1,100
 596 78 596 78 631 74 c 2,101,-1
 688 66 l 1,102,103
 700 56 700 56 700 30 c 128,-1,104
 700 4 700 4 688 -6 c 1,105,106
 524 0 524 0 379 0 c 0,107,108
 309 0 309 0 231.5 -1 c 128,-1,109
 154 -2 154 -2 72 -6 c 1,110,111
 60 4 60 4 59.5 29.5 c 128,-1,112
 59 55 59 55 72 66 c 1,113,-1
 129 74 l 2,114,115
 164 78 164 78 184.5 86 c 128,-1,116
 205 94 205 94 216 116.5 c 128,-1,117
 227 139 227 139 230 181 c 128,-1,118
 233 223 233 223 233 295 c 2,119,-1
 233 1057 l 2,120,121
 233 1129 233 1129 230 1170.5 c 128,-1,122
 227 1212 227 1212 216 1234.5 c 128,-1,123
 205 1257 205 1257 184.5 1265.5 c 128,-1,124
 164 1274 164 1274 129 1278 c 2,125,-1
 72 1286 l 1,126,127
 55 1296 55 1296 55 1323 c 0,0,1
EndSplineSet
Validated: 1
EndChar

StartChar: L
Encoding: 54 76 54
Width: 1198
Flags: W
LayerCount: 2
Fore
SplineSet
41 30 m 2,0,-1
 41 36 l 2,1,2
 41 56 41 56 51 66 c 1,3,-1
 129 76 l 2,4,5
 164 80 164 80 184.5 88 c 128,-1,6
 205 96 205 96 216 118.5 c 128,-1,7
 227 141 227 141 230 182 c 128,-1,8
 233 223 233 223 233 295 c 2,9,-1
 233 1057 l 2,10,11
 233 1129 233 1129 230 1170.5 c 128,-1,12
 227 1212 227 1212 216 1234.5 c 128,-1,13
 205 1257 205 1257 184.5 1265.5 c 128,-1,14
 164 1274 164 1274 129 1278 c 2,15,-1
 70 1286 l 1,16,17
 54 1296 54 1296 54.5 1322 c 128,-1,18
 55 1348 55 1348 74 1358 c 1,19,20
 234 1352 234 1352 381 1352 c 0,21,22
 531 1352 531 1352 684 1358 c 1,23,24
 696 1348 696 1348 696 1322 c 128,-1,25
 696 1296 696 1296 684 1286 c 1,26,-1
 631 1278 l 2,27,28
 596 1272 596 1272 575.5 1263.5 c 128,-1,29
 555 1255 555 1255 543.5 1232.5 c 128,-1,30
 532 1210 532 1210 529 1169 c 128,-1,31
 526 1128 526 1128 526 1057 c 2,32,-1
 526 340 l 2,33,34
 526 268 526 268 533.5 219 c 128,-1,35
 541 170 541 170 561 145 c 0,36,37
 571 133 571 133 584.5 123 c 128,-1,38
 598 113 598 113 621.5 106.5 c 128,-1,39
 645 100 645 100 682 97 c 128,-1,40
 719 94 719 94 774 94 c 0,41,42
 844 94 844 94 893 99 c 128,-1,43
 942 104 942 104 981 127 c 128,-1,44
 1020 150 1020 150 1057 199 c 128,-1,45
 1094 248 1094 248 1139 338 c 0,46,47
 1151 354 1151 354 1178.5 349 c 128,-1,48
 1206 344 1206 344 1217 326 c 1,49,50
 1213 285 1213 285 1202.5 236.5 c 128,-1,51
 1192 188 1192 188 1179.5 141 c 128,-1,52
 1167 94 1167 94 1153 54 c 128,-1,53
 1139 14 1139 14 1128 -6 c 1,54,55
 1087 -4 1087 -4 1032 -3 c 128,-1,56
 977 -2 977 -2 914.5 -1 c 128,-1,57
 852 0 852 0 785.5 0 c 2,58,-1
 655 0 l 1,59,-1
 381 0 l 2,60,61
 309 0 309 0 231.5 -1 c 128,-1,62
 154 -2 154 -2 57 -6 c 1,63,64
 43 4 43 4 41 30 c 2,0,-1
EndSplineSet
Validated: 524289
EndChar

StartChar: M
Encoding: 55 77 55
Width: 1859
Flags: W
LayerCount: 2
Fore
SplineSet
22 28 m 0,0,1
 22 31 22 31 21 35 c 0,2,3
 20 44 20 44 24 51 c 0,4,5
 28 61 28 61 35 66 c 2,6,-1
 72 72 l 2,7,8
 111 78 111 78 133.5 86 c 128,-1,9
 156 94 156 94 168 109.5 c 128,-1,10
 180 125 180 125 185 153.5 c 128,-1,11
 190 182 190 182 195 229 c 0,12,13
 203 305 203 305 210 430 c 128,-1,14
 217 555 217 555 227 702 c 0,15,16
 233 806 233 806 237.5 919 c 128,-1,17
 242 1032 242 1032 242 1116 c 0,18,19
 242 1204 242 1204 209 1236 c 128,-1,20
 176 1268 176 1268 115 1278 c 2,21,-1
 70 1286 l 1,22,23
 58 1298 58 1298 58.5 1326 c 128,-1,24
 59 1354 59 1354 76 1358 c 1,25,26
 180 1352 180 1352 334 1352 c 0,27,28
 385 1352 385 1352 432 1353 c 128,-1,29
 479 1354 479 1354 535 1358 c 1,30,31
 535 1311 535 1311 547 1262.5 c 128,-1,32
 559 1214 559 1214 581.5 1160 c 128,-1,33
 604 1106 604 1106 633 1045.5 c 128,-1,34
 662 985 662 985 696 913 c 2,35,-1
 831 625 l 2,36,37
 837 609 837 609 851.5 582 c 128,-1,38
 866 555 866 555 882.5 524.5 c 128,-1,39
 899 494 899 494 915.5 464 c 128,-1,40
 932 434 932 434 942 416 c 1,41,42
 962 453 962 453 989 505 c 128,-1,43
 1016 557 1016 557 1057 649 c 2,44,-1
 1161 874 l 2,45,46
 1198 954 1198 954 1225.5 1014.5 c 128,-1,47
 1253 1075 1253 1075 1274.5 1129.5 c 128,-1,48
 1296 1184 1296 1184 1314.5 1238 c 128,-1,49
 1333 1292 1333 1292 1350 1358 c 1,50,51
 1422 1352 1422 1352 1472 1352 c 2,52,-1
 1569 1352 l 2,53,54
 1620 1352 1620 1352 1684.5 1353 c 128,-1,55
 1749 1354 1749 1354 1804 1358 c 1,56,57
 1822 1347 1822 1347 1822 1321 c 0,58,59
 1822 1301 1822 1301 1810 1286 c 1,60,-1
 1751 1276 l 2,61,62
 1688 1266 1688 1266 1657 1238 c 128,-1,63
 1626 1210 1626 1210 1626 1128 c 0,64,65
 1626 970 1626 970 1627 845.5 c 128,-1,66
 1628 721 1628 721 1630 616.5 c 128,-1,67
 1632 512 1632 512 1635 418 c 128,-1,68
 1638 324 1638 324 1642 227 c 0,69,70
 1644 155 1644 155 1659.5 118.5 c 128,-1,71
 1675 82 1675 82 1735 74 c 2,72,-1
 1800 66 l 1,73,74
 1812 54 1812 54 1812 27 c 128,-1,75
 1812 0 1812 0 1796 -6 c 1,76,77
 1724 -2 1724 -2 1656.5 -1 c 128,-1,78
 1589 0 1589 0 1513 0 c 0,79,80
 1443 0 1443 0 1363.5 -1 c 128,-1,81
 1284 -2 1284 -2 1210 -6 c 1,82,83
 1192 2 1192 2 1190 28.5 c 128,-1,84
 1188 55 1188 55 1204 66 c 1,85,-1
 1266 74 l 2,86,87
 1301 78 1301 78 1320 86 c 128,-1,88
 1339 94 1339 94 1348.5 111.5 c 128,-1,89
 1358 129 1358 129 1359 158.5 c 128,-1,90
 1360 188 1360 188 1360 236 c 2,91,-1
 1356 768 l 1,92,-1
 1356 1001 l 1,93,-1
 1352 1001 l 1,94,95
 1237 753 1237 753 1120.5 500.5 c 128,-1,96
 1004 248 1004 248 901 -14 c 1,97,98
 883 -28 883 -28 860 -29 c 0,99,100
 846 -29 846 -29 831.5 -26 c 128,-1,101
 817 -23 817 -23 807 -16 c 1,102,103
 776 78 776 78 721 212 c 128,-1,104
 666 346 666 346 601.5 488.5 c 128,-1,105
 537 631 537 631 474.5 766 c 128,-1,106
 412 901 412 901 369 1001 c 1,107,-1
 365 1001 l 1,108,109
 359 901 359 901 355.5 831.5 c 128,-1,110
 352 762 352 762 350 682 c 0,111,112
 350 633 350 633 349 571.5 c 128,-1,113
 348 510 348 510 347 447.5 c 128,-1,114
 346 385 346 385 346 325.5 c 2,115,-1
 346 221 l 2,116,117
 346 182 346 182 349 156.5 c 128,-1,118
 352 131 352 131 362.5 115.5 c 128,-1,119
 373 100 373 100 391.5 91 c 128,-1,120
 410 82 410 82 440 78 c 2,121,-1
 520 66 l 1,122,123
 532 56 532 56 530 29 c 128,-1,124
 528 2 528 2 516 -6 c 1,125,126
 459 -2 459 -2 396.5 -1 c 128,-1,127
 334 0 334 0 274 0 c 0,128,129
 225 0 225 0 164.5 -1 c 128,-1,130
 104 -2 104 -2 43 -6 c 0,131,132
 33 -4 33 -4 28.5 6 c 128,-1,133
 24 16 24 16 22 28 c 0,0,1
EndSplineSet
Validated: 524289
EndChar

StartChar: N
Encoding: 56 78 56
Width: 1531
Flags: W
LayerCount: 2
Fore
SplineSet
45 1358 m 1,0,1
 117 1354 117 1354 190.5 1353 c 128,-1,2
 264 1352 264 1352 328 1352 c 0,3,4
 434 1352 434 1352 500 1358 c 1,5,6
 516 1288 516 1288 607 1172.5 c 128,-1,7
 698 1057 698 1057 838 891 c 2,8,-1
 1010 688 l 2,9,10
 1078 608 1078 608 1124.5 553 c 128,-1,11
 1171 498 1171 498 1206 463 c 1,12,13
 1212 479 1212 479 1213 502.5 c 128,-1,14
 1214 526 1214 526 1214 555 c 2,15,-1
 1214 838 l 2,16,17
 1214 899 1214 899 1212 958.5 c 128,-1,18
 1210 1018 1210 1018 1207 1067 c 128,-1,19
 1204 1116 1204 1116 1198 1154 c 128,-1,20
 1192 1192 1192 1192 1184 1212 c 0,21,22
 1170 1245 1170 1245 1138 1258.5 c 128,-1,23
 1106 1272 1106 1272 1065 1278 c 2,24,-1
 1010 1286 l 1,25,26
 998 1298 998 1298 998.5 1323 c 128,-1,27
 999 1348 999 1348 1010 1358 c 1,28,29
 1094 1354 1094 1354 1157.5 1353 c 128,-1,30
 1221 1352 1221 1352 1284 1352 c 0,31,32
 1393 1352 1393 1352 1513 1358 c 1,33,34
 1522 1348 1522 1348 1524 1323 c 0,35,36
 1524 1320 1524 1320 1525 1318 c 0,37,38
 1525 1297 1525 1297 1513 1286 c 1,39,-1
 1477 1280 l 2,40,41
 1436 1274 1436 1274 1408 1259.5 c 128,-1,42
 1380 1245 1380 1245 1366 1212 c 0,43,44
 1358 1192 1358 1192 1352 1154 c 128,-1,45
 1346 1116 1346 1116 1342.5 1067 c 128,-1,46
 1339 1018 1339 1018 1337 958.5 c 128,-1,47
 1335 899 1335 899 1335 838 c 2,48,-1
 1335 348 l 1,49,-1
 1335 159 l 1,50,-1
 1339 18 l 1,51,52
 1329 0 1329 0 1292 -14.5 c 128,-1,53
 1255 -29 1255 -29 1219 -29 c 1,54,-1
 1206 -10 l 2,55,56
 1192 8 1192 8 1170.5 39 c 128,-1,57
 1149 70 1149 70 1119.5 110 c 128,-1,58
 1090 150 1090 150 1053 195 c 2,59,-1
 580 780 l 2,60,61
 490 891 490 891 437.5 955.5 c 128,-1,62
 385 1020 385 1020 356 1042 c 1,63,64
 348 1026 348 1026 347 997.5 c 128,-1,65
 346 969 346 969 346 911 c 2,66,-1
 346 514 l 2,67,68
 346 453 346 453 348 393.5 c 128,-1,69
 350 334 350 334 353 285 c 128,-1,70
 356 236 356 236 362.5 198 c 128,-1,71
 369 160 369 160 377 139 c 0,72,73
 391 106 391 106 423 93 c 128,-1,74
 455 80 455 80 496 74 c 2,75,-1
 553 66 l 1,76,77
 565 54 565 54 564 29 c 128,-1,78
 563 4 563 4 553 -6 c 1,79,80
 469 -2 469 -2 404.5 -1 c 128,-1,81
 340 0 340 0 279 0 c 0,82,83
 166 0 166 0 49 -6 c 1,84,85
 39 4 39 4 38 28.5 c 128,-1,86
 37 53 37 53 49 66 c 1,87,-1
 84 72 l 2,88,89
 125 80 125 80 154.5 93 c 128,-1,90
 184 106 184 106 197 139 c 0,91,92
 205 159 205 159 211 197.5 c 128,-1,93
 217 236 217 236 220 285 c 128,-1,94
 223 334 223 334 224 393.5 c 128,-1,95
 225 453 225 453 225 514 c 2,96,-1
 225 1034 l 2,97,98
 225 1077 225 1077 224 1105 c 128,-1,99
 223 1133 223 1133 222 1152 c 128,-1,100
 221 1171 221 1171 218 1184.5 c 128,-1,101
 215 1198 215 1198 211 1208 c 0,102,103
 199 1235 199 1235 173 1252.5 c 128,-1,104
 147 1270 147 1270 94 1278 c 2,105,-1
 37 1286 l 1,106,107
 28 1297 28 1297 28 1321 c 0,108,109
 28 1354 28 1354 45 1358 c 1,0,1
EndSplineSet
Validated: 1
EndChar

StartChar: O
Encoding: 57 79 57
Width: 1613
Flags: W
LayerCount: 2
Fore
SplineSet
82 666 m 0,0,1
 82 818 82 818 136 948.5 c 128,-1,2
 190 1079 190 1079 286.5 1176.5 c 128,-1,3
 383 1274 383 1274 518 1329 c 128,-1,4
 653 1384 653 1384 813 1384 c 128,-1,5
 973 1384 973 1384 1105 1333 c 128,-1,6
 1237 1282 1237 1282 1332 1189 c 128,-1,7
 1427 1096 1427 1096 1479.5 967 c 128,-1,8
 1532 838 1532 838 1532 682 c 0,9,10
 1532 514 1532 514 1478.5 382 c 128,-1,11
 1425 250 1425 250 1328 158 c 128,-1,12
 1231 66 1231 66 1094.5 16.5 c 128,-1,13
 958 -33 958 -33 793 -33 c 0,14,15
 639 -33 639 -33 508 16.5 c 128,-1,16
 377 66 377 66 282.5 156 c 128,-1,17
 188 246 188 246 135 376 c 128,-1,18
 82 506 82 506 82 666 c 0,0,1
410 713 m 0,19,20
 410 650 410 650 418 578 c 128,-1,21
 426 506 426 506 444.5 433 c 128,-1,22
 463 360 463 360 494.5 293.5 c 128,-1,23
 526 227 526 227 573.5 175 c 128,-1,24
 621 123 621 123 684.5 92 c 128,-1,25
 748 61 748 61 831 61 c 0,26,27
 931 61 931 61 1002 107.5 c 128,-1,28
 1073 154 1073 154 1118 233.5 c 128,-1,29
 1163 313 1163 313 1183.5 421.5 c 128,-1,30
 1204 530 1204 530 1204 655 c 0,31,32
 1204 786 1204 786 1176.5 902 c 128,-1,33
 1149 1018 1149 1018 1095.5 1104 c 128,-1,34
 1042 1190 1042 1190 966.5 1240 c 128,-1,35
 891 1290 891 1290 797 1290 c 128,-1,36
 703 1290 703 1290 630 1248 c 128,-1,37
 557 1206 557 1206 508 1129.5 c 128,-1,38
 459 1053 459 1053 434.5 947.5 c 128,-1,39
 410 842 410 842 410 713 c 0,19,20
EndSplineSet
Validated: 1
EndChar

StartChar: P
Encoding: 58 80 58
Width: 1230
Flags: W
LayerCount: 2
Fore
SplineSet
58 30 m 0,0,1
 58 33 58 33 57 36 c 0,2,3
 57 56 57 56 72 63 c 1,4,-1
 129 74 l 2,5,6
 164 80 164 80 184.5 88 c 128,-1,7
 205 96 205 96 216 118.5 c 128,-1,8
 227 141 227 141 230 182 c 128,-1,9
 233 223 233 223 233 295 c 2,10,-1
 233 1020 l 2,11,12
 233 1098 233 1098 231 1144 c 128,-1,13
 229 1190 229 1190 220 1214.5 c 128,-1,14
 211 1239 211 1239 193.5 1248 c 128,-1,15
 176 1257 176 1257 143 1262 c 2,16,-1
 80 1270 l 1,17,18
 66 1278 66 1278 67 1303.5 c 128,-1,19
 68 1329 68 1329 84 1339 c 1,20,21
 186 1347 186 1347 304 1352.5 c 128,-1,22
 422 1358 422 1358 557 1358 c 0,23,24
 688 1358 688 1358 777 1343.5 c 128,-1,25
 866 1329 866 1329 932 1305 c 0,26,27
 979 1287 979 1287 1024 1257 c 128,-1,28
 1069 1227 1069 1227 1104 1184 c 128,-1,29
 1139 1141 1139 1141 1160.5 1082.5 c 128,-1,30
 1182 1024 1182 1024 1182 950 c 0,31,32
 1182 866 1182 866 1156 804.5 c 128,-1,33
 1130 743 1130 743 1089.5 700 c 128,-1,34
 1049 657 1049 657 998.5 631.5 c 128,-1,35
 948 606 948 606 899 590.5 c 128,-1,36
 850 575 850 575 806 570 c 128,-1,37
 762 565 762 565 735 565 c 2,38,-1
 701.5 565 l 1,39,-1
 670 567 l 1,40,41
 658 575 658 575 655.5 593.5 c 128,-1,42
 653 612 653 612 664 623 c 1,43,44
 727 643 727 643 767 675 c 128,-1,45
 807 707 807 707 829.5 749 c 128,-1,46
 852 791 852 791 860 841 c 128,-1,47
 868 891 868 891 868 948 c 128,-1,48
 868 1005 868 1005 853 1061.5 c 128,-1,49
 838 1118 838 1118 806 1163 c 128,-1,50
 774 1208 774 1208 725 1236 c 128,-1,51
 676 1264 676 1264 606 1264 c 0,52,53
 549 1264 549 1264 537.5 1242.5 c 128,-1,54
 526 1221 526 1221 526 1159 c 2,55,-1
 526 295 l 2,56,57
 526 223 526 223 529 182 c 128,-1,58
 532 141 532 141 543.5 118.5 c 128,-1,59
 555 96 555 96 575.5 88 c 128,-1,60
 596 80 596 80 631 74 c 2,61,-1
 696 63 l 1,62,63
 712 55 712 55 712.5 29.5 c 128,-1,64
 713 4 713 4 696 -6 c 1,65,66
 610 -2 610 -2 533.5 -1 c 128,-1,67
 457 0 457 0 383 0 c 128,-1,68
 309 0 309 0 234.5 -1 c 128,-1,69
 160 -2 160 -2 76 -6 c 1,70,71
 60 4 60 4 58 30 c 0,0,1
EndSplineSet
Validated: 524289
EndChar

StartChar: Q
Encoding: 59 81 59
Width: 1613
Flags: W
LayerCount: 2
Fore
SplineSet
82 666 m 128,-1,1
 82 818 82 818 136 948.5 c 128,-1,2
 190 1079 190 1079 286.5 1176.5 c 128,-1,3
 383 1274 383 1274 518 1329 c 128,-1,4
 653 1384 653 1384 813 1384 c 128,-1,5
 973 1384 973 1384 1105 1333 c 128,-1,6
 1237 1282 1237 1282 1332 1190 c 128,-1,7
 1427 1098 1427 1098 1479.5 968 c 128,-1,8
 1532 838 1532 838 1532 680 c 0,9,10
 1532 430 1532 430 1417.5 261 c 128,-1,11
 1303 92 1303 92 1104 18 c 1,12,13
 1084 6 1084 6 1122 -29 c 0,14,15
 1171 -76 1171 -76 1224.5 -122 c 128,-1,16
 1278 -168 1278 -168 1335.5 -208 c 128,-1,17
 1393 -248 1393 -248 1450 -278.5 c 128,-1,18
 1507 -309 1507 -309 1567 -324 c 0,19,20
 1612 -334 1612 -334 1653 -337 c 128,-1,21
 1694 -340 1694 -340 1720 -340 c 0,22,23
 1765 -340 1765 -340 1808 -324 c 1,24,25
 1822 -330 1822 -330 1826 -345 c 0,26,27
 1829 -353 1829 -353 1829 -360 c 128,-1,28
 1829 -367 1829 -367 1827 -373 c 0,29,30
 1770 -414 1770 -414 1690 -431.5 c 128,-1,31
 1610 -449 1610 -449 1534 -449 c 0,32,33
 1423 -449 1423 -449 1321 -421 c 128,-1,34
 1219 -393 1219 -393 1125.5 -346 c 128,-1,35
 1032 -299 1032 -299 949 -234.5 c 128,-1,36
 866 -170 866 -170 795 -96 c 0,37,38
 766 -65 766 -65 744.5 -48 c 128,-1,39
 723 -31 723 -31 686 -27 c 0,40,41
 559 -17 559 -17 449.5 36.5 c 128,-1,42
 340 90 340 90 258 179 c 128,-1,43
 176 268 176 268 129 391 c 128,-1,0
 82 514 82 514 82 666 c 128,-1,1
410 713 m 0,44,45
 410 619 410 619 429.5 505 c 128,-1,46
 449 391 449 391 496 292 c 128,-1,47
 543 193 543 193 625 126 c 128,-1,48
 707 59 707 59 831 59 c 0,49,50
 931 59 931 59 1002 105.5 c 128,-1,51
 1073 152 1073 152 1118 232.5 c 128,-1,52
 1163 313 1163 313 1183.5 421.5 c 128,-1,53
 1204 530 1204 530 1204 655 c 0,54,55
 1204 786 1204 786 1176.5 902 c 128,-1,56
 1149 1018 1149 1018 1095.5 1104 c 128,-1,57
 1042 1190 1042 1190 966.5 1240 c 128,-1,58
 891 1290 891 1290 797 1290 c 128,-1,59
 703 1290 703 1290 630 1248 c 128,-1,60
 557 1206 557 1206 508 1129.5 c 128,-1,61
 459 1053 459 1053 434.5 947.5 c 128,-1,62
 410 842 410 842 410 713 c 0,44,45
EndSplineSet
Validated: 1
EndChar

StartChar: R
Encoding: 60 82 60
Width: 1359
Flags: W
LayerCount: 2
Fore
SplineSet
61 32 m 0,0,1
 61 57 61 57 74 66 c 1,2,-1
 129 76 l 2,3,4
 164 82 164 82 184.5 90 c 128,-1,5
 205 98 205 98 216 120.5 c 128,-1,6
 227 143 227 143 230 183 c 128,-1,7
 233 223 233 223 233 295 c 2,8,-1
 233 1020 l 2,9,10
 233 1096 233 1096 231 1142 c 128,-1,11
 229 1188 229 1188 220 1212.5 c 128,-1,12
 211 1237 211 1237 193.5 1246 c 128,-1,13
 176 1255 176 1255 143 1260 c 2,14,-1
 88 1268 l 1,15,16
 72 1276 72 1276 73 1303.5 c 128,-1,17
 74 1331 74 1331 92 1339 c 1,18,19
 209 1347 209 1347 331 1352.5 c 128,-1,20
 453 1358 453 1358 600 1358 c 0,21,22
 731 1358 731 1358 836.5 1338.5 c 128,-1,23
 942 1319 942 1319 1001 1284 c 0,24,25
 1181 1178 1181 1178 1182 981 c 0,26,27
 1182 913 1182 913 1161.5 863 c 128,-1,28
 1141 813 1141 813 1109 777 c 128,-1,29
 1077 741 1077 741 1038 716.5 c 128,-1,30
 999 692 999 692 965 674 c 0,31,32
 949 666 949 666 947.5 655.5 c 128,-1,33
 946 645 946 645 954 629 c 0,34,35
 1054 422 1054 422 1126 301 c 128,-1,36
 1198 180 1198 180 1272 117 c 0,37,38
 1313 84 1313 84 1349.5 72.5 c 128,-1,39
 1386 61 1386 61 1409 59 c 1,40,41
 1423 52 1423 52 1424 34 c 2,42,-1
 1424 30 l 2,43,44
 1424 15 1424 15 1417 6 c 1,45,46
 1392 -4 1392 -4 1347.5 -8 c 128,-1,47
 1303 -12 1303 -12 1255 -12 c 0,48,49
 1114 -12 1114 -12 1020 40 c 128,-1,50
 926 92 926 92 858 203 c 0,51,52
 809 285 809 285 771 361.5 c 128,-1,53
 733 438 733 438 698 520 c 0,54,55
 680 561 680 561 654.5 576.5 c 128,-1,56
 629 592 629 592 590 592 c 0,57,58
 537 592 537 592 525.5 585 c 128,-1,59
 514 578 514 578 514 547 c 2,60,-1
 514 295 l 2,61,62
 514 223 514 223 517 183 c 128,-1,63
 520 143 520 143 531.5 120.5 c 128,-1,64
 543 98 543 98 563.5 90 c 128,-1,65
 584 82 584 82 618 76 c 2,66,-1
 674 66 l 1,67,68
 684 58 684 58 684 31 c 128,-1,69
 684 4 684 4 674 -6 c 1,70,71
 592 -2 592 -2 519 -1 c 128,-1,72
 446 0 446 0 373 0 c 0,73,74
 295 0 295 0 224.5 -1 c 128,-1,75
 154 -2 154 -2 74 -6 c 1,76,77
 61 4 61 4 61 32 c 0,0,1
514 760 m 2,78,79
 514 733 514 733 517 717.5 c 128,-1,80
 520 702 520 702 532.5 694 c 128,-1,81
 545 686 545 686 570.5 684 c 128,-1,82
 596 682 596 682 641 682 c 0,83,84
 696 682 696 682 732 696.5 c 128,-1,85
 768 711 768 711 797 739 c 0,86,87
 824 766 824 766 847 817 c 128,-1,88
 870 868 870 868 870 961 c 0,89,90
 870 1100 870 1100 796.5 1182 c 128,-1,91
 723 1264 723 1264 602 1264 c 0,92,93
 571 1264 571 1264 553 1262 c 128,-1,94
 535 1260 535 1260 526.5 1248.5 c 128,-1,95
 518 1237 518 1237 516 1216.5 c 128,-1,96
 514 1196 514 1196 514 1159 c 2,97,-1
 514 760 l 2,78,79
EndSplineSet
Validated: 1
EndChar

StartChar: S
Encoding: 61 83 61
Width: 1036
Flags: W
LayerCount: 2
Fore
SplineSet
47 377 m 1,0,1
 57 397 57 397 85 398 c 128,-1,2
 113 399 113 399 125 383 c 1,3,4
 139 334 139 334 172 276.5 c 128,-1,5
 205 219 205 219 251 172 c 128,-1,6
 297 125 297 125 354.5 93 c 128,-1,7
 412 61 412 61 477 61 c 0,8,9
 534 61 534 61 575 78.5 c 128,-1,10
 616 96 616 96 644 126 c 128,-1,11
 672 156 672 156 685 192.5 c 128,-1,12
 698 229 698 229 698 268 c 0,13,14
 698 329 698 329 671.5 379.5 c 128,-1,15
 645 430 645 430 605 470 c 128,-1,16
 565 510 565 510 515 540.5 c 128,-1,17
 465 571 465 571 420 594 c 0,18,19
 365 621 365 621 309.5 658.5 c 128,-1,20
 254 696 254 696 210 745.5 c 128,-1,21
 166 795 166 795 138.5 856.5 c 128,-1,22
 111 918 111 918 111 993 c 0,23,24
 111 1079 111 1079 142.5 1152 c 128,-1,25
 174 1225 174 1225 235.5 1276 c 128,-1,26
 297 1327 297 1327 386 1355.5 c 128,-1,27
 475 1384 475 1384 586 1384 c 0,28,29
 637 1384 637 1384 697.5 1377 c 128,-1,30
 758 1370 758 1370 819 1352 c 0,31,32
 854 1342 854 1342 889 1335 c 1,33,34
 901 1300 901 1300 913.5 1223.5 c 128,-1,35
 926 1147 926 1147 926 1042 c 1,36,37
 918 1024 918 1024 889 1022 c 128,-1,38
 860 1020 860 1020 846 1036 c 1,39,40
 834 1075 834 1075 810 1120 c 128,-1,41
 786 1165 786 1165 752.5 1203 c 128,-1,42
 719 1241 719 1241 675 1265.5 c 128,-1,43
 631 1290 631 1290 575 1290 c 0,44,45
 473 1290 473 1290 420 1234 c 128,-1,46
 367 1178 367 1178 367 1100 c 0,47,48
 367 1028 367 1028 421 967.5 c 128,-1,49
 475 907 475 907 553 866 c 2,50,-1
 688 795 l 2,51,52
 735 770 735 770 786.5 734 c 128,-1,53
 838 698 838 698 880 648 c 128,-1,54
 922 598 922 598 949.5 532.5 c 128,-1,55
 977 467 977 467 977 383 c 0,56,57
 977 289 977 289 940 212 c 128,-1,58
 903 135 903 135 835.5 81 c 128,-1,59
 768 27 768 27 673 -3 c 128,-1,60
 578 -33 578 -33 461 -33 c 0,61,62
 320 -33 320 -33 232.5 -3 c 128,-1,63
 145 27 145 27 113 45 c 1,64,65
 99 61 99 61 86.5 96 c 128,-1,66
 74 131 74 131 65.5 176 c 128,-1,67
 57 221 57 221 52 272.5 c 128,-1,68
 47 324 47 324 47 377 c 1,0,1
EndSplineSet
Validated: 1
EndChar

StartChar: T
Encoding: 62 84 62
Width: 1320
Flags: W
LayerCount: 2
Fore
SplineSet
16 1044 m 1,0,1
 49 1150 49 1150 61.5 1241.5 c 128,-1,2
 74 1333 74 1333 84 1393 c 1,3,4
 98 1403 98 1403 113 1403 c 0,5,6
 131 1403 131 1403 141 1395 c 1,7,8
 145 1383 145 1383 150.5 1373.5 c 128,-1,9
 156 1364 156 1364 173 1360 c 128,-1,10
 190 1356 190 1356 222 1354 c 128,-1,11
 254 1352 254 1352 313 1352 c 2,12,-1
 1075 1352 l 2,13,14
 1126 1352 1126 1352 1159 1353 c 128,-1,15
 1192 1354 1192 1354 1211.5 1358 c 128,-1,16
 1231 1362 1231 1362 1242 1371 c 128,-1,17
 1253 1380 1253 1380 1260 1397 c 1,18,19
 1272 1403 1272 1403 1286 1403 c 0,20,21
 1296 1403 1296 1403 1304.5 1398 c 128,-1,22
 1313 1393 1313 1393 1317 1389 c 1,23,24
 1309 1362 1309 1362 1302.5 1320 c 128,-1,25
 1296 1278 1296 1278 1292 1230 c 128,-1,26
 1288 1182 1288 1182 1286 1130 c 0,27,28
 1285 1104 1285 1104 1285 1081 c 128,-1,29
 1285 1058 1285 1058 1286 1036 c 1,30,31
 1278 1022 1278 1022 1248.5 1020 c 128,-1,32
 1219 1018 1219 1018 1210 1030 c 1,33,34
 1198 1079 1198 1079 1183.5 1121 c 128,-1,35
 1169 1163 1169 1163 1145.5 1193 c 128,-1,36
 1122 1223 1122 1223 1086.5 1240 c 128,-1,37
 1051 1257 1051 1257 993 1257 c 2,38,-1
 870 1257 l 2,39,40
 833 1257 833 1257 824 1248 c 128,-1,41
 815 1239 815 1239 815 1198 c 2,42,-1
 815 295 l 2,43,44
 815 223 815 223 818 182 c 128,-1,45
 821 141 821 141 832.5 118.5 c 128,-1,46
 844 96 844 96 864.5 88 c 128,-1,47
 885 80 885 80 920 76 c 2,48,-1
 1001 66 l 1,49,50
 1011 56 1011 56 1011.5 30 c 128,-1,51
 1012 4 1012 4 1001 -6 c 1,52,53
 901 -2 901 -2 822 -1 c 128,-1,54
 743 0 743 0 674 0 c 0,55,56
 600 0 600 0 517 -1 c 128,-1,57
 434 -2 434 -2 326 -6 c 1,58,59
 314 4 314 4 313.5 29.5 c 128,-1,60
 313 55 313 55 326 66 c 1,61,-1
 418 76 l 2,62,63
 453 80 453 80 473.5 88 c 128,-1,64
 494 96 494 96 505 117.5 c 128,-1,65
 516 139 516 139 519 181 c 128,-1,66
 522 223 522 223 522 295 c 2,67,-1
 522 1198 l 2,68,69
 522 1235 522 1235 516 1246 c 128,-1,70
 510 1257 510 1257 473 1257 c 2,71,-1
 346 1257 l 2,72,73
 291 1257 291 1257 252 1242 c 128,-1,74
 213 1227 213 1227 185.5 1198 c 128,-1,75
 158 1169 158 1169 136.5 1125 c 128,-1,76
 115 1081 115 1081 92 1026 c 1,77,78
 74 1016 74 1016 50.5 1020 c 128,-1,79
 27 1024 27 1024 16 1044 c 1,0,1
EndSplineSet
Validated: 1
EndChar

StartChar: U
Encoding: 63 85 63
Width: 1515
Flags: W
LayerCount: 2
Fore
SplineSet
55 1324 m 0,0,1
 55 1348 55 1348 72 1358 c 1,2,3
 219 1352 219 1352 371 1352 c 128,-1,4
 523 1352 523 1352 670 1358 c 1,5,6
 682 1348 682 1348 682 1323 c 128,-1,7
 682 1298 682 1298 670 1288 c 1,8,-1
 621 1280 l 2,9,10
 586 1274 586 1274 565.5 1264.5 c 128,-1,11
 545 1255 545 1255 533.5 1232.5 c 128,-1,12
 522 1210 522 1210 519 1169 c 128,-1,13
 516 1128 516 1128 516 1057 c 2,14,-1
 516 584 l 2,15,16
 516 494 516 494 525.5 403.5 c 128,-1,17
 535 313 535 313 568.5 241.5 c 128,-1,18
 602 170 602 170 669.5 125 c 128,-1,19
 737 80 737 80 854 80 c 0,20,21
 952 80 952 80 1017.5 120 c 128,-1,22
 1083 160 1083 160 1123 229.5 c 128,-1,23
 1163 299 1163 299 1179.5 392 c 128,-1,24
 1196 485 1196 485 1196 590 c 2,25,-1
 1196 838 l 2,26,27
 1196 963 1196 963 1189 1067 c 128,-1,28
 1182 1171 1182 1171 1165 1212 c 0,29,30
 1151 1245 1151 1245 1119 1257.5 c 128,-1,31
 1087 1270 1087 1270 1047 1278 c 2,32,-1
 991 1288 l 1,33,34
 979 1300 979 1300 980 1324 c 128,-1,35
 981 1348 981 1348 991 1358 c 1,36,37
 1075 1354 1075 1354 1138.5 1353 c 128,-1,38
 1202 1352 1202 1352 1266 1352 c 0,39,40
 1379 1352 1379 1352 1495 1358 c 1,41,42
 1505 1348 1505 1348 1506 1324 c 2,43,-1
 1506 1320 l 2,44,45
 1506 1299 1506 1299 1495 1288 c 1,46,-1
 1458 1280 l 2,47,48
 1417 1270 1417 1270 1389.5 1257.5 c 128,-1,49
 1362 1245 1362 1245 1348 1212 c 0,50,51
 1332 1171 1332 1171 1324.5 1067 c 128,-1,52
 1317 963 1317 963 1317 838 c 2,53,-1
 1317 608 l 2,54,55
 1317 463 1317 463 1293.5 336 c 128,-1,56
 1270 209 1270 209 1186 115 c 0,57,58
 1118 43 1118 43 1011.5 5 c 128,-1,59
 905 -33 905 -33 780 -33 c 0,60,61
 663 -33 663 -33 561 -9.5 c 128,-1,62
 459 14 459 14 375 82 c 0,63,64
 295 148 295 148 259 262.5 c 128,-1,65
 223 377 223 377 223 545 c 2,66,-1
 223 1057 l 2,67,68
 223 1129 223 1129 220 1169.5 c 128,-1,69
 217 1210 217 1210 206 1231.5 c 128,-1,70
 195 1253 195 1253 174.5 1262.5 c 128,-1,71
 154 1272 154 1272 119 1278 c 2,72,-1
 68 1288 l 1,73,74
 55 1298 55 1298 55 1324 c 0,0,1
EndSplineSet
Validated: 1
EndChar

StartChar: V
Encoding: 64 86 64
Width: 1314
Flags: W
LayerCount: 2
Fore
SplineSet
-66 1327 m 0,0,1
 -63 1350 -63 1350 -49 1358 c 1,2,3
 29 1356 29 1356 89.5 1354 c 128,-1,4
 150 1352 150 1352 229 1352 c 0,5,6
 301 1352 301 1352 371.5 1353 c 128,-1,7
 442 1354 442 1354 537 1358 c 1,8,9
 549 1348 549 1348 549 1325.5 c 128,-1,10
 549 1303 549 1303 539 1288 c 1,11,-1
 477 1276 l 2,12,13
 426 1264 426 1264 426 1237 c 0,14,15
 426 1225 426 1225 448.5 1164.5 c 128,-1,16
 471 1104 471 1104 508 1012 c 2,17,-1
 688 551 l 2,18,19
 711 494 711 494 726 457 c 128,-1,20
 741 420 741 420 752 393 c 1,21,22
 764 420 764 420 781.5 459 c 128,-1,23
 799 498 799 498 817 545 c 2,24,-1
 893 737 l 2,25,26
 911 786 911 786 936 848.5 c 128,-1,27
 961 911 961 911 984.5 972.5 c 128,-1,28
 1008 1034 1008 1034 1026 1086.5 c 128,-1,29
 1044 1139 1044 1139 1055 1165 c 0,30,31
 1075 1220 1075 1220 1075 1239 c 0,32,33
 1075 1249 1075 1249 1066 1256.5 c 128,-1,34
 1057 1264 1057 1264 1020 1274 c 2,35,-1
 961 1288 l 1,36,37
 949 1300 949 1300 949.5 1325 c 128,-1,38
 950 1350 950 1350 969 1358 c 1,39,40
 1041 1354 1041 1354 1101 1353 c 128,-1,41
 1161 1352 1161 1352 1221 1352 c 0,42,43
 1321 1352 1321 1352 1411 1358 c 1,44,45
 1424 1351 1424 1351 1424 1320 c 0,46,47
 1424 1297 1424 1297 1415 1288 c 1,48,-1
 1362 1278 l 2,49,50
 1319 1270 1319 1270 1294.5 1254.5 c 128,-1,51
 1270 1239 1270 1239 1249 1206 c 0,52,53
 1214 1155 1214 1155 1173.5 1071 c 128,-1,54
 1133 987 1133 987 1079 862 c 2,55,-1
 930 508 l 2,56,57
 852 322 852 322 805 196 c 128,-1,58
 758 70 758 70 723 -16 c 1,59,60
 696 -32 696 -32 651 -33 c 0,61,62
 616 -33 616 -33 596 -16 c 1,63,64
 588 4 588 4 577.5 33.5 c 128,-1,65
 567 63 567 63 556 95 c 128,-1,66
 545 127 545 127 532.5 158.5 c 128,-1,67
 520 190 520 190 510 217 c 2,68,-1
 178 1051 l 2,69,70
 149 1125 149 1125 131 1165.5 c 128,-1,71
 113 1206 113 1206 97.5 1226.5 c 128,-1,72
 82 1247 82 1247 65.5 1254.5 c 128,-1,73
 49 1262 49 1262 25 1268 c 2,74,-1
 -57 1288 l 1,75,76
 -67 1301 -67 1301 -67 1318 c 0,77,78
 -67 1322 -67 1322 -66 1327 c 0,0,1
EndSplineSet
Validated: 1
EndChar

StartChar: W
Encoding: 65 87 65
Width: 1966
Flags: W
LayerCount: 2
Fore
SplineSet
-70 1326 m 2,0,1
 -68 1350 -68 1350 -51 1358 c 1,2,3
 62 1352 62 1352 215 1352 c 0,4,5
 346 1352 346 1352 463 1358 c 1,6,7
 475 1352 475 1352 479 1324 c 128,-1,8
 483 1296 483 1296 467 1286 c 1,9,-1
 430 1280 l 2,10,11
 379 1272 379 1272 379 1249 c 0,12,13
 379 1239 379 1239 408.5 1171.5 c 128,-1,14
 438 1104 438 1104 485 995 c 2,15,-1
 688 543 l 2,16,17
 708 496 708 496 723.5 462 c 128,-1,18
 739 428 739 428 751.5 403.5 c 128,-1,19
 764 379 764 379 772 360.5 c 128,-1,20
 780 342 780 342 791 324 c 1,21,22
 809 359 809 359 833.5 406 c 128,-1,23
 858 453 858 453 889 522 c 2,24,-1
 915 582 l 2,25,26
 925 607 925 607 933.5 634.5 c 128,-1,27
 942 662 942 662 942 672 c 128,-1,28
 942 682 942 682 939 696.5 c 128,-1,29
 936 711 936 711 930 727 c 2,30,-1
 733 1159 l 2,31,32
 715 1198 715 1198 702.5 1220.5 c 128,-1,33
 690 1243 690 1243 676 1256.5 c 128,-1,34
 662 1270 662 1270 642.5 1275 c 128,-1,35
 623 1280 623 1280 594 1284 c 2,36,-1
 573 1286 l 1,37,38
 557 1298 557 1298 560 1325 c 128,-1,39
 563 1352 563 1352 580 1358 c 1,40,41
 646 1354 646 1354 708 1353 c 128,-1,42
 770 1352 770 1352 838 1352 c 0,43,44
 994 1352 994 1352 1073 1358 c 0,45,46
 1081 1356 1081 1356 1086.5 1345.5 c 128,-1,47
 1092 1335 1092 1335 1092 1323 c 128,-1,48
 1092 1311 1092 1311 1089.5 1300.5 c 128,-1,49
 1087 1290 1087 1290 1081 1286 c 2,50,-1
 1047 1278 l 2,51,52
 1029 1274 1029 1274 1010 1267 c 128,-1,53
 991 1260 991 1260 991 1249 c 0,54,55
 991 1237 991 1237 996 1220.5 c 128,-1,56
 1001 1204 1001 1204 1010 1188 c 2,57,-1
 1071 1047 l 2,58,59
 1085 1014 1085 1014 1099.5 982 c 128,-1,60
 1114 950 1114 950 1128 922 c 1,61,62
 1144 955 1144 955 1159 985.5 c 128,-1,63
 1174 1016 1174 1016 1190 1051 c 2,64,-1
 1208 1092 l 2,65,66
 1235 1151 1235 1151 1249.5 1192 c 128,-1,67
 1264 1233 1264 1233 1264 1243 c 128,-1,68
 1264 1253 1264 1253 1255.5 1259.5 c 128,-1,69
 1247 1266 1247 1266 1223 1272 c 2,70,-1
 1161 1286 l 1,71,72
 1151 1296 1151 1296 1152 1323 c 128,-1,73
 1153 1350 1153 1350 1167 1358 c 1,74,75
 1212 1354 1212 1354 1264.5 1353 c 128,-1,76
 1317 1352 1317 1352 1368 1352 c 0,77,78
 1427 1352 1427 1352 1481.5 1353 c 128,-1,79
 1536 1354 1536 1354 1577 1358 c 1,80,81
 1583 1354 1583 1354 1587 1343.5 c 128,-1,82
 1591 1333 1591 1333 1591 1322 c 128,-1,83
 1591 1311 1591 1311 1588 1300.5 c 128,-1,84
 1585 1290 1585 1290 1579 1284 c 1,85,-1
 1522 1272 l 2,86,87
 1495 1266 1495 1266 1477.5 1259.5 c 128,-1,88
 1460 1253 1460 1253 1445 1239 c 128,-1,89
 1430 1225 1430 1225 1411.5 1198 c 128,-1,90
 1393 1171 1393 1171 1366 1126 c 0,91,92
 1329 1063 1329 1063 1294.5 999.5 c 128,-1,93
 1260 936 1260 936 1239 895 c 0,94,95
 1225 866 1225 866 1209.5 831.5 c 128,-1,96
 1194 797 1194 797 1194 788 c 0,97,98
 1194 784 1194 784 1197 773 c 128,-1,99
 1200 762 1200 762 1210 737 c 2,100,-1
 1307 530 l 2,101,102
 1348 444 1348 444 1367 398 c 128,-1,103
 1386 352 1386 352 1397 330 c 1,104,105
 1471 510 1471 510 1543.5 696.5 c 128,-1,106
 1616 883 1616 883 1690 1071 c 0,107,108
 1696 1083 1696 1083 1705 1109 c 128,-1,109
 1714 1135 1714 1135 1723.5 1162.5 c 128,-1,110
 1733 1190 1733 1190 1739 1213.5 c 128,-1,111
 1745 1237 1745 1237 1745 1245 c 0,112,113
 1745 1261 1745 1261 1706 1274 c 2,114,-1
 1661 1286 l 1,115,116
 1649 1300 1649 1300 1651 1325 c 128,-1,117
 1653 1350 1653 1350 1667 1358 c 1,118,119
 1716 1354 1716 1354 1772.5 1353 c 128,-1,120
 1829 1352 1829 1352 1876 1352 c 0,121,122
 1978 1352 1978 1352 2064 1358 c 1,123,124
 2078 1350 2078 1350 2080 1324 c 2,125,-1
 2080 1317 l 2,126,127
 2080 1296 2080 1296 2071 1286 c 1,128,-1
 2009 1272 l 2,129,130
 1974 1264 1974 1264 1954.5 1252.5 c 128,-1,131
 1935 1241 1935 1241 1925 1227 c 0,132,133
 1909 1202 1909 1202 1881 1150 c 128,-1,134
 1853 1098 1853 1098 1812 999 c 0,135,136
 1775 909 1775 909 1717 777 c 128,-1,137
 1659 645 1659 645 1596.5 501.5 c 128,-1,138
 1534 358 1534 358 1475.5 221 c 128,-1,139
 1417 84 1417 84 1380 -16 c 1,140,141
 1370 -24 1370 -24 1351.5 -28.5 c 128,-1,142
 1333 -33 1333 -33 1313 -33 c 0,143,144
 1280 -33 1280 -33 1257 -16 c 1,145,146
 1241 21 1241 21 1219.5 71 c 128,-1,147
 1198 121 1198 121 1180 164 c 2,148,-1
 1094 358 l 2,149,150
 1071 407 1071 407 1052.5 450.5 c 128,-1,151
 1034 494 1034 494 1020 516 c 1,152,153
 1006 489 1006 489 988.5 453.5 c 128,-1,154
 971 418 971 418 950 375 c 2,155,-1
 854 166 l 2,156,157
 831 117 831 117 812 71 c 128,-1,158
 793 25 793 25 768 -27 c 1,159,160
 752 -43 752 -43 700 -43 c 0,161,162
 684 -43 684 -43 673 -39 c 128,-1,163
 662 -35 662 -35 647 -27 c 1,164,165
 635 6 635 6 614.5 54 c 128,-1,166
 594 102 594 102 569.5 159.5 c 128,-1,167
 545 217 545 217 517 278.5 c 128,-1,168
 489 340 489 340 463 397 c 2,169,-1
 127 1130 l 2,170,171
 107 1175 107 1175 92.5 1202 c 128,-1,172
 78 1229 78 1229 63.5 1243 c 128,-1,173
 49 1257 49 1257 32.5 1263.5 c 128,-1,174
 16 1270 16 1270 -8 1276 c 2,175,-1
 -59 1286 l 1,176,177
 -70 1300 -70 1300 -70 1321 c 2,178,-1
 -70 1326 l 2,0,1
EndSplineSet
Validated: 1
EndChar

StartChar: X
Encoding: 66 88 66
Width: 1361
Flags: W
LayerCount: 2
Fore
SplineSet
-36 26 m 0,0,1
 -37 31 -37 31 -36 36 c 0,2,3
 -36 53 -36 53 -25 61 c 1,4,-1
 23 68 l 2,5,6
 68 74 68 74 101.5 88 c 128,-1,7
 135 102 135 102 161.5 124.5 c 128,-1,8
 188 147 188 147 212 176 c 128,-1,9
 236 205 236 205 260 240 c 0,10,11
 283 269 283 269 312.5 310.5 c 128,-1,12
 342 352 342 352 376 400.5 c 128,-1,13
 410 449 410 449 445.5 500 c 128,-1,14
 481 551 481 551 514 600 c 0,15,16
 543 641 543 641 543 664 c 0,17,18
 543 670 543 670 536.5 685 c 128,-1,19
 530 700 530 700 510 729 c 0,20,21
 485 766 485 766 449.5 820 c 128,-1,22
 414 874 414 874 374 934.5 c 128,-1,23
 334 995 334 995 294 1056.5 c 128,-1,24
 254 1118 254 1118 217 1169 c 0,25,26
 182 1220 182 1220 143 1244 c 128,-1,27
 104 1268 104 1268 35 1280 c 2,28,-1
 0 1286 l 1,29,30
 -14 1298 -14 1298 -14 1323 c 128,-1,31
 -14 1348 -14 1348 2 1358 c 1,32,33
 51 1354 51 1354 139 1353 c 128,-1,34
 227 1352 227 1352 322 1352 c 0,35,36
 447 1352 447 1352 516.5 1353 c 128,-1,37
 586 1354 586 1354 633 1358 c 1,38,39
 649 1350 649 1350 650 1324 c 128,-1,40
 651 1298 651 1298 641 1286 c 1,41,-1
 596 1278 l 2,42,43
 571 1274 571 1274 548.5 1265.5 c 128,-1,44
 526 1257 526 1257 526 1247 c 0,45,46
 526 1233 526 1233 533.5 1216.5 c 128,-1,47
 541 1200 541 1200 559 1167 c 0,48,49
 600 1095 600 1095 646 1024.5 c 128,-1,50
 692 954 692 954 739 885 c 1,51,52
 796 971 796 971 845.5 1041.5 c 128,-1,53
 895 1112 895 1112 942 1194 c 0,54,55
 958 1223 958 1223 961.5 1235 c 128,-1,56
 965 1247 965 1247 965 1255 c 0,57,58
 965 1269 965 1269 924 1276 c 2,59,-1
 858 1286 l 1,60,61
 846 1296 846 1296 847 1323 c 128,-1,62
 848 1350 848 1350 864 1358 c 1,63,64
 958 1352 958 1352 1100 1352 c 0,65,66
 1174 1352 1174 1352 1231 1353 c 128,-1,67
 1288 1354 1288 1354 1337 1358 c 1,68,69
 1353 1350 1353 1350 1354.5 1325 c 128,-1,70
 1356 1300 1356 1300 1346 1286 c 1,71,-1
 1280 1278 l 2,72,73
 1247 1274 1247 1274 1219.5 1264.5 c 128,-1,74
 1192 1255 1192 1255 1163 1227 c 0,75,76
 1089 1151 1089 1151 1009.5 1052.5 c 128,-1,77
 930 954 930 954 858 856 c 0,78,79
 842 833 842 833 829.5 814 c 128,-1,80
 817 795 817 795 817 786 c 0,81,82
 817 766 817 766 846 723 c 0,83,84
 961 545 961 545 1039.5 424 c 128,-1,85
 1118 303 1118 303 1174 221 c 0,86,87
 1201 180 1201 180 1224 153.5 c 128,-1,88
 1247 127 1247 127 1270.5 110.5 c 128,-1,89
 1294 94 1294 94 1320 86 c 128,-1,90
 1346 78 1346 78 1374 74 c 2,91,-1
 1438 66 l 1,92,93
 1448 56 1448 56 1448 30 c 128,-1,94
 1448 4 1448 4 1432 -6 c 1,95,96
 1397 -4 1397 -4 1366 -3 c 128,-1,97
 1335 -2 1335 -2 1299.5 -1 c 128,-1,98
 1264 0 1264 0 1219 0 c 2,99,-1
 1112 0 l 2,100,101
 1006 0 1006 0 929 -1 c 128,-1,102
 852 -2 852 -2 768 -6 c 1,103,104
 754 0 754 0 749.5 28.5 c 128,-1,105
 745 57 745 57 762 66 c 1,106,-1
 817 72 l 2,107,108
 893 80 893 80 893 100 c 0,109,110
 893 106 893 106 891 113.5 c 128,-1,111
 889 121 889 121 883 134 c 128,-1,112
 877 147 877 147 864.5 167.5 c 128,-1,113
 852 188 852 188 834 221 c 0,114,115
 822 241 822 241 792 289.5 c 128,-1,116
 762 338 762 338 729 389 c 128,-1,117
 696 440 696 440 666.5 485 c 128,-1,118
 637 530 637 530 625 545 c 1,119,120
 566 457 566 457 501 354.5 c 128,-1,121
 436 252 436 252 385 154 c 0,122,123
 375 131 375 131 371 120 c 128,-1,124
 367 109 367 109 367 98 c 0,125,126
 367 78 367 78 432 72 c 2,127,-1
 485 66 l 1,128,129
 499 56 499 56 497.5 28 c 128,-1,130
 496 0 496 0 479 -6 c 1,131,132
 411 -2 411 -2 337.5 -1 c 128,-1,133
 264 0 264 0 199 0 c 0,134,135
 148 0 148 0 89.5 -1 c 128,-1,136
 31 -2 31 -2 -16 -6 c 1,137,138
 -32 2 -32 2 -36 26 c 0,0,1
EndSplineSet
Validated: 1
EndChar

StartChar: Y
Encoding: 67 89 67
Width: 1177
Flags: W
LayerCount: 2
Fore
SplineSet
-53 1326 m 2,0,1
 -51 1354 -51 1354 -33 1358 c 1,2,3
 37 1354 37 1354 101.5 1353 c 128,-1,4
 166 1352 166 1352 256 1352 c 0,5,6
 350 1352 350 1352 426 1353 c 128,-1,7
 502 1354 502 1354 555 1358 c 1,8,9
 569 1352 569 1352 571 1325 c 128,-1,10
 573 1298 573 1298 559 1286 c 1,11,-1
 489 1270 l 2,12,13
 460 1264 460 1264 450 1258.5 c 128,-1,14
 440 1253 440 1253 440 1251 c 0,15,16
 440 1239 440 1239 450.5 1209.5 c 128,-1,17
 461 1180 461 1180 494 1108 c 2,18,-1
 590 889 l 2,19,20
 613 838 613 838 639.5 782.5 c 128,-1,21
 666 727 666 727 684 688 c 1,22,23
 729 764 729 764 772 849 c 128,-1,24
 815 934 815 934 856 1012 c 0,25,26
 915 1123 915 1123 939 1177 c 128,-1,27
 963 1231 963 1231 963 1249 c 0,28,29
 963 1265 963 1265 893 1278 c 2,30,-1
 846 1286 l 1,31,32
 834 1294 834 1294 832.5 1322 c 128,-1,33
 831 1350 831 1350 848 1358 c 1,34,35
 971 1352 971 1352 1077 1352 c 0,36,37
 1136 1352 1136 1352 1184.5 1353 c 128,-1,38
 1233 1354 1233 1354 1278 1358 c 1,39,40
 1297 1352 1297 1352 1297 1320 c 0,41,42
 1297 1295 1297 1295 1286 1286 c 1,43,-1
 1233 1276 l 2,44,45
 1204 1272 1204 1272 1177.5 1260.5 c 128,-1,46
 1151 1249 1151 1249 1135 1227 c 0,47,48
 1112 1198 1112 1198 1070 1133.5 c 128,-1,49
 1028 1069 1028 1069 954 936 c 2,50,-1
 825 702 l 2,51,52
 805 665 805 665 791.5 636.5 c 128,-1,53
 778 608 778 608 769 578.5 c 128,-1,54
 760 549 760 549 756 515 c 128,-1,55
 752 481 752 481 752 438 c 2,56,-1
 752 295 l 2,57,58
 752 223 752 223 755 182 c 128,-1,59
 758 141 758 141 769 118.5 c 128,-1,60
 780 96 780 96 800.5 88 c 128,-1,61
 821 80 821 80 856 76 c 2,62,-1
 938 66 l 1,63,64
 948 56 948 56 948 30 c 128,-1,65
 948 4 948 4 938 -6 c 1,66,67
 838 -2 838 -2 759 -1 c 128,-1,68
 680 0 680 0 606 0 c 128,-1,69
 532 0 532 0 454.5 -1 c 128,-1,70
 377 -2 377 -2 285 -6 c 1,71,72
 273 4 273 4 272.5 29.5 c 128,-1,73
 272 55 272 55 285 66 c 1,74,-1
 354 76 l 2,75,76
 389 82 389 82 409.5 90 c 128,-1,77
 430 98 430 98 441.5 119.5 c 128,-1,78
 453 141 453 141 456 182 c 128,-1,79
 459 223 459 223 459 295 c 2,80,-1
 459 397 l 2,81,82
 459 436 459 436 458 464 c 128,-1,83
 457 492 457 492 451.5 517.5 c 128,-1,84
 446 543 446 543 435 571.5 c 128,-1,85
 424 600 424 600 403 641 c 2,86,-1
 160 1145 l 2,87,88
 129 1208 129 1208 105.5 1236 c 128,-1,89
 82 1264 82 1264 29 1274 c 2,90,-1
 -41 1286 l 1,91,92
 -53 1296 -53 1296 -53 1319 c 2,93,-1
 -53 1326 l 2,0,1
EndSplineSet
Validated: 1
EndChar

StartChar: Z
Encoding: 68 90 68
Width: 1257
Flags: W
LayerCount: 2
Fore
SplineSet
23 29 m 0,0,1
 35 41 35 41 56.5 72.5 c 128,-1,2
 78 104 78 104 104.5 144 c 128,-1,3
 131 184 131 184 159.5 226 c 128,-1,4
 188 268 188 268 211 303 c 2,5,-1
 614 918 l 2,6,7
 628 938 628 938 652 975 c 128,-1,8
 676 1012 676 1012 700.5 1053 c 128,-1,9
 725 1094 725 1094 748.5 1132.5 c 128,-1,10
 772 1171 772 1171 786 1196 c 0,11,12
 796 1216 796 1216 801.5 1225.5 c 128,-1,13
 807 1235 807 1235 807 1245 c 0,14,15
 807 1251 807 1251 791.5 1254 c 128,-1,16
 776 1257 776 1257 737 1257 c 2,17,-1
 516 1257 l 2,18,19
 426 1257 426 1257 370.5 1245 c 128,-1,20
 315 1233 315 1233 278.5 1204.5 c 128,-1,21
 242 1176 242 1176 217.5 1130.5 c 128,-1,22
 193 1085 193 1085 166 1022 c 1,23,24
 146 1010 146 1010 119 1015 c 128,-1,25
 92 1020 92 1020 82 1036 c 1,26,27
 111 1145 111 1145 128 1231 c 128,-1,28
 145 1317 145 1317 162 1399 c 1,29,30
 168 1405 168 1405 185.5 1405 c 128,-1,31
 203 1405 203 1405 215 1401 c 1,32,33
 219 1385 219 1385 226 1375.5 c 128,-1,34
 233 1366 233 1366 249.5 1361 c 128,-1,35
 266 1356 266 1356 299 1354 c 128,-1,36
 332 1352 332 1352 389 1352 c 2,37,-1
 975 1352 l 2,38,39
 1081 1352 1081 1352 1134.5 1353 c 128,-1,40
 1188 1354 1188 1354 1214 1358 c 1,41,42
 1230 1348 1230 1348 1227 1327 c 1,43,44
 1202 1300 1202 1300 1122 1188.5 c 128,-1,45
 1042 1077 1042 1077 920 889 c 2,46,-1
 696 543 l 2,47,48
 618 422 618 422 568 344 c 128,-1,49
 518 266 518 266 489.5 220 c 128,-1,50
 461 174 461 174 449.5 151.5 c 128,-1,51
 438 129 438 129 438 121 c 0,52,53
 438 115 438 115 444.5 109.5 c 128,-1,54
 451 104 451 104 470 101 c 128,-1,55
 489 98 489 98 527 96 c 128,-1,56
 565 94 565 94 627 94 c 2,57,-1
 817 94 l 2,58,59
 893 94 893 94 946 102.5 c 128,-1,60
 999 111 999 111 1041 137.5 c 128,-1,61
 1083 164 1083 164 1120 215 c 128,-1,62
 1157 266 1157 266 1200 352 c 1,63,64
 1218 364 1218 364 1244 359 c 128,-1,65
 1270 354 1270 354 1280 338 c 1,66,67
 1276 295 1276 295 1265.5 244 c 128,-1,68
 1255 193 1255 193 1243 143.5 c 128,-1,69
 1231 94 1231 94 1216.5 53 c 128,-1,70
 1202 12 1202 12 1190 -6 c 1,71,72
 1124 -4 1124 -4 1070 -3 c 128,-1,73
 1016 -2 1016 -2 964.5 -1 c 128,-1,74
 913 0 913 0 864 0 c 2,75,-1
 762 0 l 1,76,-1
 246 0 l 2,77,78
 88 0 88 0 39 -6 c 1,79,80
 30 -2 30 -2 24 8 c 0,81,82
 21 13 21 13 21 19 c 0,83,84
 21 24 21 24 23 29 c 0,0,1
EndSplineSet
Validated: 1
EndChar

StartChar: bracketleft
Encoding: 69 91 69
Width: 696
Flags: W
LayerCount: 2
Fore
SplineSet
248 -311 m 1,0,-1
 248 1409 l 1,1,2
 283 1411 283 1411 319.5 1411 c 2,3,-1
 408 1411 l 2,4,5
 494 1411 494 1411 552 1409 c 128,-1,6
 610 1407 610 1407 633 1403 c 0,7,8
 645 1397 645 1397 645 1371.5 c 128,-1,9
 645 1346 645 1346 635 1339 c 1,10,-1
 494 1317 l 2,11,12
 469 1313 469 1313 453.5 1301.5 c 128,-1,13
 438 1290 438 1290 430 1256.5 c 128,-1,14
 422 1223 422 1223 419 1159.5 c 128,-1,15
 416 1096 416 1096 416 989 c 2,16,-1
 416 109 l 2,17,18
 416 0 416 0 419 -62.5 c 128,-1,19
 422 -125 422 -125 430 -159 c 128,-1,20
 438 -193 438 -193 453.5 -204 c 128,-1,21
 469 -215 469 -215 494 -219 c 2,22,-1
 635 -242 l 1,23,24
 645 -248 645 -248 645 -273.5 c 128,-1,25
 645 -299 645 -299 633 -305 c 0,26,27
 610 -309 610 -309 552 -311 c 128,-1,28
 494 -313 494 -313 408 -313 c 2,29,-1
 320 -313 l 1,30,-1
 248 -311 l 1,0,-1
EndSplineSet
Validated: 524289
EndChar

StartChar: backslash
Encoding: 70 92 70
Width: 657
Flags: W
LayerCount: 2
Fore
SplineSet
41 1384 m 1,0,-1
 225 1384 l 1,1,-1
 616 -33 l 1,2,-1
 432 -33 l 1,3,-1
 41 1384 l 1,0,-1
EndSplineSet
Validated: 1
EndChar

StartChar: bracketright
Encoding: 71 93 71
Width: 696
Flags: W
LayerCount: 2
Fore
SplineSet
51 -273.5 m 128,-1,1
 51 -248 51 -248 61 -242 c 1,2,-1
 203 -219 l 2,3,4
 228 -215 228 -215 243 -204 c 128,-1,5
 258 -193 258 -193 266 -159 c 128,-1,6
 274 -125 274 -125 277.5 -62.5 c 128,-1,7
 281 0 281 0 281 109 c 2,8,-1
 281 989 l 2,9,10
 281 1095 281 1095 277.5 1159 c 128,-1,11
 274 1223 274 1223 266 1256.5 c 128,-1,12
 258 1290 258 1290 242.5 1301.5 c 128,-1,13
 227 1313 227 1313 203 1317 c 2,14,-1
 61 1339 l 1,15,16
 51 1345 51 1345 51 1371 c 128,-1,17
 51 1397 51 1397 63 1403 c 0,18,19
 86 1407 86 1407 144.5 1409 c 128,-1,20
 203 1411 203 1411 289 1411 c 2,21,-1
 377 1411 l 1,22,-1
 449 1409 l 1,23,-1
 449 -311 l 1,24,25
 414 -313 414 -313 377 -313 c 2,26,-1
 289 -313 l 2,27,28
 203 -313 203 -313 144.5 -311 c 128,-1,29
 86 -309 86 -309 63 -305 c 0,30,0
 51 -299 51 -299 51 -273.5 c 128,-1,1
EndSplineSet
Validated: 1
EndChar

StartChar: asciicircum
Encoding: 72 94 72
Width: 1064
LayerCount: 2
Fore
SplineSet
123 500 m 1,0,-1
 465 1282 l 1,1,-1
 604 1282 l 1,2,-1
 944 500 l 1,3,-1
 762 500 l 1,4,-1
 535 1038 l 1,5,-1
 307 500 l 1,6,-1
 123 500 l 1,0,-1
EndSplineSet
Validated: 1
EndChar

StartChar: underscore
Encoding: 73 95 73
Width: 1024
Flags: W
LayerCount: 2
Fore
SplineSet
0 -154 m 1,0,-1
 1024 -154 l 1,1,-1
 1024 -256 l 1,2,-1
 0 -256 l 1,3,-1
 0 -154 l 1,0,-1
EndSplineSet
Validated: 1
EndChar

StartChar: grave
Encoding: 74 96 74
Width: 778
Flags: W
LayerCount: 2
Fore
SplineSet
180 1296 m 0,0,1
 180 1327 180 1327 236 1370 c 0,2,3
 263 1388 263 1388 281 1395.5 c 128,-1,4
 299 1403 299 1403 315 1403 c 128,-1,5
 331 1403 331 1403 346.5 1389.5 c 128,-1,6
 362 1376 362 1376 379 1341 c 2,7,-1
 565 969 l 1,8,9
 559 930 559 930 514 936 c 1,10,-1
 225 1221 l 2,11,12
 205 1241 205 1241 192.5 1260.5 c 128,-1,13
 180 1280 180 1280 180 1296 c 0,0,1
EndSplineSet
Validated: 1
EndChar

StartChar: a
Encoding: 75 97 75
Width: 907
Flags: W
LayerCount: 2
Fore
SplineSet
66 186 m 0,0,1
 66 264 66 264 116 314.5 c 128,-1,2
 166 365 166 365 279 399 c 0,3,4
 338 417 338 417 383 430.5 c 128,-1,5
 428 444 428 444 471 457 c 0,6,7
 500 465 500 465 509 475 c 128,-1,8
 518 485 518 485 520 498 c 0,9,10
 522 514 522 514 523 531.5 c 128,-1,11
 524 549 524 549 524 567 c 0,12,13
 524 596 524 596 518 627.5 c 128,-1,14
 512 659 512 659 497.5 685 c 128,-1,15
 483 711 483 711 460.5 727 c 128,-1,16
 438 743 438 743 406 743 c 0,17,18
 369 743 369 743 339 717.5 c 128,-1,19
 309 692 309 692 299 627 c 0,20,21
 295 602 295 602 287 586.5 c 128,-1,22
 279 571 279 571 264 561 c 0,23,24
 252 553 252 553 233.5 545 c 128,-1,25
 215 537 215 537 193.5 529.5 c 128,-1,26
 172 522 172 522 151.5 518 c 128,-1,27
 131 514 131 514 117 514 c 0,28,29
 90 514 90 514 80 528.5 c 128,-1,30
 70 543 70 543 70 565 c 0,31,32
 70 606 70 606 100.5 650 c 128,-1,33
 131 694 131 694 168 723 c 0,34,35
 195 743 195 743 230.5 765.5 c 128,-1,36
 266 788 266 788 311 806.5 c 128,-1,37
 356 825 356 825 406.5 836.5 c 128,-1,38
 457 848 457 848 512 848 c 0,39,40
 642 848 642 848 712 780 c 0,41,42
 775 718 775 718 775 583 c 0,43,44
 775 568 775 568 774 551 c 2,45,-1
 760 281 l 2,46,47
 759 265 759 265 759 250 c 0,48,49
 759 217 759 217 765 194 c 0,50,51
 774 160 774 160 787.5 140.5 c 128,-1,52
 801 121 801 121 818.5 112.5 c 128,-1,53
 836 104 836 104 852 104 c 0,54,55
 870 104 870 104 887.5 109.5 c 128,-1,56
 905 115 905 115 930 129 c 1,57,58
 944 124 944 124 951 110 c 0,59,60
 955 101 955 101 955 92 c 0,61,62
 955 87 955 87 954 82 c 0,63,64
 944 70 944 70 922.5 51.5 c 128,-1,65
 901 33 901 33 870.5 14.5 c 128,-1,66
 840 -4 840 -4 800 -16.5 c 128,-1,67
 760 -29 760 -29 717 -29 c 0,68,69
 664 -29 664 -29 625 -10.5 c 128,-1,70
 586 8 586 8 545 43 c 0,71,72
 527 59 527 59 512 59 c 0,73,74
 502 59 502 59 469 37 c 0,75,76
 440 17 440 17 396 -6 c 128,-1,77
 352 -29 352 -29 295 -29 c 0,78,79
 250 -29 250 -29 209 -15.5 c 128,-1,80
 168 -2 168 -2 136 24.5 c 128,-1,81
 104 51 104 51 85 92 c 128,-1,82
 66 133 66 133 66 186 c 0,0,1
328 227 m 0,83,84
 328 178 328 178 358.5 141 c 128,-1,85
 389 104 389 104 432 104 c 0,86,87
 479 104 479 104 493.5 131 c 128,-1,88
 508 158 508 158 510 205 c 2,89,-1
 514 334 l 2,90,91
 515 344 515 344 515 351 c 0,92,93
 515 362 515 362 513 366 c 0,94,95
 511 371 511 371 504 371 c 2,96,-1
 500 371 l 1,97,98
 430 361 430 361 379 330 c 128,-1,99
 328 299 328 299 328 227 c 0,83,84
EndSplineSet
Validated: 1
EndChar

StartChar: b
Encoding: 76 98 76
Width: 1089
Flags: W
LayerCount: 2
Fore
SplineSet
49 1318.5 m 128,-1,1
 49 1339 49 1339 59 1350 c 1,2,3
 125 1366 125 1366 211 1398 c 128,-1,4
 297 1430 297 1430 375 1464 c 1,5,6
 398 1464 398 1464 410 1450 c 1,7,8
 406 1387 406 1387 403.5 1318 c 128,-1,9
 401 1249 401 1249 401 1151 c 2,10,-1
 401 842 l 2,11,12
 401 815 401 815 408.5 805 c 128,-1,13
 416 795 416 795 426 791 c 1,14,15
 467 814 467 814 522.5 831 c 128,-1,16
 578 848 578 848 643 848 c 0,17,18
 729 848 729 848 799.5 817 c 128,-1,19
 870 786 870 786 920.5 731 c 128,-1,20
 971 676 971 676 998.5 601 c 128,-1,21
 1026 526 1026 526 1026 438 c 0,22,23
 1026 327 1026 327 989 240.5 c 128,-1,24
 952 154 952 154 884.5 93.5 c 128,-1,25
 817 33 817 33 725 2 c 128,-1,26
 633 -29 633 -29 522 -29 c 0,27,28
 452 -29 452 -29 392 -16.5 c 128,-1,29
 332 -4 332 -4 303 8 c 0,30,31
 256 26 256 26 240 27 c 0,32,33
 224 27 224 27 202 16.5 c 128,-1,34
 180 6 180 6 170 -4 c 1,35,36
 147 -8 147 -8 129 10 c 1,37,38
 135 49 135 49 135 213 c 2,39,-1
 135 1139 l 2,40,41
 135 1200 135 1200 130 1224.5 c 128,-1,42
 125 1249 125 1249 94 1268 c 2,43,-1
 59 1288 l 2,44,0
 49 1298 49 1298 49 1318.5 c 128,-1,1
401 289 m 2,45,46
 401 248 401 248 410.5 209 c 128,-1,47
 420 170 420 170 442 135 c 0,48,49
 462 104 462 104 493 85 c 128,-1,50
 524 66 524 66 563 66 c 0,51,52
 612 66 612 66 647 91.5 c 128,-1,53
 682 117 682 117 703.5 159 c 128,-1,54
 725 201 725 201 734 257 c 128,-1,55
 743 313 743 313 743 375 c 0,56,57
 743 451 743 451 726 514.5 c 128,-1,58
 709 578 709 578 676 624 c 128,-1,59
 643 670 643 670 599 694.5 c 128,-1,60
 555 719 555 719 502 719 c 0,61,62
 473 719 473 719 452.5 713 c 128,-1,63
 432 707 432 707 420 696 c 0,64,65
 410 688 410 688 405.5 663.5 c 128,-1,66
 401 639 401 639 401 602 c 2,67,-1
 401 289 l 2,45,46
EndSplineSet
Validated: 1
EndChar

StartChar: c
Encoding: 77 99 77
Width: 851
Flags: W
LayerCount: 2
Fore
SplineSet
63 385 m 0,0,1
 63 494 63 494 104 580 c 128,-1,2
 145 666 145 666 216 725 c 128,-1,3
 287 784 287 784 379 816 c 128,-1,4
 471 848 471 848 575 848 c 0,5,6
 628 848 628 848 689 838.5 c 128,-1,7
 750 829 750 829 791 813 c 1,8,9
 811 797 811 797 822.5 772.5 c 128,-1,10
 834 748 834 748 834 707 c 0,11,12
 834 660 834 660 816.5 625 c 128,-1,13
 799 590 799 590 780 590 c 0,14,15
 772 590 772 590 762 593 c 128,-1,16
 752 596 752 596 748 600 c 0,17,18
 705 661 705 661 648.5 707.5 c 128,-1,19
 592 754 592 754 537 754 c 0,20,21
 488 754 488 754 449 728 c 128,-1,22
 410 702 410 702 384 660 c 128,-1,23
 358 618 358 618 345 566 c 128,-1,24
 332 514 332 514 332 461 c 0,25,26
 332 400 332 400 351.5 341.5 c 128,-1,27
 371 283 371 283 407.5 236.5 c 128,-1,28
 444 190 444 190 498.5 162.5 c 128,-1,29
 553 135 553 135 625 135 c 0,30,31
 682 135 682 135 727 156.5 c 128,-1,32
 772 178 772 178 807 236 c 1,33,34
 825 238 825 238 842.5 226.5 c 128,-1,35
 860 215 860 215 860 190 c 1,36,37
 844 151 844 151 812 112.5 c 128,-1,38
 780 74 780 74 735 42 c 128,-1,39
 690 10 690 10 630.5 -9.5 c 128,-1,40
 571 -29 571 -29 498 -29 c 0,41,42
 402 -29 402 -29 322 2 c 128,-1,43
 242 33 242 33 184.5 88 c 128,-1,44
 127 143 127 143 95 219 c 128,-1,45
 63 295 63 295 63 385 c 0,0,1
EndSplineSet
Validated: 1
EndChar

StartChar: d
Encoding: 78 100 78
Width: 1099
Flags: W
LayerCount: 2
Fore
SplineSet
63 375 m 0,0,1
 63 484 63 484 101 570.5 c 128,-1,2
 139 657 139 657 205.5 718.5 c 128,-1,3
 272 780 272 780 360.5 814 c 128,-1,4
 449 848 449 848 551 848 c 0,5,6
 586 848 586 848 618.5 845 c 128,-1,7
 651 842 651 842 668 838 c 1,8,9
 678 842 678 842 683 853 c 128,-1,10
 688 864 688 864 688 877 c 2,11,-1
 688 1139 l 2,12,13
 688 1200 688 1200 683 1224.5 c 128,-1,14
 678 1249 678 1249 647 1268 c 2,15,-1
 612 1288 l 2,16,17
 600 1298 600 1298 601 1318.5 c 128,-1,18
 602 1339 602 1339 612 1350 c 1,19,20
 678 1366 678 1366 764 1398 c 128,-1,21
 850 1430 850 1430 926 1464 c 1,22,23
 949 1464 949 1464 961 1450 c 1,24,25
 957 1387 957 1387 955.5 1318 c 128,-1,26
 954 1249 954 1249 954 1151 c 2,27,-1
 954 336 l 2,28,29
 954 264 954 264 956 217 c 128,-1,30
 958 170 958 170 963.5 143.5 c 128,-1,31
 969 117 969 117 978 106.5 c 128,-1,32
 987 96 987 96 1001 96 c 0,33,34
 1030 96 1030 96 1046.5 99 c 128,-1,35
 1063 102 1063 102 1090 113 c 1,36,37
 1107 98 1107 98 1107 66 c 0,38,39
 1107 39 1107 39 1092 25 c 1,40,41
 1016 21 1016 21 949.5 8.5 c 128,-1,42
 883 -4 883 -4 833.5 -16.5 c 128,-1,43
 784 -29 784 -29 754.5 -39 c 128,-1,44
 725 -49 725 -49 723 -49 c 0,45,46
 713 -49 713 -49 702.5 -41 c 128,-1,47
 692 -33 692 -33 688 -20 c 1,48,-1
 694 43 l 1,49,50
 690 70 690 70 676 59 c 0,51,52
 623 24 623 24 567.5 -2.5 c 128,-1,53
 512 -29 512 -29 455 -29 c 0,54,55
 367 -29 367 -29 295 3 c 128,-1,56
 223 35 223 35 172 90 c 128,-1,57
 121 145 121 145 92 218 c 128,-1,58
 63 291 63 291 63 375 c 0,0,1
350 430 m 0,59,60
 350 379 350 379 362.5 322.5 c 128,-1,61
 375 266 375 266 402.5 218 c 128,-1,62
 430 170 430 170 473 139.5 c 128,-1,63
 516 109 516 109 580 109 c 0,64,65
 623 109 623 109 664 133 c 0,66,67
 680 143 680 143 684 162.5 c 128,-1,68
 688 182 688 182 688 211 c 2,69,-1
 688 608 l 2,70,71
 688 633 688 633 684 649.5 c 128,-1,72
 680 666 680 666 674 678 c 0,73,74
 656 711 656 711 624 732.5 c 128,-1,75
 592 754 592 754 557 754 c 0,76,77
 518 754 518 754 481 733.5 c 128,-1,78
 444 713 444 713 414.5 673 c 128,-1,79
 385 633 385 633 367.5 571.5 c 128,-1,80
 350 510 350 510 350 430 c 0,59,60
EndSplineSet
Validated: 1
EndChar

StartChar: e
Encoding: 79 101 79
Width: 860
Flags: W
LayerCount: 2
Fore
SplineSet
66 389 m 0,0,1
 66 485 66 485 98.5 569 c 128,-1,2
 131 653 131 653 190.5 714.5 c 128,-1,3
 250 776 250 776 331 812 c 128,-1,4
 412 848 412 848 508 848 c 0,5,6
 588 848 588 848 649.5 824.5 c 128,-1,7
 711 801 711 801 752 760 c 128,-1,8
 793 719 793 719 814.5 665.5 c 128,-1,9
 836 612 836 612 836 553 c 0,10,11
 836 524 836 524 822.5 504.5 c 128,-1,12
 809 485 809 485 762 485 c 2,13,-1
 369 485 l 2,14,15
 334 485 334 485 325.5 479 c 128,-1,16
 317 473 317 473 317 449 c 0,17,18
 317 392 317 392 335.5 337.5 c 128,-1,19
 354 283 354 283 390 240 c 128,-1,20
 426 197 426 197 480.5 171 c 128,-1,21
 535 145 535 145 606 145 c 0,22,23
 626 145 626 145 652 148.5 c 128,-1,24
 678 152 678 152 702.5 163 c 128,-1,25
 727 174 727 174 751.5 195.5 c 128,-1,26
 776 217 776 217 797 252 c 1,27,28
 813 256 813 256 831.5 243.5 c 128,-1,29
 850 231 850 231 850 205 c 1,30,31
 819 139 819 139 776 95 c 128,-1,32
 733 51 733 51 685 23.5 c 128,-1,33
 637 -4 637 -4 587 -16.5 c 128,-1,34
 537 -29 537 -29 492 -29 c 0,35,36
 388 -29 388 -29 308.5 5 c 128,-1,37
 229 39 229 39 175 96.5 c 128,-1,38
 121 154 121 154 93.5 229.5 c 128,-1,39
 66 305 66 305 66 389 c 0,0,1
334 606 m 0,40,41
 334 583 334 583 356.5 579 c 128,-1,42
 379 575 379 575 428 575 c 2,43,-1
 504 575 l 2,44,45
 527 575 527 575 549 579.5 c 128,-1,46
 571 584 571 584 588 594 c 0,47,48
 596 598 596 598 599 611.5 c 128,-1,49
 602 625 602 625 602 641 c 0,50,51
 602 692 602 692 574.5 723 c 128,-1,52
 547 754 547 754 494 754 c 0,53,54
 461 754 461 754 432 739.5 c 128,-1,55
 403 725 403 725 381.5 703.5 c 128,-1,56
 360 682 360 682 347 656.5 c 128,-1,57
 334 631 334 631 334 606 c 0,40,41
EndSplineSet
Validated: 1
EndChar

StartChar: f
Encoding: 80 102 80
Width: 636
Flags: W
LayerCount: 2
Fore
SplineSet
33 736 m 2,0,-1
 33 743 l 2,1,2
 33 758 33 758 39 764 c 2,3,-1
 127 809 l 2,4,5
 147 819 147 819 159.5 830.5 c 128,-1,6
 172 842 172 842 172 862 c 0,7,8
 172 895 172 895 175 938 c 128,-1,9
 178 981 178 981 184 1027 c 128,-1,10
 190 1073 190 1073 201.5 1118 c 128,-1,11
 213 1163 213 1163 229 1200 c 0,12,13
 252 1251 252 1251 284.5 1298.5 c 128,-1,14
 317 1346 317 1346 365.5 1382.5 c 128,-1,15
 414 1419 414 1419 479.5 1441.5 c 128,-1,16
 545 1464 545 1464 631 1464 c 0,17,18
 676 1464 676 1464 719 1453 c 128,-1,19
 762 1442 762 1442 795.5 1420.5 c 128,-1,20
 829 1399 829 1399 849.5 1367 c 128,-1,21
 870 1335 870 1335 870 1296 c 0,22,23
 870 1245 870 1245 837.5 1215.5 c 128,-1,24
 805 1186 805 1186 752 1186 c 0,25,26
 719 1186 719 1186 699.5 1198 c 128,-1,27
 680 1210 680 1210 670 1223 c 0,28,29
 604 1307 604 1307 573.5 1332.5 c 128,-1,30
 543 1358 543 1358 524 1358 c 0,31,32
 483 1358 483 1358 460.5 1304.5 c 128,-1,33
 438 1251 438 1251 438 1108 c 2,34,-1
 438 877 l 2,35,36
 438 836 438 836 445.5 827.5 c 128,-1,37
 453 819 453 819 492 819 c 2,38,-1
 686 819 l 1,39,40
 700 811 700 811 700 778 c 0,41,42
 700 758 700 758 694 738.5 c 128,-1,43
 688 719 688 719 674 709 c 1,44,-1
 492 709 l 2,45,46
 453 709 453 709 445.5 700.5 c 128,-1,47
 438 692 438 692 438 651 c 2,48,-1
 438 238 l 2,49,50
 438 183 438 183 440 150 c 128,-1,51
 442 117 442 117 450.5 99.5 c 128,-1,52
 459 82 459 82 474 76 c 128,-1,53
 489 70 489 70 514 68 c 2,54,-1
 582 61 l 1,55,56
 594 51 594 51 594 27.5 c 128,-1,57
 594 4 594 4 580 -6 c 1,58,59
 508 -2 508 -2 440.5 -1 c 128,-1,60
 373 0 373 0 301 0 c 0,61,62
 231 0 231 0 168.5 -1 c 128,-1,63
 106 -2 106 -2 59 -6 c 1,64,65
 45 4 45 4 45 27.5 c 128,-1,66
 45 51 45 51 57 61 c 1,67,-1
 90 66 l 2,68,69
 117 68 117 68 133.5 75 c 128,-1,70
 150 82 150 82 159 99.5 c 128,-1,71
 168 117 168 117 170 149.5 c 128,-1,72
 172 182 172 182 172 238 c 2,73,-1
 172 651 l 2,74,75
 172 692 172 692 164 700.5 c 128,-1,76
 156 709 156 709 121 709 c 2,77,-1
 45 709 l 1,78,79
 35 715 35 715 33 736 c 2,0,-1
EndSplineSet
Validated: 1
EndChar

StartChar: g
Encoding: 81 103 81
Width: 980
Flags: W
LayerCount: 2
Fore
SplineSet
39 -289 m 0,0,1
 39 -252 39 -252 58.5 -227.5 c 128,-1,2
 78 -203 78 -203 104 -186 c 0,3,4
 135 -168 135 -168 161.5 -150.5 c 128,-1,5
 188 -133 188 -133 205 -123 c 0,6,7
 223 -113 223 -113 221 -105.5 c 128,-1,8
 219 -98 219 -98 207 -94 c 0,9,10
 150 -76 150 -76 115 -30 c 128,-1,11
 80 16 80 16 80 70 c 0,12,13
 80 99 80 99 94 113 c 0,14,15
 137 142 137 142 176 170.5 c 128,-1,16
 215 199 215 199 225 209 c 0,17,18
 239 219 239 219 244.5 229.5 c 128,-1,19
 250 240 250 240 242 254 c 1,20,21
 164 285 164 285 116 354.5 c 128,-1,22
 68 424 68 424 68 518 c 0,23,24
 68 581 68 581 92.5 640.5 c 128,-1,25
 117 700 117 700 167 746.5 c 128,-1,26
 217 793 217 793 292 820.5 c 128,-1,27
 367 848 367 848 467 848 c 0,28,29
 559 848 559 848 637 825.5 c 128,-1,30
 715 803 715 803 772 772 c 1,31,-1
 1008 772 l 1,32,33
 1026 756 1026 756 1026 721 c 0,34,35
 1026 696 1026 696 1019 672.5 c 128,-1,36
 1012 649 1012 649 995 639 c 1,37,-1
 844 639 l 1,38,39
 848 625 848 625 849 609.5 c 128,-1,40
 850 594 850 594 850 567 c 0,41,42
 850 506 850 506 829.5 442.5 c 128,-1,43
 809 379 809 379 761 326.5 c 128,-1,44
 713 274 713 274 632 241.5 c 128,-1,45
 551 209 551 209 430 209 c 0,46,47
 405 209 405 209 383.5 211 c 128,-1,48
 362 213 362 213 346 215 c 1,49,50
 311 201 311 201 311 166 c 128,-1,51
 311 131 311 131 340 111.5 c 128,-1,52
 369 92 369 92 416 92 c 0,53,54
 469 92 469 92 531.5 94 c 128,-1,55
 594 96 594 96 666 96 c 0,56,57
 723 96 723 96 780.5 87 c 128,-1,58
 838 78 838 78 883 50.5 c 128,-1,59
 928 23 928 23 955.5 -25.5 c 128,-1,60
 983 -74 983 -74 983 -152 c 0,61,62
 983 -250 983 -250 931 -331 c 128,-1,63
 879 -412 879 -412 799 -461 c 0,64,65
 719 -508 719 -508 624.5 -529.5 c 128,-1,66
 530 -551 530 -551 440 -551 c 0,67,68
 329 -551 329 -551 252.5 -527.5 c 128,-1,69
 176 -504 176 -504 129 -467 c 128,-1,70
 82 -430 82 -430 60.5 -383 c 128,-1,71
 39 -336 39 -336 39 -289 c 0,0,1
287 -213 m 0,72,73
 287 -317 287 -317 358.5 -379.5 c 128,-1,74
 430 -442 430 -442 553 -442 c 0,75,76
 651 -442 651 -442 709.5 -398 c 128,-1,77
 768 -354 768 -354 768 -281 c 0,78,79
 768 -191 768 -191 710.5 -153 c 128,-1,80
 653 -115 653 -115 567 -115 c 2,81,-1
 430 -115 l 2,82,83
 389 -115 389 -115 359.5 -123 c 128,-1,84
 330 -131 330 -131 315 -141 c 0,85,86
 286 -168 286 -168 287 -213 c 0,72,73
334 553 m 0,87,88
 334 436 334 436 374 368.5 c 128,-1,89
 414 301 414 301 475 301 c 0,90,91
 522 301 522 301 557 349 c 128,-1,92
 592 397 592 397 592 510 c 0,93,94
 592 635 592 635 553 694.5 c 128,-1,95
 514 754 514 754 459 754 c 0,96,97
 412 754 412 754 373 705.5 c 128,-1,98
 334 657 334 657 334 553 c 0,87,88
EndSplineSet
Validated: 33
EndChar

StartChar: h
Encoding: 82 104 82
Width: 1120
Flags: W
LayerCount: 2
Fore
SplineSet
39 29.5 m 128,-1,1
 39 55 39 55 51 66 c 1,2,-1
 88 70 l 2,3,4
 113 72 113 72 128 79 c 128,-1,5
 143 86 143 86 151.5 103.5 c 128,-1,6
 160 121 160 121 162 152.5 c 128,-1,7
 164 184 164 184 164 238 c 2,8,-1
 164 1139 l 2,9,10
 164 1200 164 1200 159 1224.5 c 128,-1,11
 154 1249 154 1249 123 1268 c 2,12,-1
 88 1288 l 2,13,14
 78 1298 78 1298 78 1318.5 c 128,-1,15
 78 1339 78 1339 88 1350 c 1,16,17
 154 1366 154 1366 236.5 1398 c 128,-1,18
 319 1430 319 1430 401 1464 c 1,19,20
 424 1464 424 1464 436 1450 c 1,21,22
 432 1387 432 1387 431 1318 c 128,-1,23
 430 1249 430 1249 430 1151 c 2,24,-1
 430 774 l 2,25,26
 430 749 430 749 444 750 c 0,27,28
 450 750 450 750 477 766 c 0,29,30
 512 789 512 789 573.5 818.5 c 128,-1,31
 635 848 635 848 713 848 c 0,32,33
 776 848 776 848 825 827.5 c 128,-1,34
 874 807 874 807 906 772 c 128,-1,35
 938 737 938 737 954.5 690 c 128,-1,36
 971 643 971 643 971 590 c 2,37,-1
 971 238 l 2,38,39
 971 185 971 185 973 153 c 128,-1,40
 975 121 975 121 984 103.5 c 128,-1,41
 993 86 993 86 1008.5 79 c 128,-1,42
 1024 72 1024 72 1053 70 c 2,43,-1
 1085 66 l 1,44,45
 1098 56 1098 56 1098 28 c 0,46,47
 1098 3 1098 3 1083 -6 c 1,48,49
 987 0 987 0 836 0 c 0,50,51
 770 0 770 0 709.5 -1 c 128,-1,52
 649 -2 649 -2 614 -6 c 1,53,54
 600 4 600 4 600 29.5 c 128,-1,55
 600 55 600 55 612 66 c 1,56,-1
 649 72 l 2,57,58
 667 74 667 74 677.5 80 c 128,-1,59
 688 86 688 86 694 100.5 c 128,-1,60
 700 115 700 115 702.5 139.5 c 128,-1,61
 705 164 705 164 705 207 c 2,62,-1
 705 561 l 2,63,64
 705 614 705 614 671 656 c 128,-1,65
 637 698 637 698 561 698 c 0,66,67
 518 698 518 698 488.5 682 c 128,-1,68
 459 666 459 666 446 649 c 0,69,70
 430 631 430 631 430 573 c 2,71,-1
 430 207 l 2,72,73
 430 164 430 164 432 139.5 c 128,-1,74
 434 115 434 115 440 100.5 c 128,-1,75
 446 86 446 86 456.5 80 c 128,-1,76
 467 74 467 74 485 72 c 2,77,-1
 522 66 l 1,78,79
 534 56 534 56 534.5 30 c 128,-1,80
 535 4 535 4 520 -6 c 1,81,82
 473 -2 473 -2 420 -1 c 128,-1,83
 367 0 367 0 293 0 c 0,84,85
 230 0 230 0 168 -1 c 128,-1,86
 106 -2 106 -2 53 -6 c 1,87,0
 39 4 39 4 39 29.5 c 128,-1,1
EndSplineSet
Validated: 1
EndChar

StartChar: i
Encoding: 83 105 83
Width: 585
Flags: W
LayerCount: 2
Fore
SplineSet
45 29.5 m 128,-1,1
 45 55 45 55 57 66 c 1,2,-1
 96 70 l 2,3,4
 121 72 121 72 136.5 78 c 128,-1,5
 152 84 152 84 160 101.5 c 128,-1,6
 168 119 168 119 170 151.5 c 128,-1,7
 172 184 172 184 172 238 c 2,8,-1
 172 547 l 2,9,10
 172 608 172 608 167 633.5 c 128,-1,11
 162 659 162 659 133 678 c 2,12,-1
 104 696 l 2,13,14
 94 706 94 706 94 727 c 128,-1,15
 94 748 94 748 104 758 c 1,16,17
 141 768 141 768 184 782.5 c 128,-1,18
 227 797 227 797 269 813 c 128,-1,19
 311 829 311 829 348 845.5 c 128,-1,20
 385 862 385 862 408 877 c 1,21,22
 433 877 433 877 444 858 c 1,23,24
 440 811 440 811 439 747.5 c 128,-1,25
 438 684 438 684 438 614 c 2,26,-1
 438 238 l 2,27,28
 438 185 438 185 440 152 c 128,-1,29
 442 119 442 119 450.5 101.5 c 128,-1,30
 459 84 459 84 474 78 c 128,-1,31
 489 72 489 72 514 70 c 2,32,-1
 553 66 l 1,33,34
 565 56 565 56 565 30 c 128,-1,35
 565 4 565 4 551 -6 c 1,36,37
 442 0 442 0 305 0 c 0,38,39
 235 0 235 0 173 -1 c 128,-1,40
 111 -2 111 -2 59 -6 c 1,41,0
 45 4 45 4 45 29.5 c 128,-1,1
158 1159 m 0,42,43
 158 1227 158 1227 204 1268 c 128,-1,44
 250 1309 250 1309 311 1309 c 0,45,46
 377 1309 377 1309 416 1267 c 128,-1,47
 455 1225 455 1225 455 1163 c 0,48,49
 455 1089 455 1089 407.5 1051.5 c 128,-1,50
 360 1014 360 1014 301 1014 c 0,51,52
 233 1014 233 1014 195.5 1055 c 128,-1,53
 158 1096 158 1096 158 1159 c 0,42,43
EndSplineSet
Validated: 1
EndChar

StartChar: j
Encoding: 84 106 84
Width: 575
Flags: W
LayerCount: 2
Fore
SplineSet
-45 -520 m 0,0,1
 -49 -510 -49 -510 -49 -502 c 0,2,3
 -49 -491 -49 -491 -43 -483 c 1,4,5
 -10 -467 -10 -467 16.5 -446.5 c 128,-1,6
 43 -426 43 -426 57 -410 c 0,7,8
 116 -351 116 -351 145 -237 c 128,-1,9
 174 -123 174 -123 174 66 c 2,10,-1
 174 547 l 2,11,12
 174 608 174 608 169 633.5 c 128,-1,13
 164 659 164 659 135 678 c 2,14,-1
 106 696 l 2,15,16
 96 706 96 706 96 727 c 128,-1,17
 96 748 96 748 106 758 c 1,18,19
 143 768 143 768 186 782.5 c 128,-1,20
 229 797 229 797 270 813 c 128,-1,21
 311 829 311 829 348 845.5 c 128,-1,22
 385 862 385 862 410 877 c 1,23,24
 435 877 435 877 446 858 c 1,25,26
 442 811 442 811 441 747.5 c 128,-1,27
 440 684 440 684 440 614 c 2,28,-1
 440 109 l 2,29,30
 440 3 440 3 430 -79.5 c 128,-1,31
 420 -162 420 -162 397 -221 c 0,32,33
 377 -276 377 -276 347 -322.5 c 128,-1,34
 317 -369 317 -369 270 -409 c 128,-1,35
 223 -449 223 -449 153.5 -483.5 c 128,-1,36
 84 -518 84 -518 -14 -551 c 1,37,38
 -37 -543 -37 -543 -45 -520 c 0,0,1
160 1159 m 0,39,40
 160 1227 160 1227 206 1268 c 128,-1,41
 252 1309 252 1309 313 1309 c 0,42,43
 379 1309 379 1309 418 1267 c 128,-1,44
 457 1225 457 1225 457 1163 c 0,45,46
 457 1089 457 1089 409.5 1051.5 c 128,-1,47
 362 1014 362 1014 303 1014 c 0,48,49
 235 1014 235 1014 197.5 1055 c 128,-1,50
 160 1096 160 1096 160 1159 c 0,39,40
EndSplineSet
Validated: 1
EndChar

StartChar: k
Encoding: 85 107 85
Width: 1089
Flags: W
LayerCount: 2
Fore
SplineSet
23 29.5 m 128,-1,1
 23 55 23 55 35 66 c 1,2,-1
 74 70 l 2,3,4
 101 72 101 72 117 79 c 128,-1,5
 133 86 133 86 142.5 103.5 c 128,-1,6
 152 121 152 121 154 152.5 c 128,-1,7
 156 184 156 184 156 238 c 2,8,-1
 156 1139 l 2,9,10
 156 1200 156 1200 150.5 1224.5 c 128,-1,11
 145 1249 145 1249 115 1268 c 2,12,-1
 80 1288 l 2,13,14
 70 1298 70 1298 70 1318.5 c 128,-1,15
 70 1339 70 1339 80 1350 c 1,16,17
 143 1366 143 1366 229 1398 c 128,-1,18
 315 1430 315 1430 393 1464 c 1,19,20
 416 1464 416 1464 428 1450 c 1,21,22
 424 1387 424 1387 423 1318 c 128,-1,23
 422 1249 422 1249 422 1151 c 2,24,-1
 422 508 l 2,25,26
 422 479 422 479 451 479 c 0,27,28
 478 479 478 479 508.5 490.5 c 128,-1,29
 539 502 539 502 569 537 c 2,30,-1
 655 637 l 2,31,32
 684 672 684 672 694.5 690.5 c 128,-1,33
 705 709 705 709 705 719 c 0,34,35
 705 727 705 727 692.5 732 c 128,-1,36
 680 737 680 737 666 739 c 2,37,-1
 614 748 l 1,38,39
 600 762 600 762 601 787.5 c 128,-1,40
 602 813 602 813 618 819 c 1,41,-1
 668 819 l 2,42,43
 705 819 705 819 752 821 c 128,-1,44
 799 823 799 823 851 826 c 128,-1,45
 903 829 903 829 956.5 835.5 c 128,-1,46
 1010 842 1010 842 1055 848 c 1,47,48
 1071 840 1071 840 1072 814 c 128,-1,49
 1073 788 1073 788 1063 776 c 1,50,-1
 997 762 l 2,51,52
 968 756 968 756 934.5 739.5 c 128,-1,53
 901 723 901 723 860 690 c 0,54,55
 801 645 801 645 773 619.5 c 128,-1,56
 745 594 745 594 723 571 c 0,57,58
 711 557 711 557 711 545 c 128,-1,59
 711 533 711 533 725 510 c 0,60,61
 739 485 739 485 775 428 c 128,-1,62
 811 371 811 371 853 307.5 c 128,-1,63
 895 244 895 244 935 190.5 c 128,-1,64
 975 137 975 137 993 119 c 0,65,66
 1016 99 1016 99 1044.5 89.5 c 128,-1,67
 1073 80 1073 80 1114 72 c 2,68,-1
 1145 66 l 1,69,70
 1155 57 1155 57 1155 36 c 2,71,-1
 1155 28 l 2,72,73
 1153 0 1153 0 1137 -6 c 1,74,75
 1090 -2 1090 -2 1029.5 -1 c 128,-1,76
 969 0 969 0 879 0 c 0,77,78
 787 0 787 0 728.5 -1 c 128,-1,79
 670 -2 670 -2 627 -6 c 1,80,81
 611 2 611 2 608.5 26.5 c 128,-1,82
 606 51 606 51 618 66 c 1,83,-1
 645 72 l 2,84,85
 678 78 678 78 678 88 c 0,86,87
 678 94 678 94 666.5 114.5 c 128,-1,88
 655 135 655 135 643 154 c 2,89,-1
 498 375 l 2,90,91
 478 406 478 406 446 406 c 0,92,93
 436 406 436 406 429 395.5 c 128,-1,94
 422 385 422 385 422 356 c 2,95,-1
 422 238 l 2,96,97
 422 185 422 185 424 153 c 128,-1,98
 426 121 426 121 434 103.5 c 128,-1,99
 442 86 442 86 458.5 79 c 128,-1,100
 475 72 475 72 502 70 c 2,101,-1
 535 66 l 1,102,103
 547 56 547 56 547 30 c 128,-1,104
 547 4 547 4 532 -6 c 1,105,106
 483 -2 483 -2 420.5 -1 c 128,-1,107
 358 0 358 0 287 0 c 0,108,109
 144 0 144 0 37 -6 c 1,110,0
 23 4 23 4 23 29.5 c 128,-1,1
EndSplineSet
Validated: 1
EndChar

StartChar: l
Encoding: 86 108 86
Width: 569
Flags: W
LayerCount: 2
Fore
SplineSet
29 29.5 m 128,-1,1
 29 55 29 55 41 66 c 1,2,-1
 80 70 l 2,3,4
 105 72 105 72 120 78 c 128,-1,5
 135 84 135 84 143.5 101.5 c 128,-1,6
 152 119 152 119 154 151.5 c 128,-1,7
 156 184 156 184 156 238 c 2,8,-1
 156 1139 l 2,9,10
 156 1200 156 1200 150.5 1224.5 c 128,-1,11
 145 1249 145 1249 115 1268 c 2,12,-1
 80 1288 l 2,13,14
 70 1298 70 1298 70 1318.5 c 128,-1,15
 70 1339 70 1339 80 1350 c 1,16,17
 146 1366 146 1366 230.5 1398 c 128,-1,18
 315 1430 315 1430 393 1464 c 1,19,20
 416 1464 416 1464 428 1450 c 1,21,22
 424 1387 424 1387 423 1318 c 128,-1,23
 422 1249 422 1249 422 1151 c 2,24,-1
 422 238 l 2,25,26
 422 185 422 185 424 153 c 128,-1,27
 426 121 426 121 434 103.5 c 128,-1,28
 442 86 442 86 458.5 79 c 128,-1,29
 475 72 475 72 502 70 c 2,30,-1
 537 66 l 1,31,32
 549 56 549 56 549 30 c 128,-1,33
 549 4 549 4 535 -6 c 1,34,35
 433 0 433 0 289 0 c 0,36,37
 223 0 223 0 159.5 -1 c 128,-1,38
 96 -2 96 -2 43 -6 c 1,39,0
 29 4 29 4 29 29.5 c 128,-1,1
EndSplineSet
Validated: 1
EndChar

StartChar: m
Encoding: 87 109 87
Width: 1650
Flags: W
LayerCount: 2
Fore
SplineSet
51 32 m 0,0,1
 51 56 51 56 63 66 c 1,2,-1
 96 70 l 2,3,4
 121 72 121 72 136.5 79 c 128,-1,5
 152 86 152 86 160 103.5 c 128,-1,6
 168 121 168 121 170 152.5 c 128,-1,7
 172 184 172 184 172 238 c 2,8,-1
 172 547 l 2,9,10
 172 608 172 608 167 633.5 c 128,-1,11
 162 659 162 659 133 678 c 2,12,-1
 104 696 l 2,13,14
 94 706 94 706 94 727 c 128,-1,15
 94 748 94 748 104 758 c 1,16,17
 139 768 139 768 182 782.5 c 128,-1,18
 225 797 225 797 267 813 c 128,-1,19
 309 829 309 829 346 845.5 c 128,-1,20
 383 862 383 862 408 877 c 1,21,22
 433 877 433 877 444 858 c 1,23,24
 444 835 444 835 441 805.5 c 128,-1,25
 438 776 438 776 438 766 c 0,26,27
 438 750 438 750 449 750 c 0,28,29
 453 750 453 750 465 756 c 128,-1,30
 477 762 477 762 487 766 c 0,31,32
 503 776 503 776 529 790.5 c 128,-1,33
 555 805 555 805 585.5 817 c 128,-1,34
 616 829 616 829 651 838.5 c 128,-1,35
 686 848 686 848 723 848 c 0,36,37
 838 848 838 848 907 770 c 0,38,39
 925 747 925 747 935.5 740 c 128,-1,40
 946 733 946 733 956 733 c 0,41,42
 962 733 962 733 977.5 742.5 c 128,-1,43
 993 752 993 752 1022 768 c 0,44,45
 1057 786 1057 786 1114 817 c 128,-1,46
 1171 848 1171 848 1255 848 c 0,47,48
 1316 848 1316 848 1362.5 827.5 c 128,-1,49
 1409 807 1409 807 1439.5 772 c 128,-1,50
 1470 737 1470 737 1486.5 690 c 128,-1,51
 1503 643 1503 643 1503 590 c 2,52,-1
 1503 238 l 2,53,54
 1503 185 1503 185 1505 153 c 128,-1,55
 1507 121 1507 121 1515.5 103.5 c 128,-1,56
 1524 86 1524 86 1539 79 c 128,-1,57
 1554 72 1554 72 1579 70 c 2,58,-1
 1612 66 l 1,59,60
 1624 56 1624 56 1624 30 c 128,-1,61
 1624 4 1624 4 1610 -6 c 1,62,63
 1514 0 1514 0 1370 0 c 0,64,65
 1309 0 1309 0 1248.5 -1 c 128,-1,66
 1188 -2 1188 -2 1147 -6 c 1,67,68
 1133 4 1133 4 1133 29.5 c 128,-1,69
 1133 55 1133 55 1145 66 c 1,70,-1
 1178 70 l 2,71,72
 1217 74 1217 74 1227 98.5 c 128,-1,73
 1237 123 1237 123 1237 207 c 2,74,-1
 1237 555 l 2,75,76
 1237 614 1237 614 1204 656 c 128,-1,77
 1171 698 1171 698 1100 698 c 0,78,79
 1057 698 1057 698 1026 682 c 128,-1,80
 995 666 995 666 985 647 c 0,81,82
 971 624 971 624 971 586 c 2,83,-1
 971 207 l 2,84,85
 971 123 971 123 981 98.5 c 128,-1,86
 991 74 991 74 1026 70 c 2,87,-1
 1059 66 l 1,88,89
 1071 56 1071 56 1071 30 c 128,-1,90
 1071 4 1071 4 1057 -6 c 1,91,92
 1010 -2 1010 -2 957.5 -1 c 128,-1,93
 905 0 905 0 836 0 c 0,94,95
 775 0 775 0 717 -1 c 128,-1,96
 659 -2 659 -2 618 -6 c 1,97,98
 604 4 604 4 604 29.5 c 128,-1,99
 604 55 604 55 616 66 c 1,100,-1
 649 70 l 2,101,102
 684 74 684 74 694.5 98.5 c 128,-1,103
 705 123 705 123 705 207 c 2,104,-1
 705 555 l 2,105,106
 705 614 705 614 672 656 c 128,-1,107
 639 698 639 698 565 698 c 0,108,109
 524 698 524 698 495.5 682 c 128,-1,110
 467 666 467 666 455 649 c 0,111,112
 439 631 439 631 438 573 c 2,113,-1
 438 207 l 2,114,115
 438 123 438 123 448.5 98.5 c 128,-1,116
 459 74 459 74 498 70 c 2,117,-1
 530 66 l 1,118,119
 542 56 542 56 542.5 30 c 128,-1,120
 543 4 543 4 528 -6 c 1,121,122
 481 -2 481 -2 428 -1 c 128,-1,123
 375 0 375 0 301 0 c 0,124,125
 160 0 160 0 68 -6 c 1,126,127
 51 5 51 5 51 32 c 0,0,1
EndSplineSet
Validated: 1
EndChar

StartChar: n
Encoding: 88 110 88
Width: 1126
Flags: W
LayerCount: 2
Fore
SplineSet
45 29.5 m 128,-1,1
 45 55 45 55 57 66 c 1,2,-1
 90 70 l 2,3,4
 117 72 117 72 133.5 79 c 128,-1,5
 150 86 150 86 159 103.5 c 128,-1,6
 168 121 168 121 170 152.5 c 128,-1,7
 172 184 172 184 172 238 c 2,8,-1
 172 547 l 2,9,10
 172 608 172 608 167 633.5 c 128,-1,11
 162 659 162 659 133 678 c 2,12,-1
 104 696 l 2,13,14
 94 706 94 706 94 727 c 128,-1,15
 94 748 94 748 104 758 c 1,16,17
 141 768 141 768 184 782.5 c 128,-1,18
 227 797 227 797 269 813 c 128,-1,19
 311 829 311 829 348 845.5 c 128,-1,20
 385 862 385 862 408 877 c 1,21,22
 433 877 433 877 444 858 c 1,23,24
 444 835 444 835 441 805.5 c 128,-1,25
 438 776 438 776 438 766 c 0,26,27
 438 750 438 750 449 750 c 0,28,29
 453 750 453 750 465 756 c 128,-1,30
 477 762 477 762 487 766 c 0,31,32
 503 776 503 776 529 790.5 c 128,-1,33
 555 805 555 805 586.5 817 c 128,-1,34
 618 829 618 829 653 838.5 c 128,-1,35
 688 848 688 848 723 848 c 0,36,37
 786 848 786 848 834.5 827.5 c 128,-1,38
 883 807 883 807 914.5 772 c 128,-1,39
 946 737 946 737 962.5 690 c 128,-1,40
 979 643 979 643 979 590 c 2,41,-1
 979 238 l 2,42,43
 979 185 979 185 981 153 c 128,-1,44
 983 121 983 121 992 103.5 c 128,-1,45
 1001 86 1001 86 1016.5 79 c 128,-1,46
 1032 72 1032 72 1061 70 c 2,47,-1
 1094 66 l 1,48,49
 1106 56 1106 56 1106 30 c 128,-1,50
 1106 4 1106 4 1092 -6 c 1,51,52
 996 0 996 0 844 0 c 0,53,54
 783 0 783 0 725.5 -1 c 128,-1,55
 668 -2 668 -2 623 -6 c 1,56,57
 609 4 609 4 608.5 29.5 c 128,-1,58
 608 55 608 55 621 66 c 1,59,-1
 657 72 l 2,60,61
 675 74 675 74 685.5 80 c 128,-1,62
 696 86 696 86 702.5 100.5 c 128,-1,63
 709 115 709 115 711 139.5 c 128,-1,64
 713 164 713 164 713 207 c 2,65,-1
 713 553 l 2,66,67
 713 612 713 612 680 655 c 128,-1,68
 647 698 647 698 569 698 c 0,69,70
 526 698 526 698 496.5 682 c 128,-1,71
 467 666 467 666 455 649 c 0,72,73
 439 631 439 631 438 573 c 2,74,-1
 438 207 l 2,75,76
 438 123 438 123 448.5 98.5 c 128,-1,77
 459 74 459 74 498 70 c 2,78,-1
 530 66 l 1,79,80
 542 56 542 56 542.5 30 c 128,-1,81
 543 4 543 4 528 -6 c 1,82,83
 481 -2 481 -2 428 -1 c 128,-1,84
 375 0 375 0 301 0 c 0,85,86
 235 0 235 0 174 -1 c 128,-1,87
 113 -2 113 -2 59 -6 c 1,88,0
 45 4 45 4 45 29.5 c 128,-1,1
EndSplineSet
Validated: 1
EndChar

StartChar: o
Encoding: 89 111 89
Width: 1056
Flags: W
LayerCount: 2
Fore
SplineSet
63 393 m 0,0,1
 63 504 63 504 102 588 c 128,-1,2
 141 672 141 672 207.5 730 c 128,-1,3
 274 788 274 788 359 818 c 128,-1,4
 444 848 444 848 535 848 c 0,5,6
 625 848 625 848 708 820.5 c 128,-1,7
 791 793 791 793 854.5 738.5 c 128,-1,8
 918 684 918 684 955.5 602 c 128,-1,9
 993 520 993 520 993 412 c 0,10,11
 993 299 993 299 955.5 216 c 128,-1,12
 918 133 918 133 853 79 c 128,-1,13
 788 25 788 25 702 -2 c 128,-1,14
 616 -29 616 -29 522 -29 c 0,15,16
 430 -29 430 -29 347 -2 c 128,-1,17
 264 25 264 25 201.5 77 c 128,-1,18
 139 129 139 129 101 208 c 128,-1,19
 63 287 63 287 63 393 c 0,0,1
358 438 m 0,20,21
 358 358 358 358 370.5 289.5 c 128,-1,22
 383 221 383 221 406.5 171 c 128,-1,23
 430 121 430 121 465 93.5 c 128,-1,24
 500 66 500 66 545 66 c 0,25,26
 588 66 588 66 617.5 89.5 c 128,-1,27
 647 113 647 113 665.5 155 c 128,-1,28
 684 197 684 197 691 255 c 128,-1,29
 698 313 698 313 698 383 c 0,30,31
 698 457 698 457 687 524.5 c 128,-1,32
 676 592 676 592 653.5 643 c 128,-1,33
 631 694 631 694 598 724 c 128,-1,34
 565 754 565 754 522 754 c 0,35,36
 454 754 454 754 406 680 c 128,-1,37
 358 606 358 606 358 438 c 0,20,21
EndSplineSet
Validated: 1
EndChar

StartChar: p
Encoding: 90 112 90
Width: 1112
Flags: W
LayerCount: 2
Fore
SplineSet
29 -492.5 m 128,-1,1
 29 -467 29 -467 41 -457 c 1,2,-1
 82 -453 l 2,3,4
 107 -451 107 -451 122 -444.5 c 128,-1,5
 137 -438 137 -438 145.5 -420.5 c 128,-1,6
 154 -403 154 -403 156 -370.5 c 128,-1,7
 158 -338 158 -338 158 -285 c 2,8,-1
 158 547 l 2,9,10
 158 608 158 608 152.5 633.5 c 128,-1,11
 147 659 147 659 119 678 c 2,12,-1
 90 696 l 2,13,14
 80 706 80 706 80 727 c 128,-1,15
 80 748 80 748 90 758 c 1,16,17
 121 766 121 766 163 782.5 c 128,-1,18
 205 799 205 799 247 817.5 c 128,-1,19
 289 836 289 836 325.5 854 c 128,-1,20
 362 872 362 872 385 887 c 0,21,22
 388 888 388 888 390 888 c 0,23,24
 398 888 398 888 408 883 c 0,25,26
 422 877 422 877 428 862 c 1,27,28
 424 844 424 844 424 827.5 c 2,29,-1
 424 795 l 2,30,31
 424 770 424 770 440 766 c 1,32,33
 487 789 487 789 552.5 818.5 c 128,-1,34
 618 848 618 848 700 848 c 128,-1,35
 782 848 782 848 846.5 818 c 128,-1,36
 911 788 911 788 956 735 c 128,-1,37
 1001 682 1001 682 1025 610.5 c 128,-1,38
 1049 539 1049 539 1049 457 c 0,39,40
 1049 348 1049 348 1012 259 c 128,-1,41
 975 170 975 170 909.5 106.5 c 128,-1,42
 844 43 844 43 751.5 7 c 128,-1,43
 659 -29 659 -29 547 -29 c 0,44,45
 524 -29 524 -29 496.5 -28 c 128,-1,46
 469 -27 469 -27 455 -23 c 1,47,48
 441 -27 441 -27 432.5 -38 c 128,-1,49
 424 -49 424 -49 424 -82 c 2,50,-1
 424 -285 l 2,51,52
 424 -338 424 -338 426 -369.5 c 128,-1,53
 428 -401 428 -401 436 -418.5 c 128,-1,54
 444 -436 444 -436 459.5 -442.5 c 128,-1,55
 475 -449 475 -449 500 -451 c 2,56,-1
 569 -457 l 1,57,58
 581 -467 581 -467 581.5 -492.5 c 128,-1,59
 582 -518 582 -518 567 -528 c 1,60,61
 489 -524 489 -524 423.5 -523 c 128,-1,62
 358 -522 358 -522 287 -522 c 0,63,64
 154 -522 154 -522 43 -528 c 1,65,0
 29 -518 29 -518 29 -492.5 c 128,-1,1
424 231 m 2,66,67
 424 159 424 159 471 113 c 0,68,69
 491 90 491 90 518 78 c 128,-1,70
 545 66 545 66 569 66 c 0,71,72
 665 66 665 66 715.5 157 c 128,-1,73
 766 248 766 248 766 391 c 0,74,75
 766 543 766 543 700.5 625 c 128,-1,76
 635 707 635 707 532 707 c 0,77,78
 505 707 505 707 482 700.5 c 128,-1,79
 459 694 459 694 446 678 c 0,80,81
 438 668 438 668 431 643 c 128,-1,82
 424 618 424 618 424 559 c 2,83,-1
 424 231 l 2,66,67
EndSplineSet
Validated: 524289
EndChar

StartChar: q
Encoding: 91 113 91
Width: 1081
Flags: W
LayerCount: 2
Fore
SplineSet
63 375 m 0,0,1
 63 484 63 484 102 570.5 c 128,-1,2
 141 657 141 657 210 718.5 c 128,-1,3
 279 780 279 780 374 814 c 128,-1,4
 469 848 469 848 580 848 c 0,5,6
 646 848 646 848 706 839.5 c 128,-1,7
 766 831 766 831 801 823 c 0,8,9
 826 817 826 817 840 817 c 0,10,11
 852 817 852 817 865.5 821 c 128,-1,12
 879 825 879 825 901 846 c 2,13,-1
 913 860 l 1,14,-1
 922 860 l 2,15,16
 935 860 935 860 946 856 c 0,17,18
 961 850 961 850 965 840 c 1,19,20
 957 777 957 777 955.5 718 c 128,-1,21
 954 659 954 659 954 575 c 2,22,-1
 954 -285 l 2,23,24
 954 -338 954 -338 956 -369.5 c 128,-1,25
 958 -401 958 -401 966.5 -418.5 c 128,-1,26
 975 -436 975 -436 990.5 -442.5 c 128,-1,27
 1006 -449 1006 -449 1030 -451 c 2,28,-1
 1100 -457 l 1,29,30
 1112 -467 1112 -467 1112 -492.5 c 128,-1,31
 1112 -518 1112 -518 1098 -528 c 1,32,33
 1026 -524 1026 -524 959.5 -523 c 128,-1,34
 893 -522 893 -522 821 -522 c 0,35,36
 682 -522 682 -522 565 -528 c 1,37,38
 551 -518 551 -518 551 -492.5 c 128,-1,39
 551 -467 551 -467 563 -457 c 1,40,-1
 608 -453 l 2,41,42
 635 -451 635 -451 651.5 -444.5 c 128,-1,43
 668 -438 668 -438 676 -420.5 c 128,-1,44
 684 -403 684 -403 686 -370.5 c 128,-1,45
 688 -338 688 -338 688 -285 c 2,46,-1
 688 -18 l 2,47,48
 688 -2 688 -2 685 9 c 128,-1,49
 682 20 682 20 670 20 c 1,50,51
 596 -15 596 -15 551 -22 c 128,-1,52
 506 -29 506 -29 467 -29 c 0,53,54
 373 -29 373 -29 298 3 c 128,-1,55
 223 35 223 35 171 90 c 128,-1,56
 119 145 119 145 91 219 c 128,-1,57
 63 293 63 293 63 375 c 0,0,1
348 451 m 0,58,59
 348 361 348 361 371.5 294 c 128,-1,60
 395 227 395 227 433 183 c 128,-1,61
 471 139 471 139 518 116.5 c 128,-1,62
 565 94 565 94 612 94 c 0,63,64
 635 94 635 94 649.5 98 c 128,-1,65
 664 102 664 102 674 109 c 0,66,67
 684 115 684 115 686 129 c 128,-1,68
 688 143 688 143 688 160 c 2,69,-1
 688 526 l 2,70,71
 688 592 688 592 676 639 c 128,-1,72
 664 686 664 686 647 709 c 0,73,74
 633 725 633 725 609.5 739.5 c 128,-1,75
 586 754 586 754 549 754 c 0,76,77
 508 754 508 754 472 731.5 c 128,-1,78
 436 709 436 709 408.5 669 c 128,-1,79
 381 629 381 629 364.5 573.5 c 128,-1,80
 348 518 348 518 348 451 c 0,58,59
EndSplineSet
Validated: 1
EndChar

StartChar: r
Encoding: 92 114 92
Width: 759
Flags: W
LayerCount: 2
Fore
SplineSet
45 25.5 m 128,-1,1
 45 51 45 51 57 61 c 1,2,-1
 96 66 l 2,3,4
 121 68 121 68 136.5 74 c 128,-1,5
 152 80 152 80 160 97.5 c 128,-1,6
 168 115 168 115 170 147.5 c 128,-1,7
 172 180 172 180 172 233 c 2,8,-1
 172 543 l 2,9,10
 172 604 172 604 167 629.5 c 128,-1,11
 162 655 162 655 133 674 c 2,12,-1
 104 692 l 2,13,14
 94 702 94 702 94 722.5 c 128,-1,15
 94 743 94 743 104 754 c 1,16,17
 139 764 139 764 181 778.5 c 128,-1,18
 223 793 223 793 265 810 c 128,-1,19
 307 827 307 827 343 843.5 c 128,-1,20
 379 860 379 860 403 877 c 1,21,22
 428 877 428 877 440 858 c 1,23,24
 436 827 436 827 434 805.5 c 128,-1,25
 432 784 432 784 432 770 c 0,26,27
 432 750 432 750 453 745 c 1,28,29
 473 757 473 757 494.5 776 c 128,-1,30
 516 795 516 795 540.5 810 c 128,-1,31
 565 825 565 825 593 836.5 c 128,-1,32
 621 848 621 848 653 848 c 0,33,34
 694 848 694 848 730 817 c 128,-1,35
 766 786 766 786 766 727 c 0,36,37
 766 655 766 655 725 624.5 c 128,-1,38
 684 594 684 594 635 594 c 0,39,40
 594 594 594 594 555 631 c 0,41,42
 520 660 520 660 503.5 666 c 128,-1,43
 487 672 487 672 477 672 c 0,44,45
 454 672 454 672 446 640 c 128,-1,46
 438 608 438 608 438 549 c 2,47,-1
 438 233 l 2,48,49
 438 180 438 180 440 148.5 c 128,-1,50
 442 117 442 117 450.5 99.5 c 128,-1,51
 459 82 459 82 474 76 c 128,-1,52
 489 70 489 70 514 68 c 2,53,-1
 580 61 l 1,54,55
 592 51 592 51 592 25.5 c 128,-1,56
 592 0 592 0 578 -10 c 1,57,58
 504 -6 504 -6 438.5 -5 c 128,-1,59
 373 -4 373 -4 301 -4 c 0,60,61
 238 -4 238 -4 174.5 -5 c 128,-1,62
 111 -6 111 -6 59 -10 c 1,63,0
 45 0 45 0 45 25.5 c 128,-1,1
EndSplineSet
Validated: 1
EndChar

StartChar: s
Encoding: 93 115 93
Width: 733
Flags: W
LayerCount: 2
Fore
SplineSet
49 266 m 1,0,1
 59 282 59 282 84 283.5 c 128,-1,2
 109 285 109 285 119 270 c 1,3,4
 129 239 129 239 148.5 203.5 c 128,-1,5
 168 168 168 168 194.5 137 c 128,-1,6
 221 106 221 106 255 86 c 128,-1,7
 289 66 289 66 328 66 c 0,8,9
 375 66 375 66 404.5 92.5 c 128,-1,10
 434 119 434 119 434 172 c 0,11,12
 434 229 434 229 393 264 c 128,-1,13
 352 299 352 299 299 326 c 0,14,15
 207 373 207 373 147.5 432.5 c 128,-1,16
 88 492 88 492 88 584 c 0,17,18
 88 652 88 652 113.5 701 c 128,-1,19
 139 750 139 750 184 782.5 c 128,-1,20
 229 815 229 815 288.5 831.5 c 128,-1,21
 348 848 348 848 414 848 c 0,22,23
 492 848 492 848 554 832.5 c 128,-1,24
 616 817 616 817 633 805 c 1,25,26
 649 770 649 770 656.5 714.5 c 128,-1,27
 664 659 664 659 664 600 c 1,28,29
 658 584 658 584 630 583 c 128,-1,30
 602 582 602 582 592 592 c 1,31,32
 561 682 561 682 522 718 c 128,-1,33
 483 754 483 754 432 754 c 0,34,35
 387 754 387 754 358.5 729.5 c 128,-1,36
 330 705 330 705 330 664 c 0,37,38
 330 629 330 629 360.5 598 c 128,-1,39
 391 567 391 567 461 532 c 0,40,41
 565 481 565 481 625.5 413.5 c 128,-1,42
 686 346 686 346 686 246 c 0,43,44
 686 178 686 178 658.5 126 c 128,-1,45
 631 74 631 74 583 40 c 128,-1,46
 535 6 535 6 471.5 -11.5 c 128,-1,47
 408 -29 408 -29 336 -29 c 0,48,49
 164 -29 164 -29 82 35 c 1,50,51
 66 66 66 66 56 132 c 0,52,53
 48 179 48 179 48 228 c 0,54,55
 48 247 48 247 49 266 c 1,0,1
EndSplineSet
Validated: 1
EndChar

StartChar: t
Encoding: 94 116 94
Width: 661
Flags: W
LayerCount: 2
Fore
SplineSet
35 738 m 0,0,1
 34 744 34 744 34 749 c 0,2,3
 34 764 34 764 43 772 c 1,4,5
 90 788 90 788 133 814 c 128,-1,6
 176 840 176 840 213 864 c 0,7,8
 242 884 242 884 279.5 920 c 128,-1,9
 317 956 317 956 365 1024 c 1,10,11
 373 1028 373 1028 386 1028 c 2,12,-1
 396 1028 l 2,13,14
 418 1026 418 1026 426 1014 c 1,15,-1
 426 860 l 2,16,17
 426 831 426 831 431 825 c 128,-1,18
 436 819 436 819 465 819 c 2,19,-1
 647 819 l 1,20,21
 663 807 663 807 664 780 c 0,22,23
 664 764 664 764 658.5 741.5 c 128,-1,24
 653 719 653 719 637 709 c 1,25,-1
 453 709 l 2,26,27
 433 709 433 709 428.5 702.5 c 128,-1,28
 424 696 424 696 424 662 c 2,29,-1
 424 354 l 2,30,31
 424 311 424 311 426 268 c 128,-1,32
 428 225 428 225 441.5 190.5 c 128,-1,33
 455 156 455 156 484.5 134.5 c 128,-1,34
 514 113 514 113 567 113 c 0,35,36
 590 113 590 113 612.5 122 c 128,-1,37
 635 131 635 131 653 143 c 1,38,39
 670 139 670 139 678 124 c 0,40,41
 684 114 684 114 683 102 c 0,42,43
 683 96 683 96 682 90 c 0,44,45
 639 43 639 43 561 7 c 128,-1,46
 483 -29 483 -29 387 -29 c 0,47,48
 260 -29 260 -29 209 36.5 c 128,-1,49
 158 102 158 102 158 205 c 2,50,-1
 158 662 l 2,51,52
 158 695 158 695 152.5 702 c 128,-1,53
 147 709 147 709 119 709 c 2,54,-1
 55 709 l 1,55,56
 39 714 39 714 35 738 c 0,0,1
EndSplineSet
Validated: 1
EndChar

StartChar: u
Encoding: 95 117 95
Width: 1114
Flags: W
LayerCount: 2
Fore
SplineSet
78 795 m 1,0,1
 129 797 129 797 180 801 c 128,-1,2
 231 805 231 805 276 813 c 0,3,4
 323 821 323 821 361 834.5 c 128,-1,5
 399 848 399 848 406 848 c 0,6,7
 416 848 416 848 422 839.5 c 128,-1,8
 428 831 428 831 430 823 c 0,9,10
 426 784 426 784 425 741 c 128,-1,11
 424 698 424 698 424 643 c 2,12,-1
 424 305 l 2,13,14
 424 268 424 268 428 234.5 c 128,-1,15
 432 201 432 201 447.5 176.5 c 128,-1,16
 463 152 463 152 491.5 136.5 c 128,-1,17
 520 121 520 121 569 121 c 0,18,19
 612 121 612 121 638 135.5 c 128,-1,20
 664 150 664 150 676 160 c 0,21,22
 686 168 686 168 692 186.5 c 128,-1,23
 698 205 698 205 698 221 c 2,24,-1
 698 608 l 2,25,26
 698 669 698 669 682 690 c 128,-1,27
 666 711 666 711 610 719 c 2,28,-1
 582 723 l 1,29,30
 570 733 570 733 571.5 760.5 c 128,-1,31
 573 788 573 788 592 795 c 1,32,33
 647 799 647 799 701.5 804 c 128,-1,34
 756 809 756 809 805 815 c 0,35,36
 858 823 858 823 899 835.5 c 128,-1,37
 940 848 940 848 950 848 c 0,38,39
 966 848 966 848 971 823 c 1,40,41
 969 794 969 794 967 747 c 128,-1,42
 965 700 965 700 965 643 c 2,43,-1
 965 270 l 2,44,45
 965 178 965 178 974 137 c 128,-1,46
 983 96 983 96 1020 96 c 0,47,48
 1040 96 1040 96 1061.5 101 c 128,-1,49
 1083 106 1083 106 1102 113 c 0,50,51
 1108 111 1108 111 1112 98.5 c 128,-1,52
 1116 86 1116 86 1116 70.5 c 128,-1,53
 1116 55 1116 55 1111 42 c 128,-1,54
 1106 29 1106 29 1096 25 c 0,55,56
 1020 21 1020 21 952.5 9.5 c 128,-1,57
 885 -2 885 -2 833.5 -15.5 c 128,-1,58
 782 -29 782 -29 750.5 -39 c 128,-1,59
 719 -49 719 -49 717 -49 c 0,60,61
 697 -47 697 -47 692 -25 c 1,62,63
 696 -7 696 -7 697 15 c 128,-1,64
 698 37 698 37 698 49 c 0,65,66
 698 69 698 69 676 70 c 1,67,68
 617 31 617 31 554.5 1 c 128,-1,69
 492 -29 492 -29 397 -29 c 0,70,71
 268 -29 268 -29 213 36.5 c 128,-1,72
 158 102 158 102 158 233 c 2,73,-1
 158 582 l 2,74,75
 158 623 158 623 155 646.5 c 128,-1,76
 152 670 152 670 145.5 683 c 128,-1,77
 139 696 139 696 127 702.5 c 128,-1,78
 115 709 115 709 96 715 c 2,79,-1
 70 723 l 1,80,81
 60 736 60 736 60 758 c 0,82,83
 60 784 60 784 78 795 c 1,0,1
EndSplineSet
Validated: 1
EndChar

StartChar: v
Encoding: 96 118 96
Width: 935
Flags: W
LayerCount: 2
Fore
SplineSet
-25 793 m 0,0,1
 -25 819 -25 819 -4 825 c 1,2,3
 53 821 53 821 110.5 820 c 128,-1,4
 168 819 168 819 250 819 c 0,5,6
 307 819 307 819 363.5 821 c 128,-1,7
 420 823 420 823 477 825 c 1,8,9
 491 817 491 817 491.5 789.5 c 128,-1,10
 492 762 492 762 481 754 c 1,11,-1
 449 745 l 2,12,13
 431 741 431 741 422.5 738 c 128,-1,14
 414 735 414 735 414 725 c 128,-1,15
 414 715 414 715 419 695.5 c 128,-1,16
 424 676 424 676 432 653 c 0,17,18
 463 567 463 567 495.5 488.5 c 128,-1,19
 528 410 528 410 561 336 c 1,20,21
 596 414 596 414 632 496 c 128,-1,22
 668 578 668 578 700 672 c 0,23,24
 712 703 712 703 713 723 c 0,25,26
 713 735 713 735 664 748 c 2,27,-1
 635 754 l 1,28,29
 621 764 621 764 621 790.5 c 128,-1,30
 621 817 621 817 637 825 c 1,31,32
 686 821 686 821 723 820 c 128,-1,33
 760 819 760 819 805 819 c 0,34,35
 854 819 854 819 891 821 c 128,-1,36
 928 823 928 823 963 825 c 1,37,38
 978 817 978 817 978 794 c 2,39,-1
 978 790 l 2,40,41
 977 764 977 764 967 754 c 1,42,-1
 932 748 l 2,43,44
 909 744 909 744 893 736.5 c 128,-1,45
 877 729 877 729 864.5 717 c 128,-1,46
 852 705 852 705 839.5 684.5 c 128,-1,47
 827 664 827 664 813 635 c 0,48,49
 733 475 733 475 662.5 313.5 c 128,-1,50
 592 152 592 152 520 -14 c 1,51,52
 502 -28 502 -28 473 -29 c 0,53,54
 444 -29 444 -29 424 -14 c 1,55,56
 383 82 383 82 353.5 154.5 c 128,-1,57
 324 227 324 227 293 294.5 c 128,-1,58
 262 362 262 362 228.5 437 c 128,-1,59
 195 512 195 512 145 614 c 0,60,61
 127 651 127 651 114.5 674.5 c 128,-1,62
 102 698 102 698 90 711.5 c 128,-1,63
 78 725 78 725 64.5 732 c 128,-1,64
 51 739 51 739 33 743 c 2,65,-1
 -10 754 l 1,66,67
 -25 765 -25 765 -25 793 c 0,0,1
EndSplineSet
Validated: 1
EndChar

StartChar: w
Encoding: 97 119 97
Width: 1396
Flags: W
LayerCount: 2
Fore
SplineSet
-25 793 m 0,0,1
 -25 817 -25 817 -8 825 c 1,2,3
 55 821 55 821 108.5 820 c 128,-1,4
 162 819 162 819 227 819 c 2,5,-1
 641 819 l 2,6,7
 739 819 739 819 822 820 c 128,-1,8
 905 821 905 821 1004 825 c 0,9,10
 1012 825 1012 825 1016 815 c 128,-1,11
 1020 805 1020 805 1020 792.5 c 128,-1,12
 1020 780 1020 780 1018 768 c 128,-1,13
 1016 756 1016 756 1010 754 c 2,14,-1
 979 748 l 2,15,16
 903 732 903 732 903 717 c 0,17,18
 903 705 903 705 906 692.5 c 128,-1,19
 909 680 909 680 920 653 c 0,20,21
 949 579 949 579 986.5 488 c 128,-1,22
 1024 397 1024 397 1059 324 c 1,23,24
 1096 414 1096 414 1122.5 489.5 c 128,-1,25
 1149 565 1149 565 1174 637 c 0,26,27
 1192 692 1192 692 1192 717 c 0,28,29
 1192 733 1192 733 1141 745 c 2,30,-1
 1106 754 l 1,31,32
 1096 764 1096 764 1097 791.5 c 128,-1,33
 1098 819 1098 819 1114 825 c 1,34,35
 1165 821 1165 821 1204 820 c 128,-1,36
 1243 819 1243 819 1282 819 c 0,37,38
 1372 819 1372 819 1440 825 c 1,39,40
 1454 820 1454 820 1456 794 c 2,41,-1
 1456 786 l 2,42,43
 1456 766 1456 766 1446 754 c 1,44,-1
 1417 748 l 2,45,46
 1392 742 1392 742 1376 734.5 c 128,-1,47
 1360 727 1360 727 1347.5 714.5 c 128,-1,48
 1335 702 1335 702 1325 684 c 128,-1,49
 1315 666 1315 666 1303 637 c 0,50,51
 1231 479 1231 479 1162.5 314.5 c 128,-1,52
 1094 150 1094 150 1028 -14 c 1,53,54
 1014 -28 1014 -28 981 -29 c 0,55,56
 965 -29 965 -29 954.5 -27 c 128,-1,57
 944 -25 944 -25 934 -14 c 1,58,59
 918 27 918 27 891 89.5 c 128,-1,60
 864 152 864 152 834.5 219.5 c 128,-1,61
 805 287 805 287 775 352.5 c 128,-1,62
 745 418 745 418 723 467 c 1,63,64
 703 426 703 426 672 360.5 c 128,-1,65
 641 295 641 295 609.5 224.5 c 128,-1,66
 578 154 578 154 548 89.5 c 128,-1,67
 518 25 518 25 500 -14 c 1,68,69
 486 -28 486 -28 453 -29 c 0,70,71
 437 -29 437 -29 426.5 -27 c 128,-1,72
 416 -25 416 -25 406 -14 c 1,73,74
 332 160 332 160 257 333 c 128,-1,75
 182 506 182 506 106 666 c 0,76,77
 83 711 83 711 66 723 c 128,-1,78
 49 735 49 735 23 743 c 2,79,-1
 -14 754 l 1,80,81
 -25 767 -25 767 -25 793 c 0,0,1
383 713 m 0,82,83
 383 690 383 690 401 645 c 0,84,85
 411 618 411 618 431 574 c 128,-1,86
 451 530 451 530 472.5 482 c 128,-1,87
 494 434 494 434 514.5 391 c 128,-1,88
 535 348 535 348 547 324 c 1,89,-1
 574.5 379 l 1,90,-1
 608.5 450.5 l 1,91,-1
 638 519 l 1,92,-1
 655 567 l 2,93,94
 659 587 659 587 660.5 602 c 128,-1,95
 662 617 662 617 662 629 c 128,-1,96
 662 641 662 641 655.5 658.5 c 128,-1,97
 649 676 649 676 639 691.5 c 128,-1,98
 629 707 629 707 614.5 719 c 128,-1,99
 600 731 600 731 586 735 c 0,100,101
 547 743 547 743 487 743 c 0,102,103
 438 743 438 743 410.5 736 c 128,-1,104
 383 729 383 729 383 713 c 0,82,83
EndSplineSet
Validated: 524289
EndChar

StartChar: x
Encoding: 98 120 98
Width: 937
Flags: W
LayerCount: 2
Fore
SplineSet
-18 790.5 m 128,-1,1
 -18 803 -18 803 -14 813 c 128,-1,2
 -10 823 -10 823 -2 825 c 0,3,4
 57 821 57 821 109.5 820 c 128,-1,5
 162 819 162 819 246 819 c 0,6,7
 355 819 355 819 465 825 c 1,8,9
 483 819 483 819 484 791.5 c 128,-1,10
 485 764 485 764 469 754 c 1,11,-1
 444 748 l 2,12,13
 432 746 432 746 423 741.5 c 128,-1,14
 414 737 414 737 414 733 c 0,15,16
 414 727 414 727 418 718 c 128,-1,17
 422 709 422 709 432 690 c 0,18,19
 452 655 452 655 473 625.5 c 128,-1,20
 494 596 494 596 516 565 c 1,21,22
 532 588 532 588 556 621.5 c 128,-1,23
 580 655 580 655 604 692 c 0,24,25
 614 706 614 706 616 713.5 c 128,-1,26
 618 721 618 721 618 729 c 128,-1,27
 618 737 618 737 586 748 c 2,28,-1
 563 754 l 2,29,30
 557 758 557 758 554 769 c 128,-1,31
 551 780 551 780 552 791.5 c 128,-1,32
 553 803 553 803 557 812 c 128,-1,33
 561 821 561 821 569 825 c 1,34,35
 614 821 614 821 657 820 c 128,-1,36
 700 819 700 819 756 819 c 0,37,38
 834 819 834 819 911 825 c 0,39,40
 919 823 919 823 923.5 813 c 128,-1,41
 928 803 928 803 928 791.5 c 128,-1,42
 928 780 928 780 925 769 c 128,-1,43
 922 758 922 758 915 754 c 2,44,-1
 887 750 l 2,45,46
 842 744 842 744 815 736.5 c 128,-1,47
 788 729 788 729 764 713 c 0,48,49
 754 707 754 707 734.5 688.5 c 128,-1,50
 715 670 715 670 693.5 646.5 c 128,-1,51
 672 623 672 623 650.5 597 c 128,-1,52
 629 571 629 571 610 549 c 0,53,54
 571 498 571 498 571 487 c 0,55,56
 571 477 571 477 585.5 452.5 c 128,-1,57
 600 428 600 428 614 408 c 2,58,-1
 754 201 l 2,59,60
 781 160 781 160 803 135.5 c 128,-1,61
 825 111 825 111 845.5 96.5 c 128,-1,62
 866 82 866 82 887.5 76 c 128,-1,63
 909 70 909 70 936 68 c 2,64,-1
 958 66 l 1,65,66
 970 56 970 56 970 30 c 0,67,68
 970 0 970 0 952 -6 c 1,69,70
 817 0 817 0 705 0 c 0,71,72
 644 0 644 0 574 -1 c 128,-1,73
 504 -2 504 -2 432 -6 c 1,74,75
 418 0 418 0 416 27.5 c 128,-1,76
 414 55 414 55 426 66 c 1,77,-1
 471 74 l 2,78,79
 494 78 494 78 500 84 c 128,-1,80
 506 90 506 90 506 96 c 0,81,82
 506 110 506 110 481 152 c 0,83,84
 458 187 458 187 438 219.5 c 128,-1,85
 418 252 418 252 393 287 c 1,86,87
 370 254 370 254 350 220 c 128,-1,88
 330 186 330 186 309 152 c 0,89,90
 285 111 285 111 285 93 c 0,91,92
 285 84 285 84 292 80 c 128,-1,93
 299 76 299 76 322 72 c 2,94,-1
 354 66 l 1,95,96
 366 56 366 56 364 28 c 128,-1,97
 362 0 362 0 350 -6 c 1,98,99
 260 0 260 0 166 0 c 0,100,101
 100 0 100 0 6 -6 c 1,102,103
 -8 2 -8 2 -11 27.5 c 128,-1,104
 -14 53 -14 53 2 66 c 1,105,-1
 53 74 l 2,106,107
 80 78 80 78 107.5 88 c 128,-1,108
 135 98 135 98 150 115 c 0,109,110
 162 127 162 127 185.5 155.5 c 128,-1,111
 209 184 209 184 234.5 218 c 128,-1,112
 260 252 260 252 283.5 282.5 c 128,-1,113
 307 313 307 313 317 330 c 0,114,115
 335 361 335 361 336 375 c 0,116,117
 336 381 336 381 320.5 404.5 c 128,-1,118
 305 428 305 428 270 483 c 2,119,-1
 160 653 l 2,120,121
 129 700 129 700 99.5 717.5 c 128,-1,122
 70 735 70 735 35 743 c 2,123,-1
 -8 754 l 2,124,125
 -14 758 -14 758 -16 768 c 128,-1,0
 -18 778 -18 778 -18 790.5 c 128,-1,1
EndSplineSet
Validated: 1
EndChar

StartChar: y
Encoding: 99 121 99
Width: 960
Flags: W
LayerCount: 2
Fore
SplineSet
-23 793 m 0,0,1
 -23 819 -23 819 -6 825 c 1,2,3
 105 819 105 819 264 819 c 0,4,5
 379 819 379 819 494 825 c 1,6,7
 510 819 510 819 511 791.5 c 128,-1,8
 512 764 512 764 500 754 c 1,9,-1
 459 745 l 2,10,11
 416 735 416 735 406.5 728 c 128,-1,12
 397 721 397 721 397 707 c 0,13,14
 397 689 397 689 413.5 645.5 c 128,-1,15
 430 602 430 602 459 524 c 0,16,17
 467 501 467 501 479.5 469.5 c 128,-1,18
 492 438 492 438 504 404.5 c 128,-1,19
 516 371 516 371 528.5 340 c 128,-1,20
 541 309 541 309 551 291 c 1,21,22
 567 324 567 324 582.5 357.5 c 128,-1,23
 598 391 598 391 614 426 c 2,24,-1
 651 510 l 2,25,26
 684 584 684 584 705.5 642 c 128,-1,27
 727 700 727 700 727 717 c 0,28,29
 727 727 727 727 713.5 734 c 128,-1,30
 700 741 700 741 682 745 c 2,31,-1
 641 754 l 1,32,33
 627 764 627 764 629 792.5 c 128,-1,34
 631 821 631 821 647 825 c 1,35,36
 682 821 682 821 729 820 c 128,-1,37
 776 819 776 819 846 819 c 0,38,39
 926 819 926 819 1006 825 c 1,40,41
 1014 821 1014 821 1018 812 c 128,-1,42
 1022 803 1022 803 1022 791.5 c 128,-1,43
 1022 780 1022 780 1019 769 c 128,-1,44
 1016 758 1016 758 1010 754 c 2,45,-1
 971 750 l 2,46,47
 905 744 905 744 877 705 c 0,48,49
 859 680 859 680 825 620.5 c 128,-1,50
 791 561 791 561 756 489 c 2,51,-1
 647 266 l 2,52,53
 620 211 620 211 578.5 125 c 128,-1,54
 537 39 537 39 493 -54 c 128,-1,55
 449 -147 449 -147 405.5 -234.5 c 128,-1,56
 362 -322 362 -322 336 -379 c 0,57,58
 303 -449 303 -449 260 -480.5 c 128,-1,59
 217 -512 217 -512 160 -514 c 0,60,61
 119 -514 119 -514 93.5 -503 c 128,-1,62
 68 -492 68 -492 53.5 -474.5 c 128,-1,63
 39 -457 39 -457 34 -434.5 c 128,-1,64
 29 -412 29 -412 29 -391 c 0,65,66
 29 -344 29 -344 60.5 -314.5 c 128,-1,67
 92 -285 92 -285 145 -285 c 2,68,-1
 195 -285 l 2,69,70
 232 -285 232 -285 255.5 -273.5 c 128,-1,71
 279 -262 279 -262 295 -242 c 0,72,73
 311 -219 311 -219 324.5 -190.5 c 128,-1,74
 338 -162 338 -162 354 -129 c 0,75,76
 364 -111 364 -111 373.5 -86 c 128,-1,77
 383 -61 383 -61 383 -43 c 0,78,79
 383 -23 383 -23 376 10 c 128,-1,80
 369 43 369 43 344 106 c 2,81,-1
 147 602 l 2,82,83
 118 676 118 676 96 707.5 c 128,-1,84
 74 739 74 739 25 748 c 2,85,-1
 -12 754 l 1,86,87
 -23 765 -23 765 -23 793 c 0,0,1
EndSplineSet
Validated: 1
EndChar

StartChar: z
Encoding: 100 122 100
Width: 849
Flags: W
LayerCount: 2
Fore
SplineSet
33 588 m 1,0,1
 37 619 37 619 45 657.5 c 128,-1,2
 53 696 53 696 61.5 734 c 128,-1,3
 70 772 70 772 79 806 c 128,-1,4
 88 840 88 840 96 858 c 1,5,6
 104 866 104 866 118.5 866 c 128,-1,7
 133 866 133 866 139 858 c 1,8,9
 141 846 141 846 145.5 838.5 c 128,-1,10
 150 831 150 831 160 826 c 128,-1,11
 170 821 170 821 192.5 820 c 128,-1,12
 215 819 215 819 254 819 c 2,13,-1
 623 819 l 2,14,15
 756 819 756 819 793 825 c 1,16,17
 799 821 799 821 803 813 c 128,-1,18
 807 805 807 805 805 799 c 0,19,20
 776 758 776 758 742.5 700.5 c 128,-1,21
 709 643 709 643 659 559 c 2,22,-1
 440 186 l 2,23,24
 403 120 403 120 403 102 c 0,25,26
 403 94 403 94 421.5 92 c 128,-1,27
 440 90 440 90 485 90 c 2,28,-1
 535 90 l 2,29,30
 601 90 601 90 650.5 104.5 c 128,-1,31
 700 119 700 119 727 160 c 0,32,33
 747 191 747 191 788 270 c 1,34,35
 800 282 800 282 827 279 c 128,-1,36
 854 276 854 276 862 260 c 1,37,38
 860 231 860 231 851 191.5 c 128,-1,39
 842 152 842 152 830.5 113 c 128,-1,40
 819 74 819 74 807 41 c 128,-1,41
 795 8 795 8 784 -6 c 1,42,43
 721 -4 721 -4 675 -3 c 128,-1,44
 629 -2 629 -2 592 -1 c 128,-1,45
 555 0 555 0 523.5 0 c 2,46,-1
 457 0 l 1,47,-1
 258 0 l 2,48,49
 174 0 174 0 129 -1 c 128,-1,50
 84 -2 84 -2 59 -6 c 1,51,52
 36 2 36 2 45 27 c 1,53,54
 57 45 57 45 78.5 79 c 128,-1,55
 100 113 100 113 126 154 c 128,-1,56
 152 195 152 195 177.5 239 c 128,-1,57
 203 283 203 283 225 322 c 2,58,-1
 416 659 l 2,59,60
 438 700 438 700 438 718 c 0,61,62
 438 723 438 723 427 726 c 128,-1,63
 416 729 416 729 381 729 c 2,64,-1
 317 729 l 2,65,66
 262 729 262 729 227.5 721 c 128,-1,67
 193 713 193 713 172 690 c 0,68,69
 160 678 160 678 141.5 648 c 128,-1,70
 123 618 123 618 106 571 c 1,71,72
 92 559 92 559 66.5 565 c 128,-1,73
 41 571 41 571 33 588 c 1,0,1
EndSplineSet
Validated: 524289
EndChar

StartChar: braceleft
Encoding: 101 123 101
Width: 696
Flags: W
LayerCount: 2
Fore
SplineSet
115 550.5 m 128,-1,1
 115 567 115 567 125 575 c 1,2,3
 195 579 195 579 231.5 595.5 c 128,-1,4
 268 612 268 612 284.5 635.5 c 128,-1,5
 301 659 301 659 303 685 c 128,-1,6
 305 711 305 711 305 735 c 0,7,8
 305 833 305 833 288.5 942 c 128,-1,9
 272 1051 272 1051 272 1153 c 0,10,11
 272 1243 272 1243 302 1296.5 c 128,-1,12
 332 1350 332 1350 380 1377.5 c 128,-1,13
 428 1405 428 1405 490.5 1413 c 128,-1,14
 553 1421 553 1421 618 1421 c 1,15,16
 628 1417 628 1417 630.5 1395.5 c 128,-1,17
 633 1374 633 1374 623 1364 c 1,18,19
 566 1354 566 1354 532 1333.5 c 128,-1,20
 498 1313 498 1313 479.5 1288.5 c 128,-1,21
 461 1264 461 1264 456 1236 c 128,-1,22
 451 1208 451 1208 451 1186 c 0,23,24
 451 1082 451 1082 470 977 c 128,-1,25
 489 872 489 872 489 766 c 0,26,27
 489 680 489 680 452.5 626.5 c 128,-1,28
 416 573 416 573 336 553 c 1,29,-1
 336 545 l 1,30,31
 416 525 416 525 452.5 471.5 c 128,-1,32
 489 418 489 418 489 332 c 0,33,34
 489 226 489 226 470 121 c 128,-1,35
 451 16 451 16 451 -88 c 0,36,37
 451 -117 451 -117 456 -143.5 c 128,-1,38
 461 -170 461 -170 479.5 -194.5 c 128,-1,39
 498 -219 498 -219 531.5 -237.5 c 128,-1,40
 565 -256 565 -256 623 -266 c 1,41,42
 633 -276 633 -276 631 -297.5 c 128,-1,43
 629 -319 629 -319 618 -324 c 1,44,45
 548 -324 548 -324 486 -315.5 c 128,-1,46
 424 -307 424 -307 376 -279.5 c 128,-1,47
 328 -252 328 -252 300 -198.5 c 128,-1,48
 272 -145 272 -145 272 -55 c 0,49,50
 272 47 272 47 288.5 155.5 c 128,-1,51
 305 264 305 264 305 362 c 0,52,53
 305 382 305 382 301 409 c 128,-1,54
 297 436 297 436 279.5 459.5 c 128,-1,55
 262 483 262 483 225 500.5 c 128,-1,56
 188 518 188 518 125 522 c 1,57,0
 115 534 115 534 115 550.5 c 128,-1,1
EndSplineSet
Validated: 1
EndChar

StartChar: bar
Encoding: 102 124 102
Width: 507
Flags: W
LayerCount: 2
Fore
SplineSet
164 -512 m 1,0,-1
 164 1536 l 1,1,-1
 344 1536 l 1,2,-1
 344 -512 l 1,3,-1
 164 -512 l 1,0,-1
EndSplineSet
Validated: 1
EndChar

StartChar: braceright
Encoding: 103 125 103
Width: 696
Flags: W
LayerCount: 2
Fore
SplineSet
65.5 -298 m 128,-1,1
 63 -276 63 -276 74 -266 c 1,2,3
 131 -256 131 -256 165 -237.5 c 128,-1,4
 199 -219 199 -219 217.5 -194.5 c 128,-1,5
 236 -170 236 -170 241 -143.5 c 128,-1,6
 246 -117 246 -117 246 -88 c 0,7,8
 246 16 246 16 226.5 121 c 128,-1,9
 207 226 207 226 207 332 c 0,10,11
 207 418 207 418 244 471 c 128,-1,12
 281 524 281 524 360 545 c 1,13,-1
 360 553 l 1,14,15
 280 573 280 573 243.5 626.5 c 128,-1,16
 207 680 207 680 207 766 c 0,17,18
 207 872 207 872 226.5 976.5 c 128,-1,19
 246 1081 246 1081 246 1186 c 0,20,21
 246 1209 246 1209 241 1236.5 c 128,-1,22
 236 1264 236 1264 217.5 1288.5 c 128,-1,23
 199 1313 199 1313 165 1333.5 c 128,-1,24
 131 1354 131 1354 74 1364 c 1,25,26
 64 1374 64 1374 66 1395.5 c 128,-1,27
 68 1417 68 1417 78 1421 c 1,28,29
 144 1421 144 1421 206 1413 c 128,-1,30
 268 1405 268 1405 316.5 1377.5 c 128,-1,31
 365 1350 365 1350 394.5 1296.5 c 128,-1,32
 424 1243 424 1243 424 1153 c 0,33,34
 424 1051 424 1051 407.5 942.5 c 128,-1,35
 391 834 391 834 391 735 c 0,36,37
 391 710 391 710 393 684.5 c 128,-1,38
 395 659 395 659 411.5 635.5 c 128,-1,39
 428 612 428 612 465 596 c 128,-1,40
 502 580 502 580 571 575 c 1,41,42
 581 567 581 567 581.5 551 c 128,-1,43
 582 535 582 535 571 522 c 1,44,45
 505 518 505 518 469.5 500.5 c 128,-1,46
 434 483 434 483 416.5 459.5 c 128,-1,47
 399 436 399 436 395 409.5 c 128,-1,48
 391 383 391 383 391 362 c 0,49,50
 391 264 391 264 407.5 155.5 c 128,-1,51
 424 47 424 47 424 -55 c 0,52,53
 424 -145 424 -145 396.5 -198.5 c 128,-1,54
 369 -252 369 -252 320.5 -279.5 c 128,-1,55
 272 -307 272 -307 209.5 -315.5 c 128,-1,56
 147 -324 147 -324 78 -324 c 1,57,0
 68 -320 68 -320 65.5 -298 c 128,-1,1
EndSplineSet
Validated: 1
EndChar

StartChar: asciitilde
Encoding: 104 126 104
Width: 1064
LayerCount: 2
Fore
SplineSet
115 227 m 1,0,1
 117 245 117 245 126 274 c 128,-1,2
 135 303 135 303 149.5 334 c 128,-1,3
 164 365 164 365 181.5 395.5 c 128,-1,4
 199 426 199 426 217 449 c 0,5,6
 252 490 252 490 296 500 c 128,-1,7
 340 510 340 510 401 510 c 2,8,-1
 662 510 l 2,9,10
 736 510 736 510 771.5 547 c 128,-1,11
 807 584 807 584 836 662 c 1,12,13
 861 678 861 678 897.5 668.5 c 128,-1,14
 934 659 934 659 950 631 c 1,15,16
 934 574 934 574 903 513.5 c 128,-1,17
 872 453 872 453 838 416 c 0,18,19
 809 381 809 381 772 371.5 c 128,-1,20
 735 362 735 362 682 362 c 2,21,-1
 399 362 l 2,22,23
 333 362 333 362 294.5 319 c 128,-1,24
 256 276 256 276 225 201 c 1,25,26
 213 195 213 195 196.5 192.5 c 128,-1,27
 180 190 180 190 162.5 193.5 c 128,-1,28
 145 197 145 197 132 205 c 128,-1,29
 119 213 119 213 115 227 c 1,0,1
EndSplineSet
Validated: 1
EndChar

StartChar: exclamdown
Encoding: 105 161 105
Width: 520
Flags: W
LayerCount: 2
Fore
SplineSet
94 641 m 0,0,1
 94 678 94 678 108.5 708.5 c 128,-1,2
 123 739 123 739 146.5 760.5 c 128,-1,3
 170 782 170 782 199.5 794.5 c 128,-1,4
 229 807 229 807 260 807 c 0,5,6
 334 807 334 807 380 760 c 128,-1,7
 426 713 426 713 426 641 c 0,8,9
 426 608 426 608 413.5 577.5 c 128,-1,10
 401 547 401 547 379.5 523.5 c 128,-1,11
 358 500 358 500 327.5 485.5 c 128,-1,12
 297 471 297 471 260 471 c 0,13,14
 190 471 190 471 142 520 c 128,-1,15
 94 569 94 569 94 641 c 0,0,1
96 -457 m 0,16,17
 96 -432 96 -432 104.5 -379 c 128,-1,18
 113 -326 113 -326 129 -217 c 2,19,-1
 215 358 l 1,20,21
 233 370 233 370 260 370.5 c 128,-1,22
 287 371 287 371 305 358 c 1,23,-1
 391 -217 l 2,24,25
 407 -326 407 -326 415.5 -379 c 128,-1,26
 424 -432 424 -432 424 -457 c 0,27,28
 424 -510 424 -510 382 -527.5 c 128,-1,29
 340 -545 340 -545 260 -545 c 128,-1,30
 180 -545 180 -545 138 -527.5 c 128,-1,31
 96 -510 96 -510 96 -457 c 0,16,17
EndSplineSet
Validated: 1
EndChar

StartChar: cent
Encoding: 106 162 106
Width: 1064
LayerCount: 2
Fore
SplineSet
115 621 m 0,0,1
 115 740 115 740 159 824.5 c 128,-1,2
 203 909 203 909 275.5 965.5 c 128,-1,3
 348 1022 348 1022 440 1049.5 c 128,-1,4
 532 1077 532 1077 631 1079 c 1,5,-1
 651 1253 l 1,6,7
 667 1265 667 1265 700 1265.5 c 128,-1,8
 733 1266 733 1266 750 1253 c 1,9,-1
 729 1075 l 1,10,11
 774 1073 774 1073 813 1066 c 128,-1,12
 852 1059 852 1059 883 1049 c 1,13,14
 897 1039 897 1039 911.5 1011 c 128,-1,15
 926 983 926 983 926 946 c 0,16,17
 926 893 926 893 908.5 864.5 c 128,-1,18
 891 836 891 836 870 836 c 0,19,20
 850 836 850 836 838 848 c 0,21,22
 811 875 811 875 778 913.5 c 128,-1,23
 745 952 745 952 723 969 c 0,24,25
 721 969 721 969 721 970 c 128,-1,26
 721 971 721 971 717 971 c 2,27,-1
 643 360 l 1,28,29
 651 356 651 356 659.5 356 c 2,30,-1
 676 356 l 2,31,32
 748 356 748 356 799 383 c 128,-1,33
 850 410 850 410 899 475 c 1,34,35
 922 479 922 479 939 468 c 128,-1,36
 956 457 956 457 954 436 c 1,37,38
 938 403 938 403 912.5 367.5 c 128,-1,39
 887 332 887 332 848 301 c 128,-1,40
 809 270 809 270 754.5 248.5 c 128,-1,41
 700 227 700 227 627 221 c 1,42,-1
 600 8 l 1,43,44
 584 -4 584 -4 552 -4 c 128,-1,45
 520 -4 520 -4 502 8 c 1,46,-1
 528 221 l 1,47,48
 430 227 430 227 353 260 c 128,-1,49
 276 293 276 293 223 346 c 128,-1,50
 170 399 170 399 142.5 469 c 128,-1,51
 115 539 115 539 115 621 c 0,0,1
395 678 m 0,52,53
 395 569 395 569 434 494.5 c 128,-1,54
 473 420 473 420 549 385 c 1,55,-1
 621 991 l 1,56,57
 568 989 568 989 525.5 963.5 c 128,-1,58
 483 938 483 938 454.5 895 c 128,-1,59
 426 852 426 852 410.5 795.5 c 128,-1,60
 395 739 395 739 395 678 c 0,52,53
EndSplineSet
Validated: 524289
EndChar

StartChar: sterling
Encoding: 107 163 107
Width: 1064
LayerCount: 2
Fore
SplineSet
-25 8 m 0,0,1
 -25 39 -25 39 6 74 c 128,-1,2
 37 109 37 109 78 141 c 0,3,4
 156 204 156 204 191.5 312 c 128,-1,5
 227 420 227 420 227 580 c 0,6,7
 227 600 227 600 222 599 c 128,-1,8
 217 598 217 598 193 604 c 1,9,-1
 16 604 l 1,10,11
 4 616 4 616 5 646 c 128,-1,12
 6 676 6 676 27 696 c 1,13,-1
 190 696 l 2,14,15
 213 696 213 696 218 699 c 128,-1,16
 223 702 223 702 221 715 c 0,17,18
 219 731 219 731 219 752.5 c 2,19,-1
 219 791 l 2,20,21
 219 908 219 908 259 1004 c 128,-1,22
 299 1100 299 1100 366.5 1168.5 c 128,-1,23
 434 1237 434 1237 526 1274 c 128,-1,24
 618 1311 618 1311 723 1311 c 0,25,26
 768 1311 768 1311 802 1302.5 c 128,-1,27
 836 1294 836 1294 856 1280 c 0,28,29
 881 1257 881 1257 881 1212 c 0,30,31
 881 1189 881 1189 872.5 1168 c 128,-1,32
 864 1147 864 1147 852 1130.5 c 128,-1,33
 840 1114 840 1114 827.5 1105 c 128,-1,34
 815 1096 815 1096 807 1096 c 0,35,36
 793 1096 793 1096 783.5 1099 c 128,-1,37
 774 1102 774 1102 758 1116 c 0,38,39
 692 1169 692 1169 656.5 1182.5 c 128,-1,40
 621 1196 621 1196 598 1196 c 0,41,42
 586 1196 586 1196 569.5 1182.5 c 128,-1,43
 553 1169 553 1169 538.5 1138.5 c 128,-1,44
 524 1108 524 1108 514 1059 c 128,-1,45
 504 1010 504 1010 504 938 c 0,46,47
 504 883 504 883 507 834.5 c 128,-1,48
 510 786 510 786 516 727 c 0,49,50
 518 707 518 707 524 701.5 c 128,-1,51
 530 696 530 696 559 696 c 2,52,-1
 821 696 l 1,53,54
 835 680 835 680 830 650.5 c 128,-1,55
 825 621 825 621 811 604 c 1,56,-1
 561 604 l 2,57,58
 532 604 532 604 524 600 c 128,-1,59
 516 596 516 596 516 575 c 0,60,61
 516 507 516 507 499.5 457.5 c 128,-1,62
 483 408 483 408 454.5 371 c 128,-1,63
 426 334 426 334 386 306.5 c 128,-1,64
 346 279 346 279 299 256 c 1,65,-1
 301 252 l 1,66,67
 326 256 326 256 356.5 258 c 128,-1,68
 387 260 387 260 442 250 c 0,69,70
 477 246 477 246 529.5 225.5 c 128,-1,71
 582 205 582 205 645 172 c 0,72,73
 696 145 696 145 749.5 129 c 128,-1,74
 803 113 803 113 840 113 c 0,75,76
 885 113 885 113 886 137.5 c 128,-1,77
 887 162 887 162 862 223 c 0,78,79
 839 282 839 282 864 307 c 128,-1,80
 889 332 889 332 920 332 c 0,81,82
 936 332 936 332 954.5 325.5 c 128,-1,83
 973 319 973 319 988.5 304 c 128,-1,84
 1004 289 1004 289 1013 264.5 c 128,-1,85
 1022 240 1022 240 1022 205 c 0,86,87
 1022 160 1022 160 995.5 109.5 c 128,-1,88
 969 59 969 59 924 16 c 128,-1,89
 879 -27 879 -27 819.5 -54.5 c 128,-1,90
 760 -82 760 -82 694 -82 c 0,91,92
 639 -82 639 -82 585.5 -61.5 c 128,-1,93
 532 -41 532 -41 457 6 c 0,94,95
 396 45 396 45 336 74.5 c 128,-1,96
 276 104 276 104 225 104 c 0,97,98
 186 104 186 104 170 76.5 c 128,-1,99
 154 49 154 49 150 27 c 0,100,101
 148 17 148 17 129.5 6.5 c 128,-1,102
 111 -4 111 -4 88.5 -12 c 128,-1,103
 66 -20 66 -20 44.5 -24.5 c 128,-1,104
 23 -29 23 -29 14 -29 c 0,105,106
 -25 -29 -25 -29 -25 8 c 0,0,1
EndSplineSet
Validated: 524321
EndChar

StartChar: currency
Encoding: 108 164 108
Width: 1064
LayerCount: 2
Fore
SplineSet
80 299 m 1,0,-1
 174 385 l 1,1,2
 137 428 137 428 113.5 495.5 c 128,-1,3
 90 563 90 563 90 641 c 128,-1,4
 90 719 90 719 113.5 786.5 c 128,-1,5
 137 854 137 854 174 897 c 1,6,-1
 80 983 l 1,7,8
 90 1036 90 1036 130 1069 c 128,-1,9
 170 1102 170 1102 213 1106 c 1,10,-1
 289 1006 l 1,11,12
 336 1041 336 1041 398 1060 c 128,-1,13
 460 1079 460 1079 532 1079 c 128,-1,14
 604 1079 604 1079 666.5 1059.5 c 128,-1,15
 729 1040 729 1040 776 1006 c 1,16,-1
 852 1106 l 1,17,18
 895 1102 895 1102 935 1069 c 128,-1,19
 975 1036 975 1036 985 983 c 1,20,-1
 891 897 l 1,21,22
 928 854 928 854 951.5 786.5 c 128,-1,23
 975 719 975 719 975 641 c 128,-1,24
 975 563 975 563 951.5 495.5 c 128,-1,25
 928 428 928 428 891 385 c 1,26,-1
 985 299 l 1,27,28
 975 246 975 246 935 213 c 128,-1,29
 895 180 895 180 852 176 c 1,30,-1
 776 276 l 1,31,32
 729 241 729 241 666.5 222 c 128,-1,33
 604 203 604 203 532 203 c 128,-1,34
 460 203 460 203 398 222.5 c 128,-1,35
 336 242 336 242 289 276 c 1,36,-1
 213 176 l 1,37,38
 170 180 170 180 130 213 c 128,-1,39
 90 246 90 246 80 299 c 1,0,-1
279 641 m 0,40,41
 279 578 279 578 299 526.5 c 128,-1,42
 319 475 319 475 354 438 c 128,-1,43
 389 401 389 401 435 380.5 c 128,-1,44
 481 360 481 360 532 360 c 128,-1,45
 583 360 583 360 629.5 380.5 c 128,-1,46
 676 401 676 401 710.5 438 c 128,-1,47
 745 475 745 475 765.5 527.5 c 128,-1,48
 786 580 786 580 786 641 c 128,-1,49
 786 702 786 702 765.5 754.5 c 128,-1,50
 745 807 745 807 710.5 844 c 128,-1,51
 676 881 676 881 629.5 901.5 c 128,-1,52
 583 922 583 922 532 922 c 128,-1,53
 481 922 481 922 435 901.5 c 128,-1,54
 389 881 389 881 354 844 c 128,-1,55
 319 807 319 807 299 754.5 c 128,-1,56
 279 702 279 702 279 641 c 0,40,41
EndSplineSet
Validated: 1
EndChar

StartChar: yen
Encoding: 109 165 109
Width: 1064
LayerCount: 2
Fore
SplineSet
-31.5 1259.5 m 128,-1,1
 -31 1284 -31 1284 -14 1292 c 1,2,3
 58 1288 58 1288 128.5 1287 c 128,-1,4
 199 1286 199 1286 276 1286 c 0,5,6
 364 1286 364 1286 421.5 1287 c 128,-1,7
 479 1288 479 1288 518 1292 c 1,8,9
 536 1288 536 1288 534 1262.5 c 128,-1,10
 532 1237 532 1237 520 1225 c 1,11,-1
 465 1210 l 2,12,13
 424 1200 424 1200 424 1176 c 0,14,15
 424 1160 424 1160 441.5 1122.5 c 128,-1,16
 459 1085 459 1085 471 1061 c 0,17,18
 508 989 508 989 539.5 933 c 128,-1,19
 571 877 571 877 610 809 c 1,20,21
 612 815 612 815 624.5 836.5 c 128,-1,22
 637 858 637 858 654.5 888 c 128,-1,23
 672 918 672 918 690.5 951.5 c 128,-1,24
 709 985 709 985 725 1016 c 0,25,26
 737 1039 737 1039 749.5 1063 c 128,-1,27
 762 1087 762 1087 773 1110 c 128,-1,28
 784 1133 784 1133 791.5 1150 c 128,-1,29
 799 1167 799 1167 799 1176 c 0,30,31
 799 1199 799 1199 739 1214 c 2,32,-1
 702 1225 l 1,33,34
 686 1235 686 1235 687 1259.5 c 128,-1,35
 688 1284 688 1284 711 1292 c 1,36,37
 772 1288 772 1288 819 1287 c 128,-1,38
 866 1286 866 1286 907 1286 c 0,39,40
 942 1286 942 1286 988 1287 c 128,-1,41
 1034 1288 1034 1288 1087 1292 c 1,42,43
 1103 1286 1103 1286 1102.5 1260.5 c 128,-1,44
 1102 1235 1102 1235 1090 1225 c 1,45,-1
 1044 1212 l 2,46,47
 1019 1206 1019 1206 1001 1197 c 128,-1,48
 983 1188 983 1188 966.5 1171.5 c 128,-1,49
 950 1155 950 1155 930.5 1127.5 c 128,-1,50
 911 1100 911 1100 885 1057 c 2,51,-1
 692 750 l 1,52,-1
 973 750 l 1,53,54
 989 736 989 736 989 705 c 128,-1,55
 989 674 989 674 973 657 c 1,56,-1
 666 657 l 1,57,-1
 666 502 l 1,58,-1
 973 502 l 1,59,60
 989 488 989 488 989 457 c 128,-1,61
 989 426 989 426 973 410 c 1,62,-1
 666 410 l 1,63,-1
 666 238 l 2,64,65
 666 183 666 183 668 150 c 128,-1,66
 670 117 670 117 678 99.5 c 128,-1,67
 686 82 686 82 701.5 76 c 128,-1,68
 717 70 717 70 741 68 c 2,69,-1
 809 61 l 1,70,71
 821 51 821 51 821 27.5 c 128,-1,72
 821 4 821 4 807 -6 c 1,73,74
 729 -2 729 -2 662.5 -1 c 128,-1,75
 596 0 596 0 530 0 c 0,76,77
 460 0 460 0 392 -1 c 128,-1,78
 324 -2 324 -2 244 -6 c 1,79,80
 230 4 230 4 229.5 27.5 c 128,-1,81
 229 51 229 51 242 61 c 1,82,-1
 315 68 l 2,83,84
 340 70 340 70 355.5 76 c 128,-1,85
 371 82 371 82 379 99.5 c 128,-1,86
 387 117 387 117 389 149.5 c 128,-1,87
 391 182 391 182 391 238 c 2,88,-1
 391 410 l 1,89,-1
 84 410 l 1,90,91
 68 426 68 426 68 456.5 c 128,-1,92
 68 487 68 487 84 502 c 1,93,-1
 391 502 l 1,94,-1
 391 657 l 1,95,-1
 84 657 l 1,96,97
 68 673 68 673 68 704 c 128,-1,98
 68 735 68 735 84 750 c 1,99,-1
 352 750 l 1,100,-1
 156 1098 l 2,101,102
 129 1143 129 1143 100.5 1175.5 c 128,-1,103
 72 1208 72 1208 16 1219 c 2,104,-1
 -20 1225 l 1,105,0
 -32 1235 -32 1235 -31.5 1259.5 c 128,-1,1
EndSplineSet
Validated: 1
EndChar

StartChar: brokenbar
Encoding: 110 166 110
Width: 507
Flags: W
LayerCount: 2
Fore
SplineSet
164 -358 m 1,0,-1
 164 358 l 1,1,-1
 344 358 l 1,2,-1
 344 -358 l 1,3,-1
 164 -358 l 1,0,-1
164 666 m 1,4,-1
 164 1382 l 1,5,-1
 344 1382 l 1,6,-1
 344 666 l 1,7,-1
 164 666 l 1,4,-1
EndSplineSet
Validated: 1
EndChar

